<ttFont>
<head>
    <!-- Most of this table will be recalculated by the compiler -->
    <tableVersion value="1.0"/>
    <fontRevision value="1.0"/>
    <checkSumAdjustment value="0xe1c3b28b"/>
    <magicNumber value="0x5f0f3cf5"/>
    <flags value="00000000 00011011"/>
    <unitsPerEm value="1000"/>
    <created value="Sat Dec  6 13:43:36 2025"/>
    <modified value="Sat Dec  6 13:51:05 2025"/>
    <xMin value="-49"/>
    <yMin value="-250"/>
    <xMax value="1367"/>
    <yMax value="753"/>
    <macStyle value="00000000 00000001"/>
    <lowestRecPPEM value="6"/>
    <fontDirectionHint value="2"/>
    <indexToLocFormat value="0"/>
    <glyphDataFormat value="0"/>
  </head>
    <TTGlyph name="A" xMin="59" yMin="0" xMax="968" yMax="707">
      <contour>
        <pt x="868" y="60" on="1"/>
        <pt x="968" y="60" on="1"/>
        <pt x="968" y="0" on="1"/>
        <pt x="936" y="2" on="0"/>
        <pt x="846" y="4" on="0"/>
        <pt x="802" y="4" on="1"/>
        <pt x="760" y="4" on="0"/>
        <pt x="662" y="3" on="0"/>
        <pt x="620" y="0" on="1"/>
        <pt x="620" y="60" on="1"/>
        <pt x="708" y="60" on="1"/>
        <pt x="642" y="202" on="1"/>
        <pt x="316" y="202" on="1"/>
        <pt x="259" y="77" on="1"/>
        <pt x="259" y="76" on="0"/>
        <pt x="254" y="67" on="0"/>
        <pt x="254" y="66" on="1"/>
        <pt x="254" y="64" on="0"/>
        <pt x="272" y="61" on="0"/>
        <pt x="294" y="60" on="0"/>
        <pt x="314" y="60" on="0"/>
        <pt x="317" y="60" on="1"/>
        <pt x="338" y="60" on="1"/>
        <pt x="338" y="0" on="1"/>
        <pt x="331" y="0" on="0"/>
        <pt x="295" y="2" on="0"/>
        <pt x="251" y="3" on="0"/>
        <pt x="206" y="4" on="0"/>
        <pt x="191" y="4" on="1"/>
        <pt x="174" y="4" on="0"/>
        <pt x="134" y="3" on="0"/>
        <pt x="98" y="2" on="0"/>
        <pt x="67" y="0" on="0"/>
        <pt x="59" y="0" on="1"/>
        <pt x="59" y="60" on="1"/>
        <pt x="98" y="60" on="1"/>
        <pt x="106" y="60" on="0"/>
        <pt x="132" y="60" on="0"/>
        <pt x="140" y="61" on="1"/>
        <pt x="155" y="63" on="0"/>
        <pt x="162" y="67" on="0"/>
        <pt x="167" y="76" on="1"/>
        <pt x="443" y="679" on="1"/>
        <pt x="453" y="700" on="0"/>
        <pt x="479" y="707" on="0"/>
        <pt x="493" y="707" on="1"/>
        <pt x="534" y="707" on="1"/>
        <pt x="551" y="707" on="0"/>
        <pt x="574" y="700" on="0"/>
        <pt x="584" y="678" on="1"/>
      </contour>
      <contour>
        <pt x="343" y="262" on="1"/>
        <pt x="615" y="262" on="1"/>
        <pt x="479" y="558" on="1"/>
      </contour>
    </TTGlyph>
    <TTGlyph name="AE" xMin="59" yMin="0" xMax="1188" yMax="686">
      <contour>
        <pt x="1134" y="0" on="1"/>
        <pt x="490" y="0" on="1"/>
        <pt x="490" y="60" on="1"/>
        <pt x="570" y="60" on="1"/>
        <pt x="570" y="300" on="1"/>
        <pt x="362" y="300" on="1"/>
        <pt x="259" y="77" on="1"/>
        <pt x="254" y="67" on="0"/>
        <pt x="254" y="66" on="1"/>
        <pt x="254" y="64" on="0"/>
        <pt x="272" y="61" on="0"/>
        <pt x="294" y="60" on="0"/>
        <pt x="314" y="60" on="0"/>
        <pt x="317" y="60" on="1"/>
        <pt x="338" y="60" on="1"/>
        <pt x="338" y="0" on="1"/>
        <pt x="334" y="0" on="0"/>
        <pt x="301" y="1" on="0"/>
        <pt x="257" y="3" on="0"/>
        <pt x="209" y="4" on="0"/>
        <pt x="191" y="4" on="1"/>
        <pt x="174" y="4" on="0"/>
        <pt x="134" y="3" on="0"/>
        <pt x="98" y="2" on="0"/>
        <pt x="67" y="0" on="0"/>
        <pt x="59" y="0" on="1"/>
        <pt x="59" y="60" on="1"/>
        <pt x="98" y="60" on="1"/>
        <pt x="106" y="60" on="0"/>
        <pt x="132" y="60" on="0"/>
        <pt x="140" y="61" on="1"/>
        <pt x="155" y="63" on="0"/>
        <pt x="162" y="67" on="0"/>
        <pt x="167" y="76" on="1"/>
        <pt x="421" y="626" on="1"/>
        <pt x="365" y="626" on="1"/>
        <pt x="365" y="686" on="1"/>
        <pt x="1114" y="686" on="1"/>
        <pt x="1150" y="459" on="1"/>
        <pt x="1079" y="459" on="1"/>
        <pt x="1071" y="511" on="0"/>
        <pt x="1039" y="576" on="0"/>
        <pt x="989" y="613" on="0"/>
        <pt x="919" y="626" on="0"/>
        <pt x="874" y="626" on="1"/>
        <pt x="715" y="626" on="1"/>
        <pt x="715" y="360" on="1"/>
        <pt x="797" y="360" on="1"/>
        <pt x="824" y="360" on="0"/>
        <pt x="867" y="366" on="0"/>
        <pt x="899" y="387" on="0"/>
        <pt x="916" y="426" on="0"/>
        <pt x="916" y="460" on="1"/>
        <pt x="987" y="460" on="1"/>
        <pt x="987" y="200" on="1"/>
        <pt x="916" y="200" on="1"/>
        <pt x="916" y="234" on="0"/>
        <pt x="899" y="273" on="0"/>
        <pt x="867" y="294" on="0"/>
        <pt x="824" y="300" on="0"/>
        <pt x="797" y="300" on="1"/>
        <pt x="715" y="300" on="1"/>
        <pt x="715" y="60" on="1"/>
        <pt x="886" y="60" on="1"/>
        <pt x="944" y="60" on="0"/>
        <pt x="1023" y="82" on="0"/>
        <pt x="1075" y="129" on="0"/>
        <pt x="1106" y="203" on="0"/>
        <pt x="1117" y="254" on="1"/>
        <pt x="1188" y="254" on="1"/>
      </contour>
      <contour>
        <pt x="390" y="360" on="1"/>
        <pt x="570" y="360" on="1"/>
        <pt x="570" y="626" on="1"/>
        <pt x="513" y="626" on="1"/>
      </contour>
    </TTGlyph>
    <TTGlyph name="B" xMin="77" yMin="0" xMax="888" yMax="686">
      <contour>
        <pt x="562" y="686" on="1"/>
        <pt x="630" y="686" on="0"/>
        <pt x="737" y="659" on="0"/>
        <pt x="812" y="611" on="0"/>
        <pt x="851" y="548" on="0"/>
        <pt x="851" y="512" on="1"/>
        <pt x="851" y="463" on="0"/>
        <pt x="761" y="378" on="0"/>
        <pt x="663" y="359" on="1"/>
        <pt x="771" y="347" on="0"/>
        <pt x="888" y="252" on="0"/>
        <pt x="888" y="188" on="1"/>
        <pt x="888" y="150" on="0"/>
        <pt x="850" y="82" on="0"/>
        <pt x="776" y="30" on="0"/>
        <pt x="668" y="0" on="0"/>
        <pt x="598" y="0" on="1"/>
        <pt x="77" y="0" on="1"/>
        <pt x="77" y="60" on="1"/>
        <pt x="183" y="60" on="1"/>
        <pt x="183" y="626" on="1"/>
        <pt x="77" y="626" on="1"/>
        <pt x="77" y="686" on="1"/>
      </contour>
      <contour>
        <pt x="511" y="382" on="1"/>
        <pt x="568" y="382" on="0"/>
        <pt x="641" y="409" on="0"/>
        <pt x="683" y="448" on="0"/>
        <pt x="699" y="493" on="0"/>
        <pt x="699" y="511" on="1"/>
        <pt x="699" y="530" on="0"/>
        <pt x="685" y="570" on="0"/>
        <pt x="650" y="604" on="0"/>
        <pt x="593" y="626" on="0"/>
        <pt x="550" y="626" on="1"/>
        <pt x="321" y="626" on="1"/>
        <pt x="321" y="382" on="1"/>
      </contour>
      <contour>
        <pt x="552" y="60" on="1"/>
        <pt x="634" y="60" on="0"/>
        <pt x="728" y="130" on="0"/>
        <pt x="728" y="190" on="1"/>
        <pt x="728" y="219" on="0"/>
        <pt x="708" y="270" on="0"/>
        <pt x="669" y="309" on="0"/>
        <pt x="609" y="331" on="0"/>
        <pt x="570" y="331" on="1"/>
        <pt x="321" y="331" on="1"/>
        <pt x="321" y="60" on="1"/>
      </contour>
    </TTGlyph>
    <TTGlyph name="C" xMin="84" yMin="-14" xMax="908" yMax="700">
      <contour>
        <pt x="908" y="453" on="1"/>
        <pt x="908" y="430" on="0"/>
        <pt x="896" y="419" on="0"/>
        <pt x="874" y="419" on="1"/>
        <pt x="859" y="419" on="1"/>
        <pt x="848" y="419" on="0"/>
        <pt x="828" y="423" on="0"/>
        <pt x="826" y="436" on="1"/>
        <pt x="814" y="498" on="0"/>
        <pt x="754" y="578" on="0"/>
        <pt x="680" y="623" on="0"/>
        <pt x="601" y="640" on="0"/>
        <pt x="570" y="640" on="1"/>
        <pt x="524" y="640" on="0"/>
        <pt x="448" y="626" on="0"/>
        <pt x="386" y="604" on="0"/>
        <pt x="341" y="576" on="0"/>
        <pt x="326" y="561" on="1"/>
        <pt x="310" y="544" on="0"/>
        <pt x="282" y="504" on="0"/>
        <pt x="262" y="451" on="0"/>
        <pt x="251" y="385" on="0"/>
        <pt x="251" y="343" on="1"/>
        <pt x="251" y="316" on="0"/>
        <pt x="257" y="257" on="0"/>
        <pt x="274" y="199" on="0"/>
        <pt x="304" y="146" on="0"/>
        <pt x="328" y="125" on="1"/>
        <pt x="356" y="100" on="0"/>
        <pt x="420" y="68" on="0"/>
        <pt x="485" y="52" on="0"/>
        <pt x="547" y="46" on="0"/>
        <pt x="573" y="46" on="1"/>
        <pt x="610" y="46" on="0"/>
        <pt x="700" y="64" on="0"/>
        <pt x="779" y="107" on="0"/>
        <pt x="834" y="179" on="0"/>
        <pt x="837" y="234" on="1"/>
        <pt x="838" y="250" on="0"/>
        <pt x="859" y="255" on="0"/>
        <pt x="872" y="255" on="1"/>
        <pt x="889" y="255" on="0"/>
        <pt x="908" y="248" on="0"/>
        <pt x="908" y="228" on="1"/>
        <pt x="908" y="179" on="0"/>
        <pt x="858" y="91" on="0"/>
        <pt x="764" y="25" on="0"/>
        <pt x="632" y="-14" on="0"/>
        <pt x="549" y="-14" on="1"/>
        <pt x="429" y="-14" on="0"/>
        <pt x="254" y="46" on="0"/>
        <pt x="140" y="146" on="0"/>
        <pt x="84" y="275" on="0"/>
        <pt x="84" y="343" on="1"/>
        <pt x="84" y="413" on="0"/>
        <pt x="142" y="542" on="0"/>
        <pt x="257" y="641" on="0"/>
        <pt x="431" y="700" on="0"/>
        <pt x="547" y="700" on="1"/>
        <pt x="631" y="700" on="0"/>
        <pt x="750" y="657" on="0"/>
        <pt x="787" y="632" on="1"/>
        <pt x="854" y="689" on="1"/>
        <pt x="863" y="697" on="0"/>
        <pt x="871" y="700" on="0"/>
        <pt x="881" y="700" on="1"/>
        <pt x="901" y="700" on="0"/>
        <pt x="908" y="680" on="0"/>
        <pt x="908" y="666" on="1"/>
      </contour>
    </TTGlyph>
    <TTGlyph name="D" xMin="73" yMin="0" xMax="963" yMax="686">
      <contour>
        <pt x="559" y="686" on="1"/>
        <pt x="649" y="686" on="0"/>
        <pt x="798" y="636" on="0"/>
        <pt x="904" y="544" on="0"/>
        <pt x="963" y="415" on="0"/>
        <pt x="963" y="337" on="1"/>
        <pt x="963" y="261" on="0"/>
        <pt x="904" y="137" on="0"/>
        <pt x="798" y="48" on="0"/>
        <pt x="649" y="0" on="0"/>
        <pt x="560" y="0" on="1"/>
        <pt x="73" y="0" on="1"/>
        <pt x="73" y="60" on="1"/>
        <pt x="179" y="60" on="1"/>
        <pt x="179" y="626" on="1"/>
        <pt x="73" y="626" on="1"/>
        <pt x="73" y="686" on="1"/>
      </contour>
      <contour>
        <pt x="519" y="60" on="1"/>
        <pt x="590" y="60" on="0"/>
        <pt x="687" y="89" on="0"/>
        <pt x="750" y="136" on="0"/>
        <pt x="785" y="196" on="0"/>
        <pt x="800" y="258" on="0"/>
        <pt x="803" y="317" on="0"/>
        <pt x="803" y="339" on="1"/>
        <pt x="803" y="361" on="0"/>
        <pt x="800" y="421" on="0"/>
        <pt x="784" y="484" on="0"/>
        <pt x="750" y="547" on="0"/>
        <pt x="686" y="596" on="0"/>
        <pt x="588" y="626" on="0"/>
        <pt x="517" y="626" on="1"/>
        <pt x="325" y="626" on="1"/>
        <pt x="325" y="60" on="1"/>
      </contour>
    </TTGlyph>
    <TTGlyph name="E" xMin="71" yMin="0" xMax="852" yMax="679">
      <contour>
        <pt x="798" y="0" on="1"/>
        <pt x="71" y="0" on="1"/>
        <pt x="71" y="60" on="1"/>
        <pt x="177" y="60" on="1"/>
        <pt x="177" y="619" on="1"/>
        <pt x="71" y="619" on="1"/>
        <pt x="71" y="679" on="1"/>
        <pt x="778" y="679" on="1"/>
        <pt x="814" y="452" on="1"/>
        <pt x="743" y="452" on="1"/>
        <pt x="734" y="507" on="0"/>
        <pt x="696" y="573" on="0"/>
        <pt x="639" y="608" on="0"/>
        <pt x="563" y="619" on="0"/>
        <pt x="518" y="619" on="1"/>
        <pt x="330" y="619" on="1"/>
        <pt x="330" y="382" on="1"/>
        <pt x="406" y="382" on="1"/>
        <pt x="433" y="382" on="0"/>
        <pt x="476" y="388" on="0"/>
        <pt x="507" y="409" on="0"/>
        <pt x="524" y="448" on="0"/>
        <pt x="524" y="482" on="1"/>
        <pt x="595" y="482" on="1"/>
        <pt x="595" y="222" on="1"/>
        <pt x="524" y="222" on="1"/>
        <pt x="524" y="256" on="0"/>
        <pt x="507" y="295" on="0"/>
        <pt x="476" y="316" on="0"/>
        <pt x="432" y="322" on="0"/>
        <pt x="406" y="322" on="1"/>
        <pt x="330" y="322" on="1"/>
        <pt x="330" y="60" on="1"/>
        <pt x="529" y="60" on="1"/>
        <pt x="581" y="60" on="0"/>
        <pt x="664" y="75" on="0"/>
        <pt x="726" y="117" on="0"/>
        <pt x="769" y="193" on="0"/>
        <pt x="781" y="254" on="1"/>
        <pt x="852" y="254" on="1"/>
      </contour>
    </TTGlyph>
    <TTGlyph name="F" xMin="71" yMin="0" xMax="796" yMax="679">
      <contour>
        <pt x="796" y="452" on="1"/>
        <pt x="725" y="452" on="1"/>
        <pt x="716" y="505" on="0"/>
        <pt x="681" y="571" on="0"/>
        <pt x="627" y="607" on="0"/>
        <pt x="554" y="619" on="0"/>
        <pt x="507" y="619" on="1"/>
        <pt x="330" y="619" on="1"/>
        <pt x="330" y="370" on="1"/>
        <pt x="401" y="370" on="1"/>
        <pt x="428" y="370" on="0"/>
        <pt x="471" y="376" on="0"/>
        <pt x="501" y="397" on="0"/>
        <pt x="517" y="437" on="0"/>
        <pt x="517" y="470" on="1"/>
        <pt x="588" y="470" on="1"/>
        <pt x="588" y="210" on="1"/>
        <pt x="517" y="210" on="1"/>
        <pt x="517" y="243" on="0"/>
        <pt x="501" y="283" on="0"/>
        <pt x="471" y="304" on="0"/>
        <pt x="428" y="310" on="0"/>
        <pt x="401" y="310" on="1"/>
        <pt x="330" y="310" on="1"/>
        <pt x="330" y="60" on="1"/>
        <pt x="463" y="60" on="1"/>
        <pt x="463" y="0" on="1"/>
        <pt x="445" y="2" on="0"/>
        <pt x="391" y="3" on="0"/>
        <pt x="333" y="4" on="0"/>
        <pt x="277" y="4" on="0"/>
        <pt x="257" y="4" on="1"/>
        <pt x="255" y="4" on="0"/>
        <pt x="209" y="4" on="0"/>
        <pt x="149" y="3" on="0"/>
        <pt x="88" y="1" on="0"/>
        <pt x="71" y="0" on="1"/>
        <pt x="71" y="60" on="1"/>
        <pt x="177" y="60" on="1"/>
        <pt x="177" y="619" on="1"/>
        <pt x="71" y="619" on="1"/>
        <pt x="71" y="679" on="1"/>
        <pt x="760" y="679" on="1"/>
      </contour>
    </TTGlyph>
    <TTGlyph name="G" xMin="84" yMin="-14" xMax="1001" yMax="700">
      <contour>
        <pt x="907" y="34" on="1"/>
        <pt x="907" y="23" on="0"/>
        <pt x="902" y="0" on="0"/>
        <pt x="886" y="0" on="1"/>
        <pt x="883" y="0" on="0"/>
        <pt x="861" y="8" on="0"/>
        <pt x="836" y="19" on="0"/>
        <pt x="811" y="31" on="0"/>
        <pt x="804" y="35" on="1"/>
        <pt x="786" y="18" on="0"/>
        <pt x="733" y="-2" on="0"/>
        <pt x="672" y="-12" on="0"/>
        <pt x="603" y="-14" on="0"/>
        <pt x="568" y="-14" on="1"/>
        <pt x="460" y="-14" on="0"/>
        <pt x="305" y="25" on="0"/>
        <pt x="197" y="88" on="0"/>
        <pt x="132" y="167" on="0"/>
        <pt x="96" y="247" on="0"/>
        <pt x="84" y="319" on="0"/>
        <pt x="84" y="343" on="1"/>
        <pt x="84" y="413" on="0"/>
        <pt x="141" y="542" on="0"/>
        <pt x="256" y="641" on="0"/>
        <pt x="430" y="700" on="0"/>
        <pt x="547" y="700" on="1"/>
        <pt x="601" y="700" on="0"/>
        <pt x="724" y="673" on="0"/>
        <pt x="786" y="632" on="1"/>
        <pt x="853" y="689" on="1"/>
        <pt x="862" y="697" on="0"/>
        <pt x="870" y="700" on="0"/>
        <pt x="880" y="700" on="1"/>
        <pt x="900" y="700" on="0"/>
        <pt x="907" y="680" on="0"/>
        <pt x="907" y="666" on="1"/>
        <pt x="907" y="453" on="1"/>
        <pt x="907" y="430" on="0"/>
        <pt x="895" y="419" on="0"/>
        <pt x="873" y="419" on="1"/>
        <pt x="858" y="419" on="1"/>
        <pt x="847" y="419" on="0"/>
        <pt x="827" y="423" on="0"/>
        <pt x="825" y="436" on="1"/>
        <pt x="813" y="498" on="0"/>
        <pt x="755" y="577" on="0"/>
        <pt x="681" y="622" on="0"/>
        <pt x="601" y="640" on="0"/>
        <pt x="569" y="640" on="1"/>
        <pt x="497" y="640" on="0"/>
        <pt x="379" y="605" on="0"/>
        <pt x="331" y="566" on="1"/>
        <pt x="289" y="530" on="0"/>
        <pt x="251" y="414" on="0"/>
        <pt x="251" y="343" on="1"/>
        <pt x="251" y="273" on="0"/>
        <pt x="290" y="162" on="0"/>
        <pt x="373" y="86" on="0"/>
        <pt x="501" y="46" on="0"/>
        <pt x="590" y="46" on="1"/>
        <pt x="652" y="46" on="0"/>
        <pt x="718" y="62" on="0"/>
        <pt x="749" y="85" on="0"/>
        <pt x="754" y="112" on="0"/>
        <pt x="754" y="124" on="1"/>
        <pt x="754" y="213" on="1"/>
        <pt x="585" y="213" on="1"/>
        <pt x="585" y="273" on="1"/>
        <pt x="604" y="272" on="0"/>
        <pt x="667" y="270" on="0"/>
        <pt x="735" y="269" on="0"/>
        <pt x="800" y="269" on="0"/>
        <pt x="821" y="269" on="1"/>
        <pt x="851" y="269" on="0"/>
        <pt x="908" y="270" on="0"/>
        <pt x="956" y="271" on="0"/>
        <pt x="992" y="273" on="0"/>
        <pt x="1001" y="273" on="1"/>
        <pt x="1001" y="213" on="1"/>
        <pt x="907" y="213" on="1"/>
      </contour>
    </TTGlyph>
    <TTGlyph name="Gamma" xMin="71" yMin="0" xMax="758" yMax="679">
      <contour>
        <pt x="758" y="452" on="1"/>
        <pt x="687" y="452" on="1"/>
        <pt x="679" y="503" on="0"/>
        <pt x="648" y="568" on="0"/>
        <pt x="598" y="605" on="0"/>
        <pt x="529" y="619" on="0"/>
        <pt x="484" y="619" on="1"/>
        <pt x="330" y="619" on="1"/>
        <pt x="330" y="60" on="1"/>
        <pt x="463" y="60" on="1"/>
        <pt x="463" y="0" on="1"/>
        <pt x="445" y="2" on="0"/>
        <pt x="391" y="3" on="0"/>
        <pt x="333" y="4" on="0"/>
        <pt x="277" y="4" on="0"/>
        <pt x="257" y="4" on="1"/>
        <pt x="255" y="4" on="0"/>
        <pt x="209" y="4" on="0"/>
        <pt x="149" y="3" on="0"/>
        <pt x="88" y="1" on="0"/>
        <pt x="71" y="0" on="1"/>
        <pt x="71" y="60" on="1"/>
        <pt x="177" y="60" on="1"/>
        <pt x="177" y="619" on="1"/>
        <pt x="71" y="619" on="1"/>
        <pt x="71" y="679" on="1"/>
        <pt x="722" y="679" on="1"/>
      </contour>
    </TTGlyph>
    <TTGlyph name="H" xMin="71" yMin="0" xMax="992" yMax="686">
      <contour>
        <pt x="886" y="60" on="1"/>
        <pt x="992" y="60" on="1"/>
        <pt x="992" y="0" on="1"/>
        <pt x="976" y="1" on="0"/>
        <pt x="916" y="3" on="0"/>
        <pt x="856" y="4" on="0"/>
        <pt x="811" y="4" on="0"/>
        <pt x="809" y="4" on="1"/>
        <pt x="804" y="4" on="0"/>
        <pt x="757" y="3" on="0"/>
        <pt x="699" y="2" on="0"/>
        <pt x="642" y="1" on="0"/>
        <pt x="627" y="0" on="1"/>
        <pt x="627" y="60" on="1"/>
        <pt x="733" y="60" on="1"/>
        <pt x="733" y="327" on="1"/>
        <pt x="330" y="327" on="1"/>
        <pt x="330" y="60" on="1"/>
        <pt x="436" y="60" on="1"/>
        <pt x="436" y="0" on="1"/>
        <pt x="420" y="1" on="0"/>
        <pt x="360" y="3" on="0"/>
        <pt x="300" y="4" on="0"/>
        <pt x="255" y="4" on="0"/>
        <pt x="253" y="4" on="1"/>
        <pt x="248" y="4" on="0"/>
        <pt x="201" y="3" on="0"/>
        <pt x="143" y="2" on="0"/>
        <pt x="86" y="1" on="0"/>
        <pt x="71" y="0" on="1"/>
        <pt x="71" y="60" on="1"/>
        <pt x="177" y="60" on="1"/>
        <pt x="177" y="626" on="1"/>
        <pt x="71" y="626" on="1"/>
        <pt x="71" y="686" on="1"/>
        <pt x="88" y="685" on="0"/>
        <pt x="147" y="683" on="0"/>
        <pt x="207" y="682" on="0"/>
        <pt x="252" y="682" on="0"/>
        <pt x="254" y="682" on="1"/>
        <pt x="259" y="682" on="0"/>
        <pt x="306" y="683" on="0"/>
        <pt x="364" y="684" on="0"/>
        <pt x="421" y="685" on="0"/>
        <pt x="436" y="686" on="1"/>
        <pt x="436" y="626" on="1"/>
        <pt x="330" y="626" on="1"/>
        <pt x="330" y="387" on="1"/>
        <pt x="733" y="387" on="1"/>
        <pt x="733" y="626" on="1"/>
        <pt x="627" y="626" on="1"/>
        <pt x="627" y="686" on="1"/>
        <pt x="644" y="685" on="0"/>
        <pt x="703" y="683" on="0"/>
        <pt x="763" y="682" on="0"/>
        <pt x="808" y="682" on="0"/>
        <pt x="810" y="682" on="1"/>
        <pt x="815" y="682" on="0"/>
        <pt x="862" y="683" on="0"/>
        <pt x="920" y="684" on="0"/>
        <pt x="977" y="685" on="0"/>
        <pt x="992" y="686" on="1"/>
        <pt x="992" y="626" on="1"/>
        <pt x="886" y="626" on="1"/>
      </contour>
    </TTGlyph>
    <TTGlyph name="I" xMin="64" yMin="0" xMax="441" yMax="686">
      <contour>
        <pt x="329" y="60" on="1"/>
        <pt x="441" y="60" on="1"/>
        <pt x="441" y="0" on="1"/>
        <pt x="420" y="2" on="0"/>
        <pt x="372" y="3" on="0"/>
        <pt x="323" y="4" on="0"/>
        <pt x="274" y="4" on="0"/>
        <pt x="253" y="4" on="1"/>
        <pt x="232" y="4" on="0"/>
        <pt x="183" y="4" on="0"/>
        <pt x="133" y="3" on="0"/>
        <pt x="85" y="2" on="0"/>
        <pt x="64" y="0" on="1"/>
        <pt x="64" y="60" on="1"/>
        <pt x="176" y="60" on="1"/>
        <pt x="176" y="626" on="1"/>
        <pt x="64" y="626" on="1"/>
        <pt x="64" y="686" on="1"/>
        <pt x="85" y="685" on="0"/>
        <pt x="133" y="683" on="0"/>
        <pt x="183" y="682" on="0"/>
        <pt x="232" y="682" on="0"/>
        <pt x="253" y="682" on="1"/>
        <pt x="274" y="682" on="0"/>
        <pt x="323" y="682" on="0"/>
        <pt x="372" y="683" on="0"/>
        <pt x="420" y="685" on="0"/>
        <pt x="441" y="686" on="1"/>
        <pt x="441" y="626" on="1"/>
        <pt x="329" y="626" on="1"/>
      </contour>
    </TTGlyph>
    <TTGlyph name="J" xMin="48" yMin="-14" xMax="612" yMax="686">
      <contour>
        <pt x="532" y="151" on="1"/>
        <pt x="532" y="112" on="0"/>
        <pt x="496" y="51" on="0"/>
        <pt x="429" y="8" on="0"/>
        <pt x="334" y="-14" on="0"/>
        <pt x="274" y="-14" on="1"/>
        <pt x="265" y="-14" on="0"/>
        <pt x="224" y="-13" on="0"/>
        <pt x="174" y="-6" on="0"/>
        <pt x="120" y="10" on="0"/>
        <pt x="76" y="38" on="0"/>
        <pt x="48" y="82" on="0"/>
        <pt x="48" y="114" on="1"/>
        <pt x="48" y="135" on="0"/>
        <pt x="63" y="167" on="0"/>
        <pt x="87" y="188" on="0"/>
        <pt x="117" y="198" on="0"/>
        <pt x="132" y="198" on="1"/>
        <pt x="146" y="198" on="0"/>
        <pt x="175" y="188" on="0"/>
        <pt x="199" y="167" on="0"/>
        <pt x="215" y="136" on="0"/>
        <pt x="215" y="114" on="1"/>
        <pt x="215" y="85" on="0"/>
        <pt x="191" y="53" on="0"/>
        <pt x="188" y="51" on="1"/>
        <pt x="215" y="41" on="0"/>
        <pt x="267" y="37" on="0"/>
        <pt x="271" y="37" on="1"/>
        <pt x="386" y="37" on="0"/>
        <pt x="386" y="151" on="1"/>
        <pt x="386" y="626" on="1"/>
        <pt x="248" y="626" on="1"/>
        <pt x="248" y="686" on="1"/>
        <pt x="266" y="685" on="0"/>
        <pt x="319" y="683" on="0"/>
        <pt x="377" y="682" on="0"/>
        <pt x="433" y="682" on="0"/>
        <pt x="452" y="682" on="1"/>
        <pt x="472" y="682" on="0"/>
        <pt x="518" y="683" on="0"/>
        <pt x="563" y="684" on="0"/>
        <pt x="601" y="686" on="0"/>
        <pt x="612" y="686" on="1"/>
        <pt x="612" y="626" on="1"/>
        <pt x="532" y="626" on="1"/>
      </contour>
    </TTGlyph>
    <TTGlyph name="K" xMin="71" yMin="0" xMax="999" yMax="686">
      <contour>
        <pt x="899" y="70" on="1"/>
        <pt x="902" y="67" on="0"/>
        <pt x="906" y="64" on="0"/>
        <pt x="916" y="61" on="0"/>
        <pt x="934" y="60" on="0"/>
        <pt x="949" y="60" on="1"/>
        <pt x="999" y="60" on="1"/>
        <pt x="999" y="0" on="1"/>
        <pt x="989" y="0" on="0"/>
        <pt x="956" y="2" on="0"/>
        <pt x="915" y="3" on="0"/>
        <pt x="871" y="4" on="0"/>
        <pt x="849" y="4" on="1"/>
        <pt x="807" y="4" on="0"/>
        <pt x="708" y="3" on="0"/>
        <pt x="666" y="0" on="1"/>
        <pt x="666" y="60" on="1"/>
        <pt x="683" y="60" on="1"/>
        <pt x="697" y="60" on="0"/>
        <pt x="708" y="61" on="0"/>
        <pt x="725" y="64" on="1"/>
        <pt x="470" y="337" on="1"/>
        <pt x="330" y="239" on="1"/>
        <pt x="330" y="60" on="1"/>
        <pt x="436" y="60" on="1"/>
        <pt x="436" y="0" on="1"/>
        <pt x="420" y="1" on="0"/>
        <pt x="360" y="3" on="0"/>
        <pt x="300" y="4" on="0"/>
        <pt x="255" y="4" on="0"/>
        <pt x="253" y="4" on="1"/>
        <pt x="248" y="4" on="0"/>
        <pt x="201" y="3" on="0"/>
        <pt x="143" y="2" on="0"/>
        <pt x="86" y="1" on="0"/>
        <pt x="71" y="0" on="1"/>
        <pt x="71" y="60" on="1"/>
        <pt x="177" y="60" on="1"/>
        <pt x="177" y="626" on="1"/>
        <pt x="71" y="626" on="1"/>
        <pt x="71" y="686" on="1"/>
        <pt x="88" y="685" on="0"/>
        <pt x="147" y="683" on="0"/>
        <pt x="207" y="682" on="0"/>
        <pt x="252" y="682" on="0"/>
        <pt x="254" y="682" on="1"/>
        <pt x="259" y="682" on="0"/>
        <pt x="306" y="683" on="0"/>
        <pt x="364" y="684" on="0"/>
        <pt x="421" y="685" on="0"/>
        <pt x="436" y="686" on="1"/>
        <pt x="436" y="626" on="1"/>
        <pt x="330" y="626" on="1"/>
        <pt x="330" y="326" on="1"/>
        <pt x="750" y="622" on="1"/>
        <pt x="741" y="624" on="0"/>
        <pt x="729" y="625" on="0"/>
        <pt x="719" y="626" on="0"/>
        <pt x="708" y="626" on="0"/>
        <pt x="699" y="626" on="1"/>
        <pt x="699" y="686" on="1"/>
        <pt x="708" y="686" on="0"/>
        <pt x="744" y="684" on="0"/>
        <pt x="791" y="683" on="0"/>
        <pt x="842" y="682" on="0"/>
        <pt x="864" y="682" on="1"/>
        <pt x="893" y="682" on="0"/>
        <pt x="951" y="683" on="0"/>
        <pt x="980" y="686" on="1"/>
        <pt x="980" y="626" on="1"/>
        <pt x="941" y="626" on="1"/>
        <pt x="919" y="626" on="0"/>
        <pt x="892" y="625" on="0"/>
        <pt x="877" y="622" on="0"/>
        <pt x="869" y="618" on="0"/>
        <pt x="865" y="615" on="1"/>
        <pt x="578" y="413" on="1"/>
      </contour>
    </TTGlyph>
    <TTGlyph name="L" xMin="71" yMin="0" xMax="758" yMax="686">
      <contour>
        <pt x="722" y="0" on="1"/>
        <pt x="71" y="0" on="1"/>
        <pt x="71" y="60" on="1"/>
        <pt x="177" y="60" on="1"/>
        <pt x="177" y="626" on="1"/>
        <pt x="71" y="626" on="1"/>
        <pt x="71" y="686" on="1"/>
        <pt x="88" y="685" on="0"/>
        <pt x="149" y="683" on="0"/>
        <pt x="209" y="682" on="0"/>
        <pt x="255" y="682" on="0"/>
        <pt x="257" y="682" on="1"/>
        <pt x="277" y="682" on="0"/>
        <pt x="333" y="682" on="0"/>
        <pt x="391" y="683" on="0"/>
        <pt x="445" y="685" on="0"/>
        <pt x="463" y="686" on="1"/>
        <pt x="463" y="626" on="1"/>
        <pt x="330" y="626" on="1"/>
        <pt x="330" y="60" on="1"/>
        <pt x="461" y="60" on="1"/>
        <pt x="568" y="60" on="0"/>
        <pt x="673" y="158" on="0"/>
        <pt x="687" y="254" on="1"/>
        <pt x="758" y="254" on="1"/>
      </contour>
    </TTGlyph>
    <TTGlyph name="Lambda" xMin="58" yMin="0" xMax="894" yMax="707">
      <contour>
        <pt x="806" y="60" on="1"/>
        <pt x="894" y="60" on="1"/>
        <pt x="894" y="0" on="1"/>
        <pt x="879" y="0" on="0"/>
        <pt x="839" y="2" on="0"/>
        <pt x="795" y="3" on="0"/>
        <pt x="751" y="4" on="0"/>
        <pt x="734" y="4" on="1"/>
        <pt x="692" y="4" on="0"/>
        <pt x="593" y="3" on="0"/>
        <pt x="551" y="0" on="1"/>
        <pt x="551" y="60" on="1"/>
        <pt x="640" y="60" on="1"/>
        <pt x="438" y="538" on="1"/>
        <pt x="238" y="64" on="1"/>
        <pt x="248" y="63" on="0"/>
        <pt x="261" y="61" on="0"/>
        <pt x="274" y="60" on="0"/>
        <pt x="290" y="60" on="0"/>
        <pt x="304" y="60" on="1"/>
        <pt x="325" y="60" on="1"/>
        <pt x="325" y="0" on="1"/>
        <pt x="321" y="0" on="0"/>
        <pt x="286" y="1" on="0"/>
        <pt x="241" y="3" on="0"/>
        <pt x="195" y="4" on="0"/>
        <pt x="180" y="4" on="1"/>
        <pt x="167" y="4" on="0"/>
        <pt x="132" y="3" on="0"/>
        <pt x="97" y="2" on="0"/>
        <pt x="66" y="1" on="0"/>
        <pt x="58" y="0" on="1"/>
        <pt x="58" y="60" on="1"/>
        <pt x="130" y="61" on="1"/>
        <pt x="142" y="63" on="0"/>
        <pt x="148" y="67" on="0"/>
        <pt x="153" y="77" on="1"/>
        <pt x="407" y="679" on="1"/>
        <pt x="416" y="700" on="0"/>
        <pt x="442" y="707" on="0"/>
        <pt x="456" y="707" on="1"/>
        <pt x="496" y="707" on="1"/>
        <pt x="510" y="707" on="0"/>
        <pt x="526" y="704" on="0"/>
        <pt x="536" y="696" on="0"/>
        <pt x="542" y="684" on="0"/>
        <pt x="545" y="676" on="1"/>
      </contour>
    </TTGlyph>
    <TTGlyph name="M" xMin="80" yMin="0" xMax="1208" yMax="686">
      <contour>
        <pt x="924" y="658" on="1"/>
        <pt x="935" y="679" on="0"/>
        <pt x="962" y="686" on="0"/>
        <pt x="976" y="686" on="1"/>
        <pt x="1208" y="686" on="1"/>
        <pt x="1208" y="626" on="1"/>
        <pt x="1102" y="626" on="1"/>
        <pt x="1102" y="60" on="1"/>
        <pt x="1208" y="60" on="1"/>
        <pt x="1208" y="0" on="1"/>
        <pt x="1197" y="0" on="0"/>
        <pt x="1158" y="2" on="0"/>
        <pt x="1111" y="3" on="0"/>
        <pt x="1060" y="4" on="0"/>
        <pt x="1036" y="4" on="1"/>
        <pt x="1010" y="4" on="0"/>
        <pt x="954" y="3" on="0"/>
        <pt x="905" y="2" on="0"/>
        <pt x="870" y="0" on="0"/>
        <pt x="865" y="0" on="1"/>
        <pt x="865" y="60" on="1"/>
        <pt x="971" y="60" on="1"/>
        <pt x="971" y="623" on="1"/>
        <pt x="970" y="623" on="1"/>
        <pt x="661" y="28" on="1"/>
        <pt x="650" y="7" on="0"/>
        <pt x="624" y="0" on="0"/>
        <pt x="614" y="0" on="1"/>
        <pt x="591" y="0" on="0"/>
        <pt x="573" y="18" on="0"/>
        <pt x="567" y="29" on="1"/>
        <pt x="265" y="609" on="1"/>
        <pt x="264" y="609" on="1"/>
        <pt x="264" y="82" on="1"/>
        <pt x="264" y="68" on="0"/>
        <pt x="270" y="63" on="0"/>
        <pt x="287" y="61" on="1"/>
        <pt x="296" y="60" on="0"/>
        <pt x="319" y="60" on="0"/>
        <pt x="328" y="60" on="1"/>
        <pt x="370" y="60" on="1"/>
        <pt x="370" y="0" on="1"/>
        <pt x="367" y="0" on="0"/>
        <pt x="336" y="1" on="0"/>
        <pt x="293" y="3" on="0"/>
        <pt x="245" y="4" on="0"/>
        <pt x="225" y="4" on="1"/>
        <pt x="205" y="4" on="0"/>
        <pt x="157" y="3" on="0"/>
        <pt x="114" y="1" on="0"/>
        <pt x="83" y="0" on="0"/>
        <pt x="80" y="0" on="1"/>
        <pt x="80" y="60" on="1"/>
        <pt x="165" y="61" on="1"/>
        <pt x="180" y="63" on="0"/>
        <pt x="186" y="68" on="0"/>
        <pt x="186" y="82" on="1"/>
        <pt x="186" y="626" on="1"/>
        <pt x="80" y="626" on="1"/>
        <pt x="80" y="686" on="1"/>
        <pt x="311" y="686" on="1"/>
        <pt x="328" y="686" on="0"/>
        <pt x="352" y="678" on="0"/>
        <pt x="363" y="657" on="1"/>
        <pt x="644" y="118" on="1"/>
      </contour>
    </TTGlyph>
    <TTGlyph name="N" xMin="71" yMin="0" xMax="992" yMax="686">
      <contour>
        <pt x="808" y="200" on="1"/>
        <pt x="808" y="604" on="1"/>
        <pt x="808" y="618" on="0"/>
        <pt x="802" y="623" on="0"/>
        <pt x="785" y="625" on="1"/>
        <pt x="776" y="626" on="0"/>
        <pt x="753" y="626" on="0"/>
        <pt x="744" y="626" on="1"/>
        <pt x="702" y="626" on="1"/>
        <pt x="702" y="686" on="1"/>
        <pt x="705" y="686" on="0"/>
        <pt x="736" y="685" on="0"/>
        <pt x="779" y="683" on="0"/>
        <pt x="827" y="682" on="0"/>
        <pt x="847" y="682" on="1"/>
        <pt x="867" y="682" on="0"/>
        <pt x="915" y="683" on="0"/>
        <pt x="958" y="685" on="0"/>
        <pt x="989" y="686" on="0"/>
        <pt x="992" y="686" on="1"/>
        <pt x="992" y="626" on="1"/>
        <pt x="907" y="625" on="1"/>
        <pt x="892" y="623" on="0"/>
        <pt x="886" y="618" on="0"/>
        <pt x="886" y="604" on="1"/>
        <pt x="886" y="36" on="1"/>
        <pt x="886" y="13" on="0"/>
        <pt x="873" y="0" on="0"/>
        <pt x="850" y="0" on="1"/>
        <pt x="844" y="0" on="1"/>
        <pt x="829" y="0" on="0"/>
        <pt x="818" y="3" on="0"/>
        <pt x="808" y="13" on="1"/>
        <pt x="255" y="575" on="1"/>
        <pt x="255" y="82" on="1"/>
        <pt x="255" y="68" on="0"/>
        <pt x="261" y="63" on="0"/>
        <pt x="278" y="61" on="1"/>
        <pt x="287" y="60" on="0"/>
        <pt x="310" y="60" on="0"/>
        <pt x="319" y="60" on="1"/>
        <pt x="361" y="60" on="1"/>
        <pt x="361" y="0" on="1"/>
        <pt x="358" y="0" on="0"/>
        <pt x="327" y="1" on="0"/>
        <pt x="284" y="3" on="0"/>
        <pt x="236" y="4" on="0"/>
        <pt x="216" y="4" on="1"/>
        <pt x="196" y="4" on="0"/>
        <pt x="148" y="3" on="0"/>
        <pt x="105" y="1" on="0"/>
        <pt x="74" y="0" on="0"/>
        <pt x="71" y="0" on="1"/>
        <pt x="71" y="60" on="1"/>
        <pt x="156" y="61" on="1"/>
        <pt x="171" y="63" on="0"/>
        <pt x="177" y="68" on="0"/>
        <pt x="177" y="82" on="1"/>
        <pt x="177" y="626" on="1"/>
        <pt x="71" y="626" on="1"/>
        <pt x="71" y="686" on="1"/>
        <pt x="306" y="686" on="1"/>
        <pt x="321" y="686" on="0"/>
        <pt x="332" y="683" on="0"/>
        <pt x="342" y="673" on="1"/>
      </contour>
    </TTGlyph>
    <TTGlyph name="O" xMin="84" yMin="-14" xMax="946" yMax="700">
      <contour>
        <pt x="946" y="338" on="1"/>
        <pt x="946" y="270" on="0"/>
        <pt x="895" y="143" on="0"/>
        <pt x="788" y="45" on="0"/>
        <pt x="626" y="-14" on="0"/>
        <pt x="515" y="-14" on="1"/>
        <pt x="403" y="-14" on="0"/>
        <pt x="241" y="45" on="0"/>
        <pt x="135" y="143" on="0"/>
        <pt x="84" y="270" on="0"/>
        <pt x="84" y="338" on="1"/>
        <pt x="84" y="409" on="0"/>
        <pt x="136" y="540" on="0"/>
        <pt x="243" y="640" on="0"/>
        <pt x="405" y="700" on="0"/>
        <pt x="515" y="700" on="1"/>
        <pt x="626" y="700" on="0"/>
        <pt x="788" y="640" on="0"/>
        <pt x="894" y="540" on="0"/>
        <pt x="946" y="409" on="0"/>
      </contour>
      <contour>
        <pt x="515" y="45" on="1"/>
        <pt x="541" y="45" on="0"/>
        <pt x="595" y="53" on="0"/>
        <pt x="649" y="73" on="0"/>
        <pt x="698" y="107" on="0"/>
        <pt x="719" y="132" on="1"/>
        <pt x="739" y="157" on="0"/>
        <pt x="763" y="214" on="0"/>
        <pt x="775" y="273" on="0"/>
        <pt x="779" y="331" on="0"/>
        <pt x="779" y="355" on="1"/>
        <pt x="779" y="372" on="0"/>
        <pt x="776" y="425" on="0"/>
        <pt x="763" y="485" on="0"/>
        <pt x="736" y="546" on="0"/>
        <pt x="712" y="571" on="1"/>
        <pt x="670" y="613" on="0"/>
        <pt x="569" y="644" on="0"/>
        <pt x="515" y="644" on="1"/>
        <pt x="494" y="644" on="0"/>
        <pt x="444" y="639" on="0"/>
        <pt x="391" y="622" on="0"/>
        <pt x="339" y="592" on="0"/>
        <pt x="315" y="568" on="1"/>
        <pt x="291" y="543" on="0"/>
        <pt x="265" y="479" on="0"/>
        <pt x="253" y="418" on="0"/>
        <pt x="251" y="367" on="0"/>
        <pt x="251" y="355" on="1"/>
        <pt x="251" y="289" on="0"/>
        <pt x="279" y="175" on="0"/>
        <pt x="342" y="92" on="0"/>
        <pt x="443" y="45" on="0"/>
      </contour>
    </TTGlyph>
    <TTGlyph name="OE" xMin="102" yMin="-14" xMax="1338" yMax="700">
      <contour>
        <pt x="1284" y="0" on="1"/>
        <pt x="763" y="0" on="1"/>
        <pt x="734" y="0" on="0"/>
        <pt x="679" y="-5" on="0"/>
        <pt x="650" y="-8" on="1"/>
        <pt x="647" y="-8" on="0"/>
        <pt x="628" y="-10" on="0"/>
        <pt x="599" y="-12" on="0"/>
        <pt x="566" y="-14" on="0"/>
        <pt x="549" y="-14" on="1"/>
        <pt x="435" y="-14" on="0"/>
        <pt x="267" y="44" on="0"/>
        <pt x="156" y="141" on="0"/>
        <pt x="102" y="269" on="0"/>
        <pt x="102" y="339" on="1"/>
        <pt x="102" y="409" on="0"/>
        <pt x="156" y="539" on="0"/>
        <pt x="266" y="640" on="0"/>
        <pt x="434" y="700" on="0"/>
        <pt x="549" y="700" on="1"/>
        <pt x="573" y="700" on="0"/>
        <pt x="633" y="696" on="0"/>
        <pt x="660" y="693" on="1"/>
        <pt x="686" y="690" on="0"/>
        <pt x="737" y="686" on="0"/>
        <pt x="763" y="686" on="1"/>
        <pt x="1264" y="686" on="1"/>
        <pt x="1300" y="459" on="1"/>
        <pt x="1229" y="459" on="1"/>
        <pt x="1221" y="510" on="0"/>
        <pt x="1188" y="575" on="0"/>
        <pt x="1136" y="612" on="0"/>
        <pt x="1063" y="626" on="0"/>
        <pt x="1015" y="626" on="1"/>
        <pt x="838" y="626" on="1"/>
        <pt x="838" y="386" on="1"/>
        <pt x="950" y="386" on="1"/>
        <pt x="978" y="386" on="0"/>
        <pt x="1027" y="391" on="0"/>
        <pt x="1063" y="412" on="0"/>
        <pt x="1084" y="452" on="0"/>
        <pt x="1085" y="486" on="1"/>
        <pt x="1156" y="486" on="1"/>
        <pt x="1156" y="226" on="1"/>
        <pt x="1085" y="226" on="1"/>
        <pt x="1084" y="261" on="0"/>
        <pt x="1063" y="300" on="0"/>
        <pt x="1027" y="321" on="0"/>
        <pt x="979" y="326" on="0"/>
        <pt x="950" y="326" on="1"/>
        <pt x="838" y="326" on="1"/>
        <pt x="838" y="60" on="1"/>
        <pt x="1027" y="60" on="1"/>
        <pt x="1083" y="60" on="0"/>
        <pt x="1164" y="79" on="0"/>
        <pt x="1220" y="124" on="0"/>
        <pt x="1255" y="198" on="0"/>
        <pt x="1267" y="254" on="1"/>
        <pt x="1338" y="254" on="1"/>
      </contour>
      <contour>
        <pt x="701" y="485" on="1"/>
        <pt x="701" y="540" on="0"/>
        <pt x="684" y="605" on="0"/>
        <pt x="649" y="639" on="0"/>
        <pt x="596" y="649" on="0"/>
        <pt x="559" y="649" on="1"/>
        <pt x="480" y="649" on="0"/>
        <pt x="367" y="600" on="0"/>
        <pt x="295" y="518" on="0"/>
        <pt x="262" y="412" on="0"/>
        <pt x="262" y="355" on="1"/>
        <pt x="262" y="294" on="0"/>
        <pt x="295" y="179" on="0"/>
        <pt x="367" y="91" on="0"/>
        <pt x="480" y="37" on="0"/>
        <pt x="559" y="37" on="1"/>
        <pt x="596" y="37" on="0"/>
        <pt x="649" y="47" on="0"/>
        <pt x="684" y="81" on="0"/>
        <pt x="701" y="146" on="0"/>
        <pt x="701" y="201" on="1"/>
      </contour>
    </TTGlyph>
    <TTGlyph name="Oslash" xMin="84" yMin="-67" xMax="983" yMax="753">
      <contour>
        <pt x="810" y="635" on="1"/>
        <pt x="858" y="608" on="0"/>
        <pt x="925" y="537" on="0"/>
        <pt x="965" y="458" on="0"/>
        <pt x="983" y="376" on="0"/>
        <pt x="983" y="339" on="1"/>
        <pt x="983" y="272" on="0"/>
        <pt x="931" y="144" on="0"/>
        <pt x="821" y="46" on="0"/>
        <pt x="651" y="-14" on="0"/>
        <pt x="533" y="-14" on="1"/>
        <pt x="495" y="-14" on="0"/>
        <pt x="375" y="-2" on="0"/>
        <pt x="307" y="24" on="1"/>
        <pt x="233" y="-67" on="1"/>
        <pt x="190" y="-31" on="1"/>
        <pt x="255" y="49" on="1"/>
        <pt x="170" y="99" on="0"/>
        <pt x="84" y="248" on="0"/>
        <pt x="84" y="339" on="1"/>
        <pt x="84" y="405" on="0"/>
        <pt x="135" y="535" on="0"/>
        <pt x="243" y="637" on="0"/>
        <pt x="414" y="700" on="0"/>
        <pt x="534" y="700" on="1"/>
        <pt x="584" y="700" on="0"/>
        <pt x="698" y="684" on="0"/>
        <pt x="759" y="661" on="1"/>
        <pt x="834" y="753" on="1"/>
        <pt x="877" y="717" on="1"/>
      </contour>
      <contour>
        <pt x="714" y="608" on="1"/>
        <pt x="687" y="623" on="0"/>
        <pt x="630" y="640" on="0"/>
        <pt x="581" y="648" on="0"/>
        <pt x="542" y="649" on="0"/>
        <pt x="533" y="649" on="1"/>
        <pt x="459" y="649" on="0"/>
        <pt x="358" y="615" on="0"/>
        <pt x="292" y="561" on="0"/>
        <pt x="256" y="493" on="0"/>
        <pt x="240" y="424" on="0"/>
        <pt x="237" y="361" on="0"/>
        <pt x="237" y="339" on="1"/>
        <pt x="237" y="320" on="0"/>
        <pt x="240" y="262" on="0"/>
        <pt x="253" y="198" on="0"/>
        <pt x="282" y="136" on="0"/>
        <pt x="307" y="112" on="1"/>
      </contour>
      <contour>
        <pt x="352" y="77" on="1"/>
        <pt x="381" y="60" on="0"/>
        <pt x="472" y="37" on="0"/>
        <pt x="534" y="37" on="1"/>
        <pt x="608" y="37" on="0"/>
        <pt x="709" y="69" on="0"/>
        <pt x="774" y="121" on="0"/>
        <pt x="810" y="186" on="0"/>
        <pt x="827" y="253" on="0"/>
        <pt x="830" y="316" on="0"/>
        <pt x="830" y="339" on="1"/>
        <pt x="830" y="354" on="0"/>
        <pt x="828" y="413" on="0"/>
        <pt x="814" y="482" on="0"/>
        <pt x="785" y="549" on="0"/>
        <pt x="758" y="573" on="1"/>
      </contour>
    </TTGlyph>
    <TTGlyph name="P" xMin="73" yMin="0" xMax="850" yMax="686">
      <contour>
        <pt x="332" y="60" on="1"/>
        <pt x="438" y="60" on="1"/>
        <pt x="438" y="0" on="1"/>
        <pt x="422" y="1" on="0"/>
        <pt x="362" y="3" on="0"/>
        <pt x="302" y="4" on="0"/>
        <pt x="257" y="4" on="0"/>
        <pt x="255" y="4" on="1"/>
        <pt x="250" y="4" on="0"/>
        <pt x="203" y="3" on="0"/>
        <pt x="145" y="2" on="0"/>
        <pt x="88" y="1" on="0"/>
        <pt x="73" y="0" on="1"/>
        <pt x="73" y="60" on="1"/>
        <pt x="179" y="60" on="1"/>
        <pt x="179" y="626" on="1"/>
        <pt x="73" y="626" on="1"/>
        <pt x="73" y="686" on="1"/>
        <pt x="542" y="686" on="1"/>
        <pt x="616" y="686" on="0"/>
        <pt x="730" y="654" on="0"/>
        <pt x="809" y="599" on="0"/>
        <pt x="850" y="526" on="0"/>
        <pt x="850" y="485" on="1"/>
        <pt x="850" y="439" on="0"/>
        <pt x="801" y="365" on="0"/>
        <pt x="720" y="315" on="0"/>
        <pt x="613" y="288" on="0"/>
        <pt x="554" y="288" on="1"/>
        <pt x="332" y="288" on="1"/>
      </contour>
      <contour>
        <pt x="325" y="626" on="1"/>
        <pt x="325" y="343" on="1"/>
        <pt x="510" y="343" on="1"/>
        <pt x="574" y="343" on="0"/>
        <pt x="644" y="370" on="0"/>
        <pt x="677" y="412" on="0"/>
        <pt x="683" y="462" on="0"/>
        <pt x="683" y="485" on="1"/>
        <pt x="683" y="509" on="0"/>
        <pt x="677" y="559" on="0"/>
        <pt x="644" y="600" on="0"/>
        <pt x="574" y="626" on="0"/>
        <pt x="511" y="626" on="1"/>
      </contour>
    </TTGlyph>
    <TTGlyph name="Phi" xMin="84" yMin="0" xMax="908" yMax="686">
      <contour>
        <pt x="558" y="626" on="1"/>
        <pt x="558" y="522" on="1"/>
        <pt x="644" y="518" on="0"/>
        <pt x="775" y="487" on="0"/>
        <pt x="863" y="439" on="0"/>
        <pt x="908" y="377" on="0"/>
        <pt x="908" y="343" on="1"/>
        <pt x="908" y="309" on="0"/>
        <pt x="863" y="247" on="0"/>
        <pt x="775" y="199" on="0"/>
        <pt x="644" y="168" on="0"/>
        <pt x="558" y="164" on="1"/>
        <pt x="558" y="60" on="1"/>
        <pt x="691" y="60" on="1"/>
        <pt x="691" y="0" on="1"/>
        <pt x="673" y="2" on="0"/>
        <pt x="620" y="3" on="0"/>
        <pt x="563" y="4" on="0"/>
        <pt x="509" y="4" on="0"/>
        <pt x="489" y="4" on="1"/>
        <pt x="469" y="4" on="0"/>
        <pt x="415" y="4" on="0"/>
        <pt x="358" y="3" on="0"/>
        <pt x="305" y="2" on="0"/>
        <pt x="287" y="0" on="1"/>
        <pt x="287" y="60" on="1"/>
        <pt x="420" y="60" on="1"/>
        <pt x="420" y="165" on="1"/>
        <pt x="347" y="169" on="0"/>
        <pt x="224" y="197" on="0"/>
        <pt x="134" y="243" on="0"/>
        <pt x="84" y="306" on="0"/>
        <pt x="84" y="343" on="1"/>
        <pt x="84" y="381" on="0"/>
        <pt x="134" y="443" on="0"/>
        <pt x="224" y="489" on="0"/>
        <pt x="347" y="517" on="0"/>
        <pt x="420" y="521" on="1"/>
        <pt x="420" y="626" on="1"/>
        <pt x="287" y="626" on="1"/>
        <pt x="287" y="686" on="1"/>
        <pt x="305" y="685" on="0"/>
        <pt x="358" y="683" on="0"/>
        <pt x="415" y="682" on="0"/>
        <pt x="469" y="682" on="0"/>
        <pt x="489" y="682" on="1"/>
        <pt x="509" y="682" on="0"/>
        <pt x="563" y="682" on="0"/>
        <pt x="620" y="683" on="0"/>
        <pt x="673" y="685" on="0"/>
        <pt x="691" y="686" on="1"/>
        <pt x="691" y="626" on="1"/>
      </contour>
      <contour>
        <pt x="420" y="470" on="1"/>
        <pt x="384" y="468" on="0"/>
        <pt x="320" y="454" on="0"/>
        <pt x="272" y="425" on="0"/>
        <pt x="244" y="378" on="0"/>
        <pt x="244" y="343" on="1"/>
        <pt x="244" y="309" on="0"/>
        <pt x="271" y="262" on="0"/>
        <pt x="319" y="232" on="0"/>
        <pt x="383" y="218" on="0"/>
        <pt x="420" y="216" on="1"/>
      </contour>
      <contour>
        <pt x="558" y="215" on="1"/>
        <pt x="599" y="217" on="0"/>
        <pt x="668" y="230" on="0"/>
        <pt x="719" y="259" on="0"/>
        <pt x="748" y="307" on="0"/>
        <pt x="748" y="343" on="1"/>
        <pt x="748" y="379" on="0"/>
        <pt x="719" y="426" on="0"/>
        <pt x="668" y="456" on="0"/>
        <pt x="599" y="470" on="0"/>
        <pt x="558" y="471" on="1"/>
      </contour>
    </TTGlyph>
    <TTGlyph name="Pi" xMin="71" yMin="0" xMax="992" yMax="679">
      <contour>
        <pt x="886" y="60" on="1"/>
        <pt x="992" y="60" on="1"/>
        <pt x="992" y="0" on="1"/>
        <pt x="976" y="1" on="0"/>
        <pt x="916" y="3" on="0"/>
        <pt x="856" y="4" on="0"/>
        <pt x="811" y="4" on="0"/>
        <pt x="809" y="4" on="1"/>
        <pt x="804" y="4" on="0"/>
        <pt x="757" y="3" on="0"/>
        <pt x="699" y="2" on="0"/>
        <pt x="642" y="1" on="0"/>
        <pt x="627" y="0" on="1"/>
        <pt x="627" y="60" on="1"/>
        <pt x="733" y="60" on="1"/>
        <pt x="733" y="619" on="1"/>
        <pt x="330" y="619" on="1"/>
        <pt x="330" y="60" on="1"/>
        <pt x="436" y="60" on="1"/>
        <pt x="436" y="0" on="1"/>
        <pt x="420" y="1" on="0"/>
        <pt x="360" y="3" on="0"/>
        <pt x="300" y="4" on="0"/>
        <pt x="255" y="4" on="0"/>
        <pt x="253" y="4" on="1"/>
        <pt x="248" y="4" on="0"/>
        <pt x="201" y="3" on="0"/>
        <pt x="143" y="2" on="0"/>
        <pt x="86" y="1" on="0"/>
        <pt x="71" y="0" on="1"/>
        <pt x="71" y="60" on="1"/>
        <pt x="177" y="60" on="1"/>
        <pt x="177" y="619" on="1"/>
        <pt x="71" y="619" on="1"/>
        <pt x="71" y="679" on="1"/>
        <pt x="992" y="679" on="1"/>
        <pt x="992" y="619" on="1"/>
        <pt x="886" y="619" on="1"/>
      </contour>
    </TTGlyph>
    <TTGlyph name="Psi" xMin="84" yMin="0" xMax="983" yMax="686">
      <contour>
        <pt x="595" y="219" on="1"/>
        <pt x="653" y="227" on="0"/>
        <pt x="710" y="265" on="0"/>
        <pt x="721" y="278" on="1"/>
        <pt x="736" y="295" on="0"/>
        <pt x="753" y="334" on="0"/>
        <pt x="762" y="368" on="0"/>
        <pt x="764" y="394" on="0"/>
        <pt x="764" y="398" on="1"/>
        <pt x="766" y="464" on="0"/>
        <pt x="818" y="542" on="0"/>
        <pt x="876" y="542" on="1"/>
        <pt x="947" y="542" on="1"/>
        <pt x="960" y="542" on="0"/>
        <pt x="983" y="536" on="0"/>
        <pt x="983" y="516" on="1"/>
        <pt x="983" y="499" on="0"/>
        <pt x="964" y="492" on="0"/>
        <pt x="956" y="491" on="1"/>
        <pt x="937" y="489" on="0"/>
        <pt x="915" y="466" on="0"/>
        <pt x="905" y="437" on="0"/>
        <pt x="902" y="408" on="0"/>
        <pt x="902" y="399" on="1"/>
        <pt x="902" y="389" on="0"/>
        <pt x="895" y="348" on="0"/>
        <pt x="874" y="297" on="0"/>
        <pt x="835" y="244" on="0"/>
        <pt x="803" y="223" on="1"/>
        <pt x="755" y="193" on="0"/>
        <pt x="651" y="169" on="0"/>
        <pt x="595" y="165" on="1"/>
        <pt x="595" y="60" on="1"/>
        <pt x="728" y="60" on="1"/>
        <pt x="728" y="0" on="1"/>
        <pt x="710" y="2" on="0"/>
        <pt x="657" y="3" on="0"/>
        <pt x="600" y="4" on="0"/>
        <pt x="546" y="4" on="0"/>
        <pt x="526" y="4" on="1"/>
        <pt x="506" y="4" on="0"/>
        <pt x="452" y="4" on="0"/>
        <pt x="395" y="3" on="0"/>
        <pt x="342" y="2" on="0"/>
        <pt x="324" y="0" on="1"/>
        <pt x="324" y="60" on="1"/>
        <pt x="457" y="60" on="1"/>
        <pt x="457" y="165" on="1"/>
        <pt x="441" y="166" on="0"/>
        <pt x="392" y="172" on="0"/>
        <pt x="337" y="186" on="0"/>
        <pt x="281" y="208" on="0"/>
        <pt x="256" y="226" on="1"/>
        <pt x="223" y="250" on="0"/>
        <pt x="186" y="307" on="0"/>
        <pt x="169" y="358" on="0"/>
        <pt x="165" y="395" on="0"/>
        <pt x="165" y="398" on="1"/>
        <pt x="165" y="408" on="0"/>
        <pt x="162" y="438" on="0"/>
        <pt x="151" y="467" on="0"/>
        <pt x="129" y="489" on="0"/>
        <pt x="108" y="491" on="1"/>
        <pt x="104" y="492" on="0"/>
        <pt x="84" y="499" on="0"/>
        <pt x="84" y="516" on="1"/>
        <pt x="84" y="536" on="0"/>
        <pt x="108" y="542" on="0"/>
        <pt x="120" y="542" on="1"/>
        <pt x="191" y="542" on="1"/>
        <pt x="250" y="542" on="0"/>
        <pt x="302" y="461" on="0"/>
        <pt x="303" y="400" on="1"/>
        <pt x="305" y="328" on="0"/>
        <pt x="379" y="232" on="0"/>
        <pt x="457" y="219" on="1"/>
        <pt x="457" y="626" on="1"/>
        <pt x="324" y="626" on="1"/>
        <pt x="324" y="686" on="1"/>
        <pt x="342" y="685" on="0"/>
        <pt x="395" y="683" on="0"/>
        <pt x="452" y="682" on="0"/>
        <pt x="506" y="682" on="0"/>
        <pt x="526" y="682" on="1"/>
        <pt x="546" y="682" on="0"/>
        <pt x="600" y="682" on="0"/>
        <pt x="657" y="683" on="0"/>
        <pt x="710" y="685" on="0"/>
        <pt x="728" y="686" on="1"/>
        <pt x="728" y="626" on="1"/>
        <pt x="595" y="626" on="1"/>
      </contour>
    </TTGlyph>
    <TTGlyph name="Q" xMin="84" yMin="-194" xMax="954" yMax="700">
      <contour>
        <pt x="714" y="18" on="1"/>
        <pt x="732" y="1" on="0"/>
        <pt x="758" y="-17" on="0"/>
        <pt x="781" y="-26" on="0"/>
        <pt x="804" y="-27" on="0"/>
        <pt x="819" y="-27" on="1"/>
        <pt x="851" y="-27" on="0"/>
        <pt x="886" y="-22" on="0"/>
        <pt x="903" y="-14" on="0"/>
        <pt x="907" y="-4" on="0"/>
        <pt x="908" y="1" on="1"/>
        <pt x="910" y="17" on="0"/>
        <pt x="929" y="23" on="0"/>
        <pt x="931" y="23" on="1"/>
        <pt x="940" y="23" on="0"/>
        <pt x="949" y="16" on="0"/>
        <pt x="953" y="6" on="0"/>
        <pt x="954" y="-4" on="0"/>
        <pt x="954" y="-6" on="1"/>
        <pt x="954" y="-36" on="0"/>
        <pt x="933" y="-102" on="0"/>
        <pt x="893" y="-158" on="0"/>
        <pt x="832" y="-194" on="0"/>
        <pt x="792" y="-194" on="1"/>
        <pt x="755" y="-194" on="0"/>
        <pt x="705" y="-165" on="0"/>
        <pt x="668" y="-114" on="0"/>
        <pt x="640" y="-46" on="0"/>
        <pt x="625" y="-6" on="1"/>
        <pt x="605" y="-9" on="0"/>
        <pt x="567" y="-12" on="0"/>
        <pt x="536" y="-14" on="0"/>
        <pt x="516" y="-14" on="0"/>
        <pt x="515" y="-14" on="1"/>
        <pt x="403" y="-14" on="0"/>
        <pt x="241" y="45" on="0"/>
        <pt x="135" y="143" on="0"/>
        <pt x="84" y="270" on="0"/>
        <pt x="84" y="338" on="1"/>
        <pt x="84" y="409" on="0"/>
        <pt x="136" y="540" on="0"/>
        <pt x="243" y="640" on="0"/>
        <pt x="405" y="700" on="0"/>
        <pt x="515" y="700" on="1"/>
        <pt x="626" y="700" on="0"/>
        <pt x="788" y="640" on="0"/>
        <pt x="894" y="540" on="0"/>
        <pt x="946" y="409" on="0"/>
        <pt x="946" y="338" on="1"/>
        <pt x="946" y="286" on="0"/>
        <pt x="917" y="189" on="0"/>
        <pt x="859" y="105" on="0"/>
        <pt x="772" y="38" on="0"/>
      </contour>
      <contour>
        <pt x="397" y="63" on="1"/>
        <pt x="396" y="66" on="0"/>
        <pt x="396" y="76" on="1"/>
        <pt x="396" y="96" on="0"/>
        <pt x="415" y="129" on="0"/>
        <pt x="448" y="151" on="0"/>
        <pt x="490" y="163" on="0"/>
        <pt x="514" y="163" on="1"/>
        <pt x="549" y="163" on="0"/>
        <pt x="620" y="127" on="0"/>
        <pt x="662" y="76" on="1"/>
        <pt x="731" y="114" on="0"/>
        <pt x="786" y="245" on="0"/>
        <pt x="786" y="339" on="1"/>
        <pt x="786" y="406" on="0"/>
        <pt x="756" y="518" on="0"/>
        <pt x="691" y="599" on="0"/>
        <pt x="588" y="644" on="0"/>
        <pt x="515" y="644" on="1"/>
        <pt x="436" y="644" on="0"/>
        <pt x="329" y="589" on="0"/>
        <pt x="301" y="552" on="1"/>
        <pt x="269" y="508" on="0"/>
        <pt x="244" y="403" on="0"/>
        <pt x="244" y="339" on="1"/>
        <pt x="244" y="316" on="0"/>
        <pt x="250" y="239" on="0"/>
        <pt x="279" y="157" on="0"/>
        <pt x="341" y="83" on="0"/>
      </contour>
      <contour>
        <pt x="599" y="52" on="1"/>
        <pt x="579" y="90" on="0"/>
        <pt x="534" y="112" on="0"/>
        <pt x="514" y="112" on="1"/>
        <pt x="504" y="112" on="0"/>
        <pt x="480" y="108" on="0"/>
        <pt x="460" y="99" on="0"/>
        <pt x="447" y="86" on="0"/>
        <pt x="447" y="76" on="1"/>
        <pt x="447" y="63" on="0"/>
        <pt x="464" y="49" on="0"/>
        <pt x="487" y="43" on="0"/>
        <pt x="509" y="42" on="0"/>
        <pt x="515" y="42" on="1"/>
        <pt x="526" y="42" on="0"/>
        <pt x="569" y="44" on="0"/>
      </contour>
    </TTGlyph>
    <TTGlyph name="R" xMin="73" yMin="-14" xMax="1004" yMax="686">
      <contour>
        <pt x="672" y="340" on="1"/>
        <pt x="706" y="325" on="0"/>
        <pt x="745" y="290" on="0"/>
        <pt x="767" y="250" on="0"/>
        <pt x="777" y="207" on="0"/>
        <pt x="780" y="184" on="1"/>
        <pt x="785" y="153" on="0"/>
        <pt x="796" y="99" on="0"/>
        <pt x="815" y="60" on="0"/>
        <pt x="847" y="37" on="0"/>
        <pt x="872" y="37" on="1"/>
        <pt x="877" y="37" on="0"/>
        <pt x="896" y="41" on="0"/>
        <pt x="916" y="54" on="0"/>
        <pt x="931" y="81" on="0"/>
        <pt x="933" y="105" on="1"/>
        <pt x="935" y="121" on="0"/>
        <pt x="957" y="126" on="0"/>
        <pt x="968" y="126" on="1"/>
        <pt x="981" y="126" on="0"/>
        <pt x="1004" y="120" on="0"/>
        <pt x="1004" y="100" on="1"/>
        <pt x="1004" y="91" on="0"/>
        <pt x="994" y="53" on="0"/>
        <pt x="964" y="15" on="0"/>
        <pt x="908" y="-14" on="0"/>
        <pt x="861" y="-14" on="1"/>
        <pt x="798" y="-14" on="0"/>
        <pt x="712" y="3" on="0"/>
        <pt x="686" y="17" on="1"/>
        <pt x="662" y="31" on="0"/>
        <pt x="636" y="62" on="0"/>
        <pt x="624" y="100" on="0"/>
        <pt x="622" y="147" on="0"/>
        <pt x="622" y="175" on="1"/>
        <pt x="622" y="198" on="0"/>
        <pt x="621" y="231" on="0"/>
        <pt x="613" y="257" on="0"/>
        <pt x="596" y="278" on="0"/>
        <pt x="580" y="290" on="1"/>
        <pt x="560" y="304" on="0"/>
        <pt x="506" y="318" on="0"/>
        <pt x="475" y="318" on="1"/>
        <pt x="325" y="318" on="1"/>
        <pt x="325" y="60" on="1"/>
        <pt x="431" y="60" on="1"/>
        <pt x="431" y="0" on="1"/>
        <pt x="388" y="2" on="0"/>
        <pt x="296" y="4" on="0"/>
        <pt x="252" y="4" on="1"/>
        <pt x="207" y="4" on="0"/>
        <pt x="118" y="2" on="0"/>
        <pt x="73" y="0" on="1"/>
        <pt x="73" y="60" on="1"/>
        <pt x="179" y="60" on="1"/>
        <pt x="179" y="626" on="1"/>
        <pt x="73" y="626" on="1"/>
        <pt x="73" y="686" on="1"/>
        <pt x="496" y="686" on="1"/>
        <pt x="573" y="686" on="0"/>
        <pt x="699" y="658" on="0"/>
        <pt x="789" y="608" on="0"/>
        <pt x="839" y="539" on="0"/>
        <pt x="839" y="498" on="1"/>
        <pt x="839" y="468" on="0"/>
        <pt x="811" y="418" on="0"/>
        <pt x="765" y="378" on="0"/>
        <pt x="705" y="349" on="0"/>
      </contour>
      <contour>
        <pt x="486" y="369" on="1"/>
        <pt x="548" y="369" on="0"/>
        <pt x="622" y="391" on="0"/>
        <pt x="661" y="427" on="0"/>
        <pt x="672" y="473" on="0"/>
        <pt x="672" y="498" on="1"/>
        <pt x="672" y="525" on="0"/>
        <pt x="659" y="572" on="0"/>
        <pt x="619" y="606" on="0"/>
        <pt x="547" y="626" on="0"/>
        <pt x="487" y="626" on="1"/>
        <pt x="325" y="626" on="1"/>
        <pt x="325" y="369" on="1"/>
      </contour>
    </TTGlyph>
    <TTGlyph name="S" xMin="84" yMin="-14" xMax="683" yMax="700">
      <contour>
        <pt x="481" y="412" on="1"/>
        <pt x="517" y="405" on="0"/>
        <pt x="590" y="371" on="0"/>
        <pt x="647" y="318" on="0"/>
        <pt x="683" y="246" on="0"/>
        <pt x="683" y="201" on="1"/>
        <pt x="683" y="168" on="0"/>
        <pt x="658" y="93" on="0"/>
        <pt x="597" y="28" on="0"/>
        <pt x="494" y="-14" on="0"/>
        <pt x="416" y="-14" on="1"/>
        <pt x="361" y="-14" on="0"/>
        <pt x="280" y="-3" on="0"/>
        <pt x="224" y="13" on="0"/>
        <pt x="189" y="30" on="0"/>
        <pt x="179" y="36" on="1"/>
        <pt x="171" y="29" on="0"/>
        <pt x="157" y="16" on="0"/>
        <pt x="149" y="8" on="1"/>
        <pt x="141" y="0" on="0"/>
        <pt x="131" y="-9" on="0"/>
        <pt x="123" y="-13" on="0"/>
        <pt x="116" y="-14" on="0"/>
        <pt x="111" y="-14" on="1"/>
        <pt x="91" y="-14" on="0"/>
        <pt x="84" y="6" on="0"/>
        <pt x="84" y="20" on="1"/>
        <pt x="84" y="193" on="1"/>
        <pt x="84" y="217" on="0"/>
        <pt x="97" y="228" on="0"/>
        <pt x="120" y="228" on="1"/>
        <pt x="145" y="228" on="0"/>
        <pt x="154" y="216" on="0"/>
        <pt x="155" y="199" on="1"/>
        <pt x="157" y="155" on="0"/>
        <pt x="199" y="96" on="0"/>
        <pt x="269" y="61" on="0"/>
        <pt x="362" y="46" on="0"/>
        <pt x="416" y="46" on="1"/>
        <pt x="473" y="46" on="0"/>
        <pt x="538" y="73" on="0"/>
        <pt x="572" y="111" on="0"/>
        <pt x="581" y="149" on="0"/>
        <pt x="581" y="159" on="1"/>
        <pt x="581" y="183" on="0"/>
        <pt x="560" y="219" on="0"/>
        <pt x="528" y="246" on="0"/>
        <pt x="489" y="263" on="0"/>
        <pt x="471" y="267" on="1"/>
        <pt x="468" y="268" on="0"/>
        <pt x="433" y="275" on="0"/>
        <pt x="391" y="282" on="0"/>
        <pt x="352" y="290" on="0"/>
        <pt x="345" y="291" on="1"/>
        <pt x="314" y="297" on="0"/>
        <pt x="258" y="308" on="0"/>
        <pt x="208" y="325" on="0"/>
        <pt x="165" y="349" on="0"/>
        <pt x="146" y="367" on="1"/>
        <pt x="139" y="374" on="0"/>
        <pt x="118" y="396" on="0"/>
        <pt x="98" y="428" on="0"/>
        <pt x="84" y="471" on="0"/>
        <pt x="84" y="498" on="1"/>
        <pt x="84" y="533" on="0"/>
        <pt x="112" y="605" on="0"/>
        <pt x="175" y="663" on="0"/>
        <pt x="275" y="700" on="0"/>
        <pt x="347" y="700" on="1"/>
        <pt x="389" y="700" on="0"/>
        <pt x="491" y="682" on="0"/>
        <pt x="539" y="653" on="1"/>
        <pt x="544" y="649" on="0"/>
        <pt x="547" y="648" on="0"/>
        <pt x="548" y="648" on="1"/>
        <pt x="550" y="648" on="0"/>
        <pt x="556" y="654" on="0"/>
        <pt x="558" y="656" on="1"/>
        <pt x="592" y="689" on="1"/>
        <pt x="600" y="697" on="0"/>
        <pt x="612" y="700" on="0"/>
        <pt x="619" y="700" on="1"/>
        <pt x="639" y="700" on="0"/>
        <pt x="646" y="680" on="0"/>
        <pt x="646" y="666" on="1"/>
        <pt x="646" y="492" on="1"/>
        <pt x="646" y="468" on="0"/>
        <pt x="632" y="458" on="0"/>
        <pt x="610" y="458" on="1"/>
        <pt x="591" y="458" on="0"/>
        <pt x="577" y="465" on="0"/>
        <pt x="574" y="483" on="1"/>
        <pt x="566" y="527" on="0"/>
        <pt x="526" y="588" on="0"/>
        <pt x="467" y="627" on="0"/>
        <pt x="391" y="645" on="0"/>
        <pt x="347" y="645" on="1"/>
        <pt x="300" y="645" on="0"/>
        <pt x="238" y="625" on="0"/>
        <pt x="201" y="595" on="0"/>
        <pt x="186" y="559" on="0"/>
        <pt x="186" y="543" on="1"/>
        <pt x="186" y="506" on="0"/>
        <pt x="251" y="454" on="0"/>
        <pt x="302" y="445" on="1"/>
      </contour>
    </TTGlyph>
    <TTGlyph name="Sigma" xMin="84" yMin="0" xMax="908" yMax="686">
      <contour>
        <pt x="269" y="78" on="1"/>
        <pt x="554" y="78" on="1"/>
        <pt x="558" y="78" on="0"/>
        <pt x="602" y="79" on="0"/>
        <pt x="660" y="83" on="0"/>
        <pt x="721" y="94" on="0"/>
        <pt x="740" y="103" on="1"/>
        <pt x="755" y="110" on="0"/>
        <pt x="785" y="134" on="0"/>
        <pt x="812" y="169" on="0"/>
        <pt x="833" y="216" on="0"/>
        <pt x="837" y="245" on="1"/>
        <pt x="908" y="245" on="1"/>
        <pt x="872" y="0" on="1"/>
        <pt x="120" y="0" on="1"/>
        <pt x="109" y="0" on="0"/>
        <pt x="84" y="6" on="0"/>
        <pt x="84" y="23" on="1"/>
        <pt x="84" y="31" on="0"/>
        <pt x="92" y="40" on="0"/>
        <pt x="98" y="45" on="1"/>
        <pt x="413" y="303" on="1"/>
        <pt x="97" y="626" on="1"/>
        <pt x="87" y="636" on="0"/>
        <pt x="84" y="645" on="0"/>
        <pt x="84" y="656" on="1"/>
        <pt x="84" y="679" on="0"/>
        <pt x="105" y="686" on="0"/>
        <pt x="120" y="686" on="1"/>
        <pt x="872" y="686" on="1"/>
        <pt x="908" y="459" on="1"/>
        <pt x="837" y="459" on="1"/>
        <pt x="827" y="519" on="0"/>
        <pt x="770" y="586" on="0"/>
        <pt x="692" y="619" on="0"/>
        <pt x="597" y="626" on="0"/>
        <pt x="547" y="626" on="1"/>
        <pt x="311" y="626" on="1"/>
        <pt x="568" y="365" on="1"/>
        <pt x="576" y="357" on="0"/>
        <pt x="579" y="345" on="0"/>
        <pt x="579" y="343" on="1"/>
        <pt x="579" y="335" on="0"/>
        <pt x="572" y="327" on="0"/>
        <pt x="563" y="319" on="1"/>
      </contour>
    </TTGlyph>
    <TTGlyph name="T" xMin="58" yMin="0" xMax="897" yMax="671">
      <contour>
        <pt x="897" y="444" on="1"/>
        <pt x="826" y="444" on="1"/>
        <pt x="822" y="485" on="0"/>
        <pt x="805" y="548" on="0"/>
        <pt x="769" y="590" on="0"/>
        <pt x="707" y="611" on="0"/>
        <pt x="657" y="611" on="1"/>
        <pt x="554" y="611" on="1"/>
        <pt x="554" y="60" on="1"/>
        <pt x="705" y="60" on="1"/>
        <pt x="705" y="0" on="1"/>
        <pt x="687" y="2" on="0"/>
        <pt x="626" y="3" on="0"/>
        <pt x="560" y="4" on="0"/>
        <pt x="498" y="4" on="0"/>
        <pt x="477" y="4" on="1"/>
        <pt x="456" y="4" on="0"/>
        <pt x="394" y="4" on="0"/>
        <pt x="328" y="3" on="0"/>
        <pt x="268" y="2" on="0"/>
        <pt x="250" y="0" on="1"/>
        <pt x="250" y="60" on="1"/>
        <pt x="401" y="60" on="1"/>
        <pt x="401" y="611" on="1"/>
        <pt x="298" y="611" on="1"/>
        <pt x="248" y="611" on="0"/>
        <pt x="186" y="590" on="0"/>
        <pt x="150" y="548" on="0"/>
        <pt x="133" y="485" on="0"/>
        <pt x="129" y="444" on="1"/>
        <pt x="58" y="444" on="1"/>
        <pt x="83" y="671" on="1"/>
        <pt x="872" y="671" on="1"/>
      </contour>
    </TTGlyph>
    <TTGlyph name="Theta" xMin="84" yMin="-14" xMax="983" yMax="700">
      <contour>
        <pt x="983" y="339" on="1"/>
        <pt x="983" y="272" on="0"/>
        <pt x="931" y="144" on="0"/>
        <pt x="821" y="46" on="0"/>
        <pt x="651" y="-14" on="0"/>
        <pt x="533" y="-14" on="1"/>
        <pt x="417" y="-14" on="0"/>
        <pt x="247" y="45" on="0"/>
        <pt x="137" y="143" on="0"/>
        <pt x="84" y="271" on="0"/>
        <pt x="84" y="339" on="1"/>
        <pt x="84" y="405" on="0"/>
        <pt x="135" y="535" on="0"/>
        <pt x="243" y="637" on="0"/>
        <pt x="414" y="700" on="0"/>
        <pt x="534" y="700" on="1"/>
        <pt x="652" y="700" on="0"/>
        <pt x="822" y="638" on="0"/>
        <pt x="931" y="536" on="0"/>
        <pt x="983" y="407" on="0"/>
      </contour>
      <contour>
        <pt x="534" y="40" on="1"/>
        <pt x="680" y="40" on="0"/>
        <pt x="831" y="195" on="0"/>
        <pt x="831" y="339" on="1"/>
        <pt x="831" y="485" on="0"/>
        <pt x="683" y="649" on="0"/>
        <pt x="533" y="649" on="1"/>
        <pt x="384" y="649" on="0"/>
        <pt x="236" y="484" on="0"/>
        <pt x="236" y="339" on="1"/>
        <pt x="236" y="193" on="0"/>
        <pt x="388" y="40" on="0"/>
      </contour>
      <contour>
        <pt x="755" y="244" on="1"/>
        <pt x="684" y="244" on="1"/>
        <pt x="684" y="278" on="1"/>
        <pt x="383" y="278" on="1"/>
        <pt x="383" y="244" on="1"/>
        <pt x="312" y="244" on="1"/>
        <pt x="312" y="445" on="1"/>
        <pt x="383" y="445" on="1"/>
        <pt x="383" y="411" on="1"/>
        <pt x="684" y="411" on="1"/>
        <pt x="684" y="445" on="1"/>
        <pt x="755" y="445" on="1"/>
      </contour>
    </TTGlyph>
    <TTGlyph name="U" xMin="71" yMin="-14" xMax="974" yMax="686">
      <contour>
        <pt x="868" y="231" on="1"/>
        <pt x="868" y="187" on="0"/>
        <pt x="832" y="99" on="0"/>
        <pt x="754" y="29" on="0"/>
        <pt x="628" y="-14" on="0"/>
        <pt x="538" y="-14" on="1"/>
        <pt x="445" y="-14" on="0"/>
        <pt x="309" y="27" on="0"/>
        <pt x="220" y="95" on="0"/>
        <pt x="177" y="184" on="0"/>
        <pt x="177" y="232" on="1"/>
        <pt x="177" y="626" on="1"/>
        <pt x="71" y="626" on="1"/>
        <pt x="71" y="686" on="1"/>
        <pt x="88" y="685" on="0"/>
        <pt x="147" y="683" on="0"/>
        <pt x="207" y="682" on="0"/>
        <pt x="252" y="682" on="0"/>
        <pt x="254" y="682" on="1"/>
        <pt x="259" y="682" on="0"/>
        <pt x="306" y="683" on="0"/>
        <pt x="364" y="684" on="0"/>
        <pt x="421" y="685" on="0"/>
        <pt x="436" y="686" on="1"/>
        <pt x="436" y="626" on="1"/>
        <pt x="330" y="626" on="1"/>
        <pt x="330" y="229" on="1"/>
        <pt x="330" y="196" on="0"/>
        <pt x="345" y="130" on="0"/>
        <pt x="390" y="78" on="0"/>
        <pt x="473" y="46" on="0"/>
        <pt x="541" y="46" on="1"/>
        <pt x="590" y="46" on="0"/>
        <pt x="679" y="65" on="0"/>
        <pt x="746" y="109" on="0"/>
        <pt x="785" y="181" on="0"/>
        <pt x="785" y="233" on="1"/>
        <pt x="785" y="604" on="1"/>
        <pt x="785" y="618" on="0"/>
        <pt x="779" y="623" on="0"/>
        <pt x="762" y="625" on="1"/>
        <pt x="753" y="626" on="0"/>
        <pt x="730" y="626" on="0"/>
        <pt x="721" y="626" on="1"/>
        <pt x="679" y="626" on="1"/>
        <pt x="679" y="686" on="1"/>
        <pt x="684" y="686" on="0"/>
        <pt x="716" y="684" on="0"/>
        <pt x="758" y="683" on="0"/>
        <pt x="806" y="682" on="0"/>
        <pt x="827" y="682" on="1"/>
        <pt x="848" y="682" on="0"/>
        <pt x="897" y="683" on="0"/>
        <pt x="941" y="685" on="0"/>
        <pt x="972" y="686" on="0"/>
        <pt x="974" y="686" on="1"/>
        <pt x="974" y="626" on="1"/>
        <pt x="889" y="625" on="1"/>
        <pt x="874" y="623" on="0"/>
        <pt x="868" y="618" on="0"/>
        <pt x="868" y="604" on="1"/>
      </contour>
    </TTGlyph>
    <TTGlyph name="Upsilon" xMin="84" yMin="0" xMax="983" yMax="700">
      <contour>
        <pt x="610" y="60" on="1"/>
        <pt x="743" y="60" on="1"/>
        <pt x="743" y="0" on="1"/>
        <pt x="725" y="2" on="0"/>
        <pt x="670" y="3" on="0"/>
        <pt x="610" y="4" on="0"/>
        <pt x="553" y="4" on="0"/>
        <pt x="533" y="4" on="1"/>
        <pt x="513" y="4" on="0"/>
        <pt x="456" y="4" on="0"/>
        <pt x="397" y="3" on="0"/>
        <pt x="342" y="2" on="0"/>
        <pt x="324" y="0" on="1"/>
        <pt x="324" y="60" on="1"/>
        <pt x="457" y="60" on="1"/>
        <pt x="457" y="343" on="1"/>
        <pt x="457" y="371" on="0"/>
        <pt x="441" y="450" on="0"/>
        <pt x="399" y="523" on="0"/>
        <pt x="325" y="575" on="0"/>
        <pt x="266" y="575" on="1"/>
        <pt x="231" y="575" on="0"/>
        <pt x="192" y="570" on="0"/>
        <pt x="173" y="562" on="0"/>
        <pt x="168" y="551" on="0"/>
        <pt x="167" y="545" on="1"/>
        <pt x="164" y="531" on="0"/>
        <pt x="144" y="526" on="0"/>
        <pt x="132" y="526" on="1"/>
        <pt x="119" y="526" on="1"/>
        <pt x="106" y="526" on="0"/>
        <pt x="84" y="533" on="0"/>
        <pt x="84" y="553" on="1"/>
        <pt x="84" y="583" on="0"/>
        <pt x="114" y="636" on="0"/>
        <pt x="166" y="676" on="0"/>
        <pt x="236" y="700" on="0"/>
        <pt x="277" y="700" on="1"/>
        <pt x="327" y="700" on="0"/>
        <pt x="409" y="663" on="0"/>
        <pt x="474" y="600" on="0"/>
        <pt x="520" y="514" on="0"/>
        <pt x="533" y="466" on="1"/>
        <pt x="534" y="466" on="1"/>
        <pt x="545" y="508" on="0"/>
        <pt x="587" y="591" on="0"/>
        <pt x="651" y="658" on="0"/>
        <pt x="736" y="700" on="0"/>
        <pt x="790" y="700" on="1"/>
        <pt x="831" y="700" on="0"/>
        <pt x="901" y="676" on="0"/>
        <pt x="953" y="636" on="0"/>
        <pt x="983" y="583" on="0"/>
        <pt x="983" y="553" on="1"/>
        <pt x="983" y="533" on="0"/>
        <pt x="961" y="526" on="0"/>
        <pt x="948" y="526" on="1"/>
        <pt x="935" y="526" on="1"/>
        <pt x="922" y="526" on="0"/>
        <pt x="903" y="531" on="0"/>
        <pt x="900" y="547" on="1"/>
        <pt x="899" y="552" on="0"/>
        <pt x="895" y="562" on="0"/>
        <pt x="875" y="570" on="0"/>
        <pt x="836" y="575" on="0"/>
        <pt x="801" y="575" on="1"/>
        <pt x="743" y="575" on="0"/>
        <pt x="669" y="524" on="0"/>
        <pt x="626" y="451" on="0"/>
        <pt x="610" y="372" on="0"/>
        <pt x="610" y="343" on="1"/>
      </contour>
    </TTGlyph>
    <TTGlyph name="V" xMin="42" yMin="-14" xMax="985" yMax="686">
      <contour>
        <pt x="585" y="14" on="1"/>
        <pt x="574" y="-7" on="0"/>
        <pt x="551" y="-14" on="0"/>
        <pt x="534" y="-14" on="1"/>
        <pt x="493" y="-14" on="1"/>
        <pt x="477" y="-14" on="0"/>
        <pt x="452" y="-7" on="0"/>
        <pt x="441" y="15" on="1"/>
        <pt x="137" y="626" on="1"/>
        <pt x="42" y="626" on="1"/>
        <pt x="42" y="686" on="1"/>
        <pt x="54" y="686" on="0"/>
        <pt x="94" y="684" on="0"/>
        <pt x="140" y="683" on="0"/>
        <pt x="186" y="682" on="0"/>
        <pt x="204" y="682" on="1"/>
        <pt x="245" y="682" on="0"/>
        <pt x="345" y="683" on="0"/>
        <pt x="385" y="686" on="1"/>
        <pt x="385" y="626" on="1"/>
        <pt x="300" y="626" on="1"/>
        <pt x="548" y="126" on="1"/>
        <pt x="795" y="622" on="1"/>
        <pt x="786" y="624" on="0"/>
        <pt x="774" y="625" on="0"/>
        <pt x="761" y="626" on="0"/>
        <pt x="745" y="626" on="0"/>
        <pt x="731" y="626" on="1"/>
        <pt x="711" y="626" on="1"/>
        <pt x="711" y="686" on="1"/>
        <pt x="718" y="686" on="0"/>
        <pt x="754" y="684" on="0"/>
        <pt x="798" y="683" on="0"/>
        <pt x="843" y="682" on="0"/>
        <pt x="858" y="682" on="1"/>
        <pt x="864" y="682" on="0"/>
        <pt x="895" y="682" on="0"/>
        <pt x="933" y="683" on="0"/>
        <pt x="972" y="685" on="0"/>
        <pt x="985" y="686" on="1"/>
        <pt x="985" y="626" on="1"/>
        <pt x="949" y="626" on="1"/>
        <pt x="941" y="626" on="0"/>
        <pt x="916" y="626" on="0"/>
        <pt x="908" y="625" on="1"/>
        <pt x="893" y="623" on="0"/>
        <pt x="886" y="619" on="0"/>
        <pt x="881" y="610" on="1"/>
      </contour>
    </TTGlyph>
    <TTGlyph name="W" xMin="39" yMin="-14" xMax="1363" yMax="686">
      <contour>
        <pt x="1018" y="15" on="1"/>
        <pt x="1009" y="-7" on="0"/>
        <pt x="983" y="-14" on="0"/>
        <pt x="968" y="-14" on="1"/>
        <pt x="942" y="-14" on="1"/>
        <pt x="926" y="-14" on="0"/>
        <pt x="902" y="-7" on="0"/>
        <pt x="892" y="16" on="1"/>
        <pt x="701" y="471" on="1"/>
        <pt x="509" y="16" on="1"/>
        <pt x="501" y="-1" on="0"/>
        <pt x="485" y="-14" on="0"/>
        <pt x="460" y="-14" on="1"/>
        <pt x="434" y="-14" on="1"/>
        <pt x="419" y="-14" on="0"/>
        <pt x="393" y="-7" on="0"/>
        <pt x="384" y="15" on="1"/>
        <pt x="128" y="626" on="1"/>
        <pt x="39" y="626" on="1"/>
        <pt x="39" y="686" on="1"/>
        <pt x="50" y="686" on="0"/>
        <pt x="88" y="684" on="0"/>
        <pt x="131" y="683" on="0"/>
        <pt x="177" y="682" on="0"/>
        <pt x="195" y="682" on="1"/>
        <pt x="236" y="682" on="0"/>
        <pt x="334" y="684" on="0"/>
        <pt x="374" y="686" on="1"/>
        <pt x="374" y="626" on="1"/>
        <pt x="285" y="626" on="1"/>
        <pt x="487" y="146" on="1"/>
        <pt x="662" y="563" on="1"/>
        <pt x="636" y="626" on="1"/>
        <pt x="548" y="626" on="1"/>
        <pt x="548" y="686" on="1"/>
        <pt x="556" y="686" on="0"/>
        <pt x="591" y="684" on="0"/>
        <pt x="636" y="683" on="0"/>
        <pt x="684" y="682" on="0"/>
        <pt x="703" y="682" on="1"/>
        <pt x="744" y="682" on="0"/>
        <pt x="843" y="683" on="0"/>
        <pt x="883" y="686" on="1"/>
        <pt x="883" y="626" on="1"/>
        <pt x="794" y="626" on="1"/>
        <pt x="996" y="146" on="1"/>
        <pt x="1190" y="608" on="1"/>
        <pt x="1194" y="616" on="0"/>
        <pt x="1194" y="619" on="1"/>
        <pt x="1194" y="622" on="0"/>
        <pt x="1175" y="624" on="0"/>
        <pt x="1150" y="626" on="0"/>
        <pt x="1127" y="626" on="0"/>
        <pt x="1124" y="626" on="1"/>
        <pt x="1098" y="626" on="1"/>
        <pt x="1098" y="686" on="1"/>
        <pt x="1104" y="686" on="0"/>
        <pt x="1140" y="684" on="0"/>
        <pt x="1185" y="683" on="0"/>
        <pt x="1231" y="682" on="0"/>
        <pt x="1247" y="682" on="1"/>
        <pt x="1276" y="682" on="0"/>
        <pt x="1334" y="684" on="0"/>
        <pt x="1363" y="686" on="1"/>
        <pt x="1363" y="626" on="1"/>
        <pt x="1291" y="625" on="1"/>
        <pt x="1279" y="623" on="0"/>
        <pt x="1273" y="619" on="0"/>
        <pt x="1268" y="609" on="1"/>
      </contour>
    </TTGlyph>
    <TTGlyph name="X" xMin="56" yMin="0" xMax="971" yMax="686">
      <contour>
        <pt x="866" y="60" on="1"/>
        <pt x="971" y="60" on="1"/>
        <pt x="971" y="0" on="1"/>
        <pt x="960" y="0" on="0"/>
        <pt x="920" y="2" on="0"/>
        <pt x="872" y="3" on="0"/>
        <pt x="823" y="4" on="0"/>
        <pt x="803" y="4" on="1"/>
        <pt x="782" y="4" on="0"/>
        <pt x="734" y="4" on="0"/>
        <pt x="684" y="3" on="0"/>
        <pt x="637" y="2" on="0"/>
        <pt x="616" y="0" on="1"/>
        <pt x="616" y="60" on="1"/>
        <pt x="682" y="60" on="1"/>
        <pt x="485" y="281" on="1"/>
        <pt x="291" y="64" on="1"/>
        <pt x="298" y="63" on="0"/>
        <pt x="332" y="60" on="0"/>
        <pt x="366" y="60" on="1"/>
        <pt x="366" y="0" on="1"/>
        <pt x="358" y="0" on="0"/>
        <pt x="321" y="2" on="0"/>
        <pt x="273" y="3" on="0"/>
        <pt x="222" y="4" on="0"/>
        <pt x="201" y="4" on="1"/>
        <pt x="182" y="4" on="0"/>
        <pt x="137" y="3" on="0"/>
        <pt x="96" y="2" on="0"/>
        <pt x="63" y="0" on="0"/>
        <pt x="56" y="0" on="1"/>
        <pt x="56" y="60" on="1"/>
        <pt x="106" y="60" on="1"/>
        <pt x="116" y="60" on="0"/>
        <pt x="142" y="60" on="0"/>
        <pt x="152" y="61" on="1"/>
        <pt x="170" y="63" on="0"/>
        <pt x="180" y="67" on="0"/>
        <pt x="187" y="74" on="1"/>
        <pt x="430" y="344" on="1"/>
        <pt x="180" y="626" on="1"/>
        <pt x="75" y="626" on="1"/>
        <pt x="75" y="686" on="1"/>
        <pt x="87" y="686" on="0"/>
        <pt x="128" y="684" on="0"/>
        <pt x="175" y="683" on="0"/>
        <pt x="224" y="682" on="0"/>
        <pt x="243" y="682" on="1"/>
        <pt x="263" y="682" on="0"/>
        <pt x="312" y="682" on="0"/>
        <pt x="362" y="683" on="0"/>
        <pt x="411" y="685" on="0"/>
        <pt x="430" y="686" on="1"/>
        <pt x="430" y="626" on="1"/>
        <pt x="364" y="626" on="1"/>
        <pt x="523" y="448" on="1"/>
        <pt x="680" y="622" on="1"/>
        <pt x="673" y="623" on="0"/>
        <pt x="639" y="626" on="0"/>
        <pt x="605" y="626" on="1"/>
        <pt x="605" y="686" on="1"/>
        <pt x="613" y="686" on="0"/>
        <pt x="652" y="684" on="0"/>
        <pt x="700" y="683" on="0"/>
        <pt x="750" y="682" on="0"/>
        <pt x="770" y="682" on="1"/>
        <pt x="791" y="682" on="0"/>
        <pt x="836" y="683" on="0"/>
        <pt x="876" y="684" on="0"/>
        <pt x="907" y="686" on="0"/>
        <pt x="914" y="686" on="1"/>
        <pt x="914" y="626" on="1"/>
        <pt x="865" y="626" on="1"/>
        <pt x="855" y="626" on="0"/>
        <pt x="829" y="626" on="0"/>
        <pt x="819" y="625" on="1"/>
        <pt x="800" y="623" on="0"/>
        <pt x="790" y="621" on="0"/>
        <pt x="783" y="613" on="1"/>
        <pt x="578" y="384" on="1"/>
      </contour>
    </TTGlyph>
    <TTGlyph name="Xi" xMin="65" yMin="0" xMax="852" yMax="671">
      <contour>
        <pt x="844" y="475" on="1"/>
        <pt x="773" y="475" on="1"/>
        <pt x="773" y="479" on="0"/>
        <pt x="772" y="499" on="0"/>
        <pt x="768" y="520" on="0"/>
        <pt x="761" y="539" on="0"/>
        <pt x="755" y="543" on="1"/>
        <pt x="752" y="545" on="0"/>
        <pt x="729" y="548" on="0"/>
        <pt x="703" y="549" on="0"/>
        <pt x="679" y="549" on="0"/>
        <pt x="674" y="549" on="1"/>
        <pt x="243" y="549" on="1"/>
        <pt x="238" y="549" on="0"/>
        <pt x="214" y="549" on="0"/>
        <pt x="187" y="547" on="0"/>
        <pt x="165" y="546" on="0"/>
        <pt x="162" y="544" on="1"/>
        <pt x="157" y="541" on="0"/>
        <pt x="150" y="523" on="0"/>
        <pt x="146" y="502" on="0"/>
        <pt x="144" y="481" on="0"/>
        <pt x="144" y="475" on="1"/>
        <pt x="73" y="475" on="1"/>
        <pt x="84" y="671" on="1"/>
        <pt x="833" y="671" on="1"/>
      </contour>
      <contour>
        <pt x="65" y="205" on="1"/>
        <pt x="136" y="205" on="1"/>
        <pt x="136" y="200" on="0"/>
        <pt x="138" y="177" on="0"/>
        <pt x="142" y="152" on="0"/>
        <pt x="148" y="131" on="0"/>
        <pt x="154" y="128" on="1"/>
        <pt x="159" y="126" on="0"/>
        <pt x="183" y="123" on="0"/>
        <pt x="210" y="122" on="0"/>
        <pt x="235" y="122" on="0"/>
        <pt x="241" y="122" on="1"/>
        <pt x="676" y="122" on="1"/>
        <pt x="682" y="122" on="0"/>
        <pt x="707" y="122" on="0"/>
        <pt x="734" y="123" on="0"/>
        <pt x="759" y="126" on="0"/>
        <pt x="763" y="128" on="1"/>
        <pt x="769" y="131" on="0"/>
        <pt x="775" y="152" on="0"/>
        <pt x="779" y="177" on="0"/>
        <pt x="781" y="200" on="0"/>
        <pt x="781" y="205" on="1"/>
        <pt x="852" y="205" on="1"/>
        <pt x="841" y="0" on="1"/>
        <pt x="76" y="0" on="1"/>
      </contour>
      <contour>
        <pt x="721" y="245" on="1"/>
        <pt x="650" y="245" on="1"/>
        <pt x="650" y="288" on="1"/>
        <pt x="267" y="288" on="1"/>
        <pt x="267" y="245" on="1"/>
        <pt x="196" y="245" on="1"/>
        <pt x="196" y="453" on="1"/>
        <pt x="267" y="453" on="1"/>
        <pt x="267" y="410" on="1"/>
        <pt x="650" y="410" on="1"/>
        <pt x="650" y="453" on="1"/>
        <pt x="721" y="453" on="1"/>
      </contour>
    </TTGlyph>
    <TTGlyph name="Y" xMin="39" yMin="0" xMax="988" yMax="686">
      <contour>
        <pt x="587" y="275" on="1"/>
        <pt x="587" y="60" on="1"/>
        <pt x="693" y="60" on="1"/>
        <pt x="693" y="0" on="1"/>
        <pt x="650" y="2" on="0"/>
        <pt x="558" y="4" on="0"/>
        <pt x="514" y="4" on="1"/>
        <pt x="469" y="4" on="0"/>
        <pt x="380" y="2" on="0"/>
        <pt x="335" y="0" on="1"/>
        <pt x="335" y="60" on="1"/>
        <pt x="441" y="60" on="1"/>
        <pt x="441" y="274" on="1"/>
        <pt x="143" y="626" on="1"/>
        <pt x="39" y="626" on="1"/>
        <pt x="39" y="686" on="1"/>
        <pt x="48" y="686" on="0"/>
        <pt x="83" y="684" on="0"/>
        <pt x="130" y="683" on="0"/>
        <pt x="184" y="682" on="0"/>
        <pt x="211" y="682" on="1"/>
        <pt x="231" y="682" on="0"/>
        <pt x="281" y="682" on="0"/>
        <pt x="333" y="683" on="0"/>
        <pt x="383" y="685" on="0"/>
        <pt x="402" y="686" on="1"/>
        <pt x="402" y="626" on="1"/>
        <pt x="334" y="626" on="1"/>
        <pt x="555" y="365" on="1"/>
        <pt x="771" y="622" on="1"/>
        <pt x="760" y="624" on="0"/>
        <pt x="747" y="625" on="0"/>
        <pt x="734" y="626" on="0"/>
        <pt x="719" y="626" on="0"/>
        <pt x="707" y="626" on="1"/>
        <pt x="707" y="686" on="1"/>
        <pt x="713" y="686" on="0"/>
        <pt x="749" y="684" on="0"/>
        <pt x="794" y="683" on="0"/>
        <pt x="841" y="682" on="0"/>
        <pt x="857" y="682" on="1"/>
        <pt x="869" y="682" on="0"/>
        <pt x="905" y="683" on="0"/>
        <pt x="942" y="684" on="0"/>
        <pt x="977" y="685" on="0"/>
        <pt x="988" y="686" on="1"/>
        <pt x="988" y="626" on="1"/>
        <pt x="947" y="626" on="1"/>
        <pt x="938" y="626" on="0"/>
        <pt x="914" y="626" on="0"/>
        <pt x="905" y="625" on="1"/>
        <pt x="888" y="623" on="0"/>
        <pt x="879" y="621" on="0"/>
        <pt x="872" y="613" on="1"/>
      </contour>
    </TTGlyph>
    <TTGlyph name="Z" xMin="84" yMin="0" xMax="766" yMax="686">
      <contour>
        <pt x="281" y="65" on="1"/>
        <pt x="455" y="65" on="1"/>
        <pt x="501" y="65" on="0"/>
        <pt x="583" y="79" on="0"/>
        <pt x="647" y="122" on="0"/>
        <pt x="689" y="201" on="0"/>
        <pt x="695" y="265" on="1"/>
        <pt x="766" y="265" on="1"/>
        <pt x="744" y="0" on="1"/>
        <pt x="120" y="0" on="1"/>
        <pt x="102" y="0" on="0"/>
        <pt x="84" y="9" on="0"/>
        <pt x="84" y="33" on="1"/>
        <pt x="84" y="45" on="0"/>
        <pt x="86" y="55" on="0"/>
        <pt x="94" y="64" on="1"/>
        <pt x="562" y="626" on="1"/>
        <pt x="403" y="626" on="1"/>
        <pt x="392" y="626" on="0"/>
        <pt x="350" y="624" on="0"/>
        <pt x="301" y="615" on="0"/>
        <pt x="250" y="595" on="0"/>
        <pt x="207" y="558" on="0"/>
        <pt x="177" y="501" on="0"/>
        <pt x="174" y="459" on="1"/>
        <pt x="103" y="459" on="1"/>
        <pt x="117" y="686" on="1"/>
        <pt x="722" y="686" on="1"/>
        <pt x="738" y="686" on="0"/>
        <pt x="758" y="678" on="0"/>
        <pt x="758" y="654" on="1"/>
        <pt x="758" y="644" on="0"/>
        <pt x="755" y="634" on="0"/>
        <pt x="747" y="624" on="1"/>
      </contour>
    </TTGlyph>
    <TTGlyph name="a" xMin="49" yMin="-7" xMax="664" yMax="455">
      <contour>
        <pt x="561" y="71" on="1"/>
        <pt x="571" y="65" on="0"/>
        <pt x="597" y="60" on="0"/>
        <pt x="624" y="60" on="1"/>
        <pt x="644" y="60" on="0"/>
        <pt x="664" y="53" on="0"/>
        <pt x="664" y="30" on="1"/>
        <pt x="664" y="7" on="0"/>
        <pt x="643" y="0" on="0"/>
        <pt x="628" y="0" on="1"/>
        <pt x="562" y="0" on="1"/>
        <pt x="546" y="0" on="0"/>
        <pt x="509" y="3" on="0"/>
        <pt x="477" y="16" on="0"/>
        <pt x="454" y="40" on="0"/>
        <pt x="452" y="61" on="1"/>
        <pt x="434" y="35" on="0"/>
        <pt x="346" y="-7" on="0"/>
        <pt x="271" y="-7" on="1"/>
        <pt x="263" y="-7" on="0"/>
        <pt x="224" y="-6" on="0"/>
        <pt x="175" y="1" on="0"/>
        <pt x="121" y="16" on="0"/>
        <pt x="77" y="44" on="0"/>
        <pt x="49" y="87" on="0"/>
        <pt x="49" y="118" on="1"/>
        <pt x="49" y="149" on="0"/>
        <pt x="84" y="195" on="0"/>
        <pt x="138" y="227" on="0"/>
        <pt x="205" y="248" on="0"/>
        <pt x="267" y="260" on="0"/>
        <pt x="319" y="265" on="0"/>
        <pt x="332" y="266" on="1"/>
        <pt x="374" y="269" on="0"/>
        <pt x="426" y="269" on="0"/>
        <pt x="431" y="270" on="1"/>
        <pt x="431" y="291" on="1"/>
        <pt x="431" y="404" on="0"/>
        <pt x="301" y="404" on="1"/>
        <pt x="298" y="404" on="0"/>
        <pt x="273" y="403" on="0"/>
        <pt x="246" y="401" on="0"/>
        <pt x="224" y="398" on="0"/>
        <pt x="224" y="396" on="1"/>
        <pt x="224" y="396" on="0"/>
        <pt x="226" y="392" on="1"/>
        <pt x="238" y="373" on="0"/>
        <pt x="238" y="350" on="1"/>
        <pt x="238" y="316" on="0"/>
        <pt x="193" y="278" on="0"/>
        <pt x="166" y="278" on="1"/>
        <pt x="154" y="278" on="0"/>
        <pt x="128" y="287" on="0"/>
        <pt x="107" y="305" on="0"/>
        <pt x="94" y="333" on="0"/>
        <pt x="94" y="351" on="1"/>
        <pt x="94" y="390" on="0"/>
        <pt x="141" y="432" on="0"/>
        <pt x="207" y="452" on="0"/>
        <pt x="278" y="455" on="0"/>
        <pt x="302" y="455" on="1"/>
        <pt x="371" y="455" on="0"/>
        <pt x="470" y="429" on="0"/>
        <pt x="532" y="385" on="0"/>
        <pt x="561" y="325" on="0"/>
        <pt x="561" y="292" on="1"/>
      </contour>
      <contour>
        <pt x="431" y="225" on="1"/>
        <pt x="416" y="224" on="0"/>
        <pt x="366" y="221" on="0"/>
        <pt x="310" y="213" on="0"/>
        <pt x="253" y="198" on="0"/>
        <pt x="207" y="175" on="0"/>
        <pt x="178" y="142" on="0"/>
        <pt x="178" y="119" on="1"/>
        <pt x="178" y="85" on="0"/>
        <pt x="244" y="44" on="0"/>
        <pt x="292" y="44" on="1"/>
        <pt x="295" y="44" on="0"/>
        <pt x="315" y="45" on="0"/>
        <pt x="342" y="49" on="0"/>
        <pt x="373" y="57" on="0"/>
        <pt x="388" y="65" on="1"/>
        <pt x="420" y="81" on="0"/>
        <pt x="431" y="118" on="0"/>
        <pt x="431" y="135" on="1"/>
      </contour>
    </TTGlyph>
    <TTGlyph name="acute" xMin="287" yMin="499" xMax="544" yMax="702">
      <contour>
        <pt x="324" y="499" on="1"/>
        <pt x="287" y="559" on="1"/>
        <pt x="434" y="684" on="1"/>
        <pt x="447" y="695" on="0"/>
        <pt x="468" y="702" on="0"/>
        <pt x="478" y="702" on="1"/>
        <pt x="493" y="702" on="0"/>
        <pt x="517" y="689" on="0"/>
        <pt x="534" y="668" on="0"/>
        <pt x="544" y="643" on="0"/>
        <pt x="544" y="631" on="1"/>
        <pt x="544" y="611" on="0"/>
        <pt x="520" y="581" on="0"/>
        <pt x="499" y="572" on="1"/>
      </contour>
    </TTGlyph>
    <TTGlyph name="ae" xMin="57" yMin="-7" xMax="946" yMax="455">
      <contour>
        <pt x="562" y="204" on="1"/>
        <pt x="565" y="162" on="0"/>
        <pt x="595" y="104" on="0"/>
        <pt x="644" y="66" on="0"/>
        <pt x="710" y="49" on="0"/>
        <pt x="750" y="49" on="1"/>
        <pt x="797" y="49" on="0"/>
        <pt x="861" y="86" on="0"/>
        <pt x="875" y="116" on="1"/>
        <pt x="881" y="130" on="0"/>
        <pt x="893" y="136" on="0"/>
        <pt x="910" y="136" on="1"/>
        <pt x="921" y="136" on="0"/>
        <pt x="946" y="130" on="0"/>
        <pt x="946" y="113" on="1"/>
        <pt x="946" y="109" on="0"/>
        <pt x="930" y="70" on="0"/>
        <pt x="883" y="27" on="0"/>
        <pt x="800" y="-7" on="0"/>
        <pt x="732" y="-7" on="1"/>
        <pt x="710" y="-7" on="0"/>
        <pt x="658" y="-3" on="0"/>
        <pt x="602" y="11" on="0"/>
        <pt x="544" y="35" on="0"/>
        <pt x="517" y="54" on="1"/>
        <pt x="482" y="16" on="0"/>
        <pt x="358" y="-7" on="0"/>
        <pt x="280" y="-7" on="1"/>
        <pt x="268" y="-7" on="0"/>
        <pt x="225" y="-6" on="0"/>
        <pt x="176" y="1" on="0"/>
        <pt x="125" y="15" on="0"/>
        <pt x="83" y="41" on="0"/>
        <pt x="57" y="82" on="0"/>
        <pt x="57" y="111" on="1"/>
        <pt x="57" y="138" on="0"/>
        <pt x="83" y="176" on="0"/>
        <pt x="127" y="203" on="0"/>
        <pt x="186" y="222" on="0"/>
        <pt x="218" y="229" on="1"/>
        <pt x="240" y="234" on="0"/>
        <pt x="291" y="241" on="0"/>
        <pt x="342" y="245" on="0"/>
        <pt x="391" y="248" on="0"/>
        <pt x="410" y="248" on="1"/>
        <pt x="431" y="248" on="1"/>
        <pt x="431" y="291" on="1"/>
        <pt x="431" y="351" on="0"/>
        <pt x="363" y="404" on="0"/>
        <pt x="301" y="404" on="1"/>
        <pt x="298" y="404" on="0"/>
        <pt x="273" y="403" on="0"/>
        <pt x="246" y="401" on="0"/>
        <pt x="224" y="398" on="0"/>
        <pt x="224" y="396" on="1"/>
        <pt x="224" y="396" on="0"/>
        <pt x="226" y="392" on="1"/>
        <pt x="238" y="373" on="0"/>
        <pt x="238" y="350" on="1"/>
        <pt x="238" y="316" on="0"/>
        <pt x="193" y="278" on="0"/>
        <pt x="166" y="278" on="1"/>
        <pt x="154" y="278" on="0"/>
        <pt x="128" y="287" on="0"/>
        <pt x="107" y="305" on="0"/>
        <pt x="94" y="333" on="0"/>
        <pt x="94" y="351" on="1"/>
        <pt x="94" y="390" on="0"/>
        <pt x="141" y="432" on="0"/>
        <pt x="207" y="452" on="0"/>
        <pt x="278" y="455" on="0"/>
        <pt x="302" y="455" on="1"/>
        <pt x="318" y="455" on="0"/>
        <pt x="369" y="453" on="0"/>
        <pt x="427" y="442" on="0"/>
        <pt x="488" y="418" on="0"/>
        <pt x="515" y="396" on="1"/>
        <pt x="539" y="415" on="0"/>
        <pt x="594" y="438" on="0"/>
        <pt x="647" y="451" on="0"/>
        <pt x="696" y="455" on="0"/>
        <pt x="715" y="455" on="1"/>
        <pt x="821" y="455" on="0"/>
        <pt x="946" y="346" on="0"/>
        <pt x="946" y="236" on="1"/>
        <pt x="946" y="212" on="0"/>
        <pt x="927" y="204" on="0"/>
        <pt x="910" y="204" on="1"/>
      </contour>
      <contour>
        <pt x="845" y="251" on="1"/>
        <pt x="844" y="284" on="0"/>
        <pt x="830" y="340" on="0"/>
        <pt x="799" y="381" on="0"/>
        <pt x="750" y="404" on="0"/>
        <pt x="715" y="404" on="1"/>
        <pt x="668" y="404" on="0"/>
        <pt x="609" y="375" on="0"/>
        <pt x="576" y="330" on="0"/>
        <pt x="563" y="276" on="0"/>
        <pt x="562" y="251" on="1"/>
      </contour>
      <contour>
        <pt x="432" y="201" on="1"/>
        <pt x="420" y="201" on="0"/>
        <pt x="374" y="198" on="0"/>
        <pt x="319" y="191" on="0"/>
        <pt x="262" y="179" on="0"/>
        <pt x="216" y="159" on="0"/>
        <pt x="186" y="131" on="0"/>
        <pt x="186" y="112" on="1"/>
        <pt x="186" y="83" on="0"/>
        <pt x="246" y="44" on="0"/>
        <pt x="294" y="44" on="1"/>
        <pt x="303" y="44" on="0"/>
        <pt x="354" y="47" on="0"/>
        <pt x="408" y="63" on="0"/>
        <pt x="451" y="96" on="0"/>
        <pt x="451" y="125" on="1"/>
        <pt x="451" y="126" on="0"/>
        <pt x="450" y="137" on="0"/>
        <pt x="448" y="142" on="1"/>
        <pt x="444" y="152" on="0"/>
        <pt x="434" y="184" on="0"/>
      </contour>
    </TTGlyph>
    <TTGlyph name="ampersand" xMin="65" yMin="-14" xMax="991" yMax="708">
      <contour>
        <pt x="244" y="329" on="1"/>
        <pt x="245" y="330" on="0"/>
        <pt x="253" y="335" on="0"/>
        <pt x="253" y="337" on="1"/>
        <pt x="253" y="338" on="0"/>
        <pt x="252" y="342" on="0"/>
        <pt x="249" y="347" on="1"/>
        <pt x="235" y="382" on="0"/>
        <pt x="212" y="469" on="0"/>
        <pt x="212" y="517" on="1"/>
        <pt x="212" y="565" on="0"/>
        <pt x="251" y="636" on="0"/>
        <pt x="312" y="684" on="0"/>
        <pt x="386" y="708" on="0"/>
        <pt x="422" y="708" on="1"/>
        <pt x="456" y="708" on="0"/>
        <pt x="510" y="682" on="0"/>
        <pt x="547" y="642" on="0"/>
        <pt x="567" y="591" on="0"/>
        <pt x="567" y="566" on="1"/>
        <pt x="567" y="519" on="0"/>
        <pt x="471" y="424" on="0"/>
        <pt x="386" y="364" on="1"/>
        <pt x="408" y="323" on="0"/>
        <pt x="475" y="243" on="0"/>
        <pt x="537" y="180" on="0"/>
        <pt x="582" y="142" on="0"/>
        <pt x="582" y="142" on="1"/>
        <pt x="614" y="166" on="0"/>
        <pt x="671" y="218" on="0"/>
        <pt x="708" y="258" on="1"/>
        <pt x="720" y="272" on="0"/>
        <pt x="755" y="313" on="0"/>
        <pt x="786" y="351" on="0"/>
        <pt x="808" y="378" on="0"/>
        <pt x="808" y="379" on="1"/>
        <pt x="808" y="381" on="0"/>
        <pt x="790" y="383" on="0"/>
        <pt x="768" y="384" on="0"/>
        <pt x="748" y="384" on="0"/>
        <pt x="746" y="384" on="1"/>
        <pt x="746" y="444" on="1"/>
        <pt x="752" y="444" on="0"/>
        <pt x="782" y="442" on="0"/>
        <pt x="821" y="441" on="0"/>
        <pt x="863" y="440" on="0"/>
        <pt x="882" y="440" on="1"/>
        <pt x="908" y="440" on="0"/>
        <pt x="965" y="442" on="0"/>
        <pt x="991" y="444" on="1"/>
        <pt x="991" y="384" on="1"/>
        <pt x="956" y="384" on="1"/>
        <pt x="952" y="384" on="0"/>
        <pt x="934" y="384" on="0"/>
        <pt x="915" y="383" on="0"/>
        <pt x="898" y="381" on="0"/>
        <pt x="895" y="379" on="1"/>
        <pt x="894" y="379" on="0"/>
        <pt x="881" y="363" on="0"/>
        <pt x="864" y="343" on="0"/>
        <pt x="847" y="322" on="0"/>
        <pt x="842" y="316" on="1"/>
        <pt x="803" y="268" on="0"/>
        <pt x="704" y="158" on="0"/>
        <pt x="632" y="103" on="1"/>
        <pt x="672" y="76" on="0"/>
        <pt x="752" y="46" on="0"/>
        <pt x="796" y="46" on="1"/>
        <pt x="802" y="46" on="0"/>
        <pt x="839" y="48" on="0"/>
        <pt x="878" y="61" on="0"/>
        <pt x="910" y="88" on="0"/>
        <pt x="912" y="113" on="1"/>
        <pt x="983" y="113" on="1"/>
        <pt x="982" y="80" on="0"/>
        <pt x="949" y="32" on="0"/>
        <pt x="895" y="1" on="0"/>
        <pt x="826" y="-14" on="0"/>
        <pt x="790" y="-14" on="1"/>
        <pt x="658" y="-14" on="0"/>
        <pt x="534" y="42" on="1"/>
        <pt x="516" y="33" on="0"/>
        <pt x="469" y="13" on="0"/>
        <pt x="411" y="-3" on="0"/>
        <pt x="345" y="-14" on="0"/>
        <pt x="309" y="-14" on="1"/>
        <pt x="258" y="-14" on="0"/>
        <pt x="169" y="7" on="0"/>
        <pt x="103" y="47" on="0"/>
        <pt x="65" y="105" on="0"/>
        <pt x="65" y="143" on="1"/>
        <pt x="65" y="149" on="0"/>
        <pt x="67" y="173" on="0"/>
        <pt x="80" y="202" on="0"/>
        <pt x="107" y="236" on="0"/>
        <pt x="131" y="252" on="1"/>
      </contour>
      <contour>
        <pt x="364" y="411" on="1"/>
        <pt x="392" y="431" on="0"/>
        <pt x="440" y="470" on="0"/>
        <pt x="476" y="509" on="0"/>
        <pt x="496" y="547" on="0"/>
        <pt x="496" y="565" on="1"/>
        <pt x="496" y="580" on="0"/>
        <pt x="487" y="612" on="0"/>
        <pt x="469" y="639" on="0"/>
        <pt x="441" y="657" on="0"/>
        <pt x="423" y="657" on="1"/>
        <pt x="411" y="657" on="0"/>
        <pt x="379" y="647" on="0"/>
        <pt x="351" y="625" on="0"/>
        <pt x="331" y="587" on="0"/>
        <pt x="331" y="558" on="1"/>
        <pt x="331" y="553" on="0"/>
        <pt x="332" y="526" on="0"/>
        <pt x="338" y="487" on="0"/>
        <pt x="352" y="438" on="0"/>
      </contour>
      <contour>
        <pt x="277" y="290" on="1"/>
        <pt x="242" y="269" on="0"/>
        <pt x="209" y="209" on="0"/>
        <pt x="209" y="172" on="1"/>
        <pt x="209" y="151" on="0"/>
        <pt x="223" y="106" on="0"/>
        <pt x="252" y="70" on="0"/>
        <pt x="295" y="46" on="0"/>
        <pt x="325" y="46" on="1"/>
        <pt x="363" y="46" on="0"/>
        <pt x="436" y="63" on="0"/>
        <pt x="471" y="78" on="1"/>
        <pt x="407" y="121" on="0"/>
        <pt x="312" y="233" on="0"/>
      </contour>
    </TTGlyph>
    <TTGlyph name="asterisk" xMin="97" yMin="306" xMax="595" yMax="750">
      <contour>
        <pt x="396" y="369" on="1"/>
        <pt x="397" y="364" on="0"/>
        <pt x="399" y="353" on="0"/>
        <pt x="399" y="351" on="1"/>
        <pt x="399" y="333" on="0"/>
        <pt x="368" y="306" on="0"/>
        <pt x="346" y="306" on="1"/>
        <pt x="324" y="306" on="0"/>
        <pt x="293" y="333" on="0"/>
        <pt x="293" y="351" on="1"/>
        <pt x="293" y="358" on="0"/>
        <pt x="295" y="364" on="1"/>
        <pt x="317" y="484" on="1"/>
        <pt x="191" y="404" on="1"/>
        <pt x="172" y="392" on="0"/>
        <pt x="159" y="385" on="0"/>
        <pt x="149" y="385" on="1"/>
        <pt x="126" y="385" on="0"/>
        <pt x="97" y="421" on="0"/>
        <pt x="97" y="441" on="1"/>
        <pt x="97" y="455" on="0"/>
        <pt x="106" y="472" on="0"/>
        <pt x="118" y="482" on="0"/>
        <pt x="132" y="487" on="0"/>
        <pt x="136" y="488" on="1"/>
        <pt x="272" y="528" on="1"/>
        <pt x="136" y="568" on="1"/>
        <pt x="132" y="569" on="0"/>
        <pt x="118" y="574" on="0"/>
        <pt x="106" y="584" on="0"/>
        <pt x="97" y="602" on="0"/>
        <pt x="97" y="615" on="1"/>
        <pt x="97" y="635" on="0"/>
        <pt x="126" y="671" on="0"/>
        <pt x="149" y="671" on="1"/>
        <pt x="158" y="671" on="0"/>
        <pt x="167" y="667" on="0"/>
        <pt x="178" y="660" on="1"/>
        <pt x="317" y="571" on="1"/>
        <pt x="296" y="687" on="1"/>
        <pt x="295" y="692" on="0"/>
        <pt x="293" y="703" on="0"/>
        <pt x="293" y="705" on="1"/>
        <pt x="293" y="723" on="0"/>
        <pt x="324" y="750" on="0"/>
        <pt x="346" y="750" on="1"/>
        <pt x="368" y="750" on="0"/>
        <pt x="399" y="723" on="0"/>
        <pt x="399" y="705" on="1"/>
        <pt x="399" y="698" on="0"/>
        <pt x="397" y="692" on="1"/>
        <pt x="375" y="572" on="1"/>
        <pt x="501" y="652" on="1"/>
        <pt x="520" y="664" on="0"/>
        <pt x="533" y="671" on="0"/>
        <pt x="543" y="671" on="1"/>
        <pt x="566" y="671" on="0"/>
        <pt x="595" y="635" on="0"/>
        <pt x="595" y="615" on="1"/>
        <pt x="595" y="602" on="0"/>
        <pt x="586" y="584" on="0"/>
        <pt x="574" y="574" on="0"/>
        <pt x="561" y="569" on="0"/>
        <pt x="556" y="568" on="1"/>
        <pt x="420" y="528" on="1"/>
        <pt x="556" y="488" on="1"/>
        <pt x="561" y="487" on="0"/>
        <pt x="574" y="482" on="0"/>
        <pt x="586" y="472" on="0"/>
        <pt x="595" y="455" on="0"/>
        <pt x="595" y="441" on="1"/>
        <pt x="595" y="421" on="0"/>
        <pt x="566" y="385" on="0"/>
        <pt x="543" y="385" on="1"/>
        <pt x="534" y="385" on="0"/>
        <pt x="525" y="389" on="0"/>
        <pt x="514" y="396" on="1"/>
        <pt x="375" y="485" on="1"/>
      </contour>
    </TTGlyph>
    <TTGlyph name="at" xMin="84" yMin="-7" xMax="983" yMax="701">
      <contour>
        <pt x="803" y="226" on="1"/>
        <pt x="803" y="222" on="0"/>
        <pt x="804" y="204" on="0"/>
        <pt x="810" y="188" on="0"/>
        <pt x="822" y="175" on="0"/>
        <pt x="834" y="175" on="1"/>
        <pt x="861" y="175" on="0"/>
        <pt x="893" y="217" on="0"/>
        <pt x="908" y="272" on="0"/>
        <pt x="912" y="328" on="0"/>
        <pt x="912" y="343" on="1"/>
        <pt x="912" y="409" on="0"/>
        <pt x="863" y="522" on="0"/>
        <pt x="767" y="604" on="0"/>
        <pt x="625" y="650" on="0"/>
        <pt x="533" y="650" on="1"/>
        <pt x="436" y="650" on="0"/>
        <pt x="294" y="600" on="0"/>
        <pt x="201" y="517" on="0"/>
        <pt x="155" y="407" on="0"/>
        <pt x="155" y="347" on="1"/>
        <pt x="155" y="295" on="0"/>
        <pt x="193" y="188" on="0"/>
        <pt x="283" y="100" on="0"/>
        <pt x="430" y="44" on="0"/>
        <pt x="538" y="44" on="1"/>
        <pt x="626" y="44" on="0"/>
        <pt x="802" y="72" on="0"/>
        <pt x="877" y="96" on="1"/>
        <pt x="887" y="99" on="0"/>
        <pt x="898" y="103" on="0"/>
        <pt x="907" y="105" on="0"/>
        <pt x="914" y="105" on="0"/>
        <pt x="920" y="105" on="1"/>
        <pt x="949" y="105" on="1"/>
        <pt x="960" y="105" on="0"/>
        <pt x="983" y="100" on="0"/>
        <pt x="983" y="84" on="1"/>
        <pt x="983" y="82" on="0"/>
        <pt x="981" y="72" on="0"/>
        <pt x="973" y="67" on="1"/>
        <pt x="972" y="66" on="0"/>
        <pt x="904" y="43" on="0"/>
        <pt x="787" y="16" on="0"/>
        <pt x="629" y="-7" on="0"/>
        <pt x="538" y="-7" on="1"/>
        <pt x="410" y="-7" on="0"/>
        <pt x="236" y="59" on="0"/>
        <pt x="130" y="162" on="0"/>
        <pt x="84" y="288" on="0"/>
        <pt x="84" y="347" on="1"/>
        <pt x="84" y="412" on="0"/>
        <pt x="135" y="538" on="0"/>
        <pt x="243" y="639" on="0"/>
        <pt x="414" y="701" on="0"/>
        <pt x="534" y="701" on="1"/>
        <pt x="650" y="701" on="0"/>
        <pt x="820" y="641" on="0"/>
        <pt x="930" y="542" on="0"/>
        <pt x="983" y="414" on="0"/>
        <pt x="983" y="346" on="1"/>
        <pt x="983" y="313" on="0"/>
        <pt x="968" y="236" on="0"/>
        <pt x="931" y="169" on="0"/>
        <pt x="870" y="124" on="0"/>
        <pt x="823" y="124" on="1"/>
        <pt x="817" y="124" on="0"/>
        <pt x="783" y="125" on="0"/>
        <pt x="743" y="134" on="0"/>
        <pt x="703" y="152" on="0"/>
        <pt x="689" y="169" on="1"/>
        <pt x="645" y="139" on="0"/>
        <pt x="561" y="124" on="0"/>
        <pt x="532" y="124" on="1"/>
        <pt x="466" y="124" on="0"/>
        <pt x="366" y="160" on="0"/>
        <pt x="299" y="221" on="0"/>
        <pt x="264" y="302" on="0"/>
        <pt x="264" y="347" on="1"/>
        <pt x="264" y="392" on="0"/>
        <pt x="298" y="472" on="0"/>
        <pt x="365" y="534" on="0"/>
        <pt x="466" y="570" on="0"/>
        <pt x="532" y="570" on="1"/>
        <pt x="595" y="570" on="0"/>
        <pt x="695" y="529" on="0"/>
        <pt x="727" y="487" on="1"/>
        <pt x="766" y="487" on="1"/>
        <pt x="792" y="487" on="0"/>
        <pt x="803" y="474" on="0"/>
        <pt x="803" y="452" on="1"/>
      </contour>
      <contour>
        <pt x="673" y="454" on="1"/>
        <pt x="648" y="489" on="0"/>
        <pt x="573" y="519" on="0"/>
        <pt x="535" y="519" on="1"/>
        <pt x="475" y="519" on="0"/>
        <pt x="394" y="432" on="0"/>
        <pt x="394" y="347" on="1"/>
        <pt x="394" y="262" on="0"/>
        <pt x="473" y="175" on="0"/>
        <pt x="535" y="175" on="1"/>
        <pt x="550" y="175" on="0"/>
        <pt x="586" y="180" on="0"/>
        <pt x="623" y="195" on="0"/>
        <pt x="659" y="220" on="0"/>
        <pt x="673" y="240" on="1"/>
      </contour>
    </TTGlyph>
    <TTGlyph name="b" xMin="66" yMin="-7" xMax="713" yMax="694">
      <contour>
        <pt x="258" y="407" on="1"/>
        <pt x="260" y="409" on="0"/>
        <pt x="286" y="423" on="0"/>
        <pt x="331" y="438" on="0"/>
        <pt x="394" y="451" on="0"/>
        <pt x="433" y="451" on="1"/>
        <pt x="505" y="451" on="0"/>
        <pt x="611" y="412" on="0"/>
        <pt x="680" y="348" on="0"/>
        <pt x="713" y="266" on="0"/>
        <pt x="713" y="223" on="1"/>
        <pt x="713" y="176" on="0"/>
        <pt x="675" y="93" on="0"/>
        <pt x="600" y="30" on="0"/>
        <pt x="490" y="-7" on="0"/>
        <pt x="418" y="-7" on="1"/>
        <pt x="369" y="-7" on="0"/>
        <pt x="282" y="22" on="0"/>
        <pt x="244" y="54" on="1"/>
        <pt x="238" y="46" on="0"/>
        <pt x="215" y="14" on="0"/>
        <pt x="206" y="0" on="1"/>
        <pt x="135" y="0" on="1"/>
        <pt x="135" y="587" on="1"/>
        <pt x="135" y="602" on="0"/>
        <pt x="131" y="617" on="0"/>
        <pt x="117" y="625" on="0"/>
        <pt x="89" y="626" on="0"/>
        <pt x="66" y="626" on="1"/>
        <pt x="66" y="686" on="1"/>
        <pt x="258" y="694" on="1"/>
      </contour>
      <contour>
        <pt x="265" y="121" on="1"/>
        <pt x="270" y="113" on="0"/>
        <pt x="293" y="87" on="0"/>
        <pt x="328" y="62" on="0"/>
        <pt x="377" y="44" on="0"/>
        <pt x="408" y="44" on="1"/>
        <pt x="468" y="44" on="0"/>
        <pt x="534" y="85" on="0"/>
        <pt x="564" y="142" on="0"/>
        <pt x="569" y="203" on="0"/>
        <pt x="569" y="224" on="1"/>
        <pt x="569" y="245" on="0"/>
        <pt x="564" y="306" on="0"/>
        <pt x="536" y="361" on="0"/>
        <pt x="476" y="400" on="0"/>
        <pt x="420" y="400" on="1"/>
        <pt x="390" y="400" on="0"/>
        <pt x="339" y="386" on="0"/>
        <pt x="300" y="367" on="0"/>
        <pt x="272" y="344" on="0"/>
        <pt x="265" y="335" on="1"/>
      </contour>
    </TTGlyph>
    <TTGlyph name="bracketleft" xMin="156" yMin="-250" xMax="355" yMax="750">
      <contour>
        <pt x="235" y="671" on="1"/>
        <pt x="235" y="-171" on="1"/>
        <pt x="355" y="-171" on="1"/>
        <pt x="355" y="-250" on="1"/>
        <pt x="156" y="-250" on="1"/>
        <pt x="156" y="750" on="1"/>
        <pt x="355" y="750" on="1"/>
        <pt x="355" y="671" on="1"/>
      </contour>
    </TTGlyph>
    <TTGlyph name="bracketright" xMin="38" yMin="-250" xMax="237" yMax="750">
      <contour>
        <pt x="237" y="-250" on="1"/>
        <pt x="38" y="-250" on="1"/>
        <pt x="38" y="-171" on="1"/>
        <pt x="158" y="-171" on="1"/>
        <pt x="158" y="671" on="1"/>
        <pt x="38" y="671" on="1"/>
        <pt x="38" y="750" on="1"/>
        <pt x="237" y="750" on="1"/>
      </contour>
    </TTGlyph>
    <TTGlyph name="breve" xMin="133" yMin="504" xMax="559" yMax="694">
      <contour>
        <pt x="559" y="694" on="1"/>
        <pt x="558" y="648" on="0"/>
        <pt x="519" y="577" on="0"/>
        <pt x="459" y="529" on="0"/>
        <pt x="384" y="504" on="0"/>
        <pt x="346" y="504" on="1"/>
        <pt x="308" y="504" on="0"/>
        <pt x="233" y="529" on="0"/>
        <pt x="173" y="577" on="0"/>
        <pt x="134" y="648" on="0"/>
        <pt x="133" y="694" on="1"/>
        <pt x="184" y="694" on="1"/>
        <pt x="185" y="662" on="0"/>
        <pt x="219" y="618" on="0"/>
        <pt x="267" y="592" on="0"/>
        <pt x="323" y="581" on="0"/>
        <pt x="346" y="581" on="1"/>
        <pt x="369" y="581" on="0"/>
        <pt x="425" y="592" on="0"/>
        <pt x="473" y="618" on="0"/>
        <pt x="507" y="662" on="0"/>
        <pt x="508" y="694" on="1"/>
      </contour>
    </TTGlyph>
    <TTGlyph name="c" xMin="54" yMin="-7" xMax="571" yMax="455">
      <contour>
        <pt x="425" y="395" on="1"/>
        <pt x="404" y="398" on="0"/>
        <pt x="375" y="399" on="0"/>
        <pt x="356" y="399" on="1"/>
        <pt x="305" y="399" on="0"/>
        <pt x="243" y="370" on="0"/>
        <pt x="209" y="321" on="0"/>
        <pt x="198" y="258" on="0"/>
        <pt x="198" y="225" on="1"/>
        <pt x="198" y="200" on="0"/>
        <pt x="209" y="138" on="0"/>
        <pt x="245" y="85" on="0"/>
        <pt x="313" y="49" on="0"/>
        <pt x="370" y="49" on="1"/>
        <pt x="406" y="49" on="0"/>
        <pt x="454" y="66" on="0"/>
        <pt x="483" y="89" on="0"/>
        <pt x="498" y="113" on="0"/>
        <pt x="502" y="121" on="1"/>
        <pt x="507" y="131" on="0"/>
        <pt x="521" y="134" on="0"/>
        <pt x="535" y="134" on="1"/>
        <pt x="547" y="134" on="0"/>
        <pt x="571" y="129" on="0"/>
        <pt x="571" y="113" on="1"/>
        <pt x="571" y="109" on="0"/>
        <pt x="562" y="87" on="0"/>
        <pt x="542" y="60" on="0"/>
        <pt x="513" y="32" on="0"/>
        <pt x="492" y="21" on="1"/>
        <pt x="473" y="11" on="0"/>
        <pt x="431" y="0" on="0"/>
        <pt x="392" y="-6" on="0"/>
        <pt x="358" y="-7" on="0"/>
        <pt x="346" y="-7" on="1"/>
        <pt x="269" y="-7" on="0"/>
        <pt x="158" y="33" on="0"/>
        <pt x="87" y="98" on="0"/>
        <pt x="54" y="180" on="0"/>
        <pt x="54" y="222" on="1"/>
        <pt x="54" y="254" on="0"/>
        <pt x="79" y="335" on="0"/>
        <pt x="145" y="406" on="0"/>
        <pt x="262" y="455" on="0"/>
        <pt x="353" y="455" on="1"/>
        <pt x="377" y="455" on="0"/>
        <pt x="447" y="451" on="0"/>
        <pt x="511" y="431" on="0"/>
        <pt x="556" y="389" on="0"/>
        <pt x="556" y="351" on="1"/>
        <pt x="556" y="333" on="0"/>
        <pt x="543" y="305" on="0"/>
        <pt x="522" y="287" on="0"/>
        <pt x="496" y="278" on="0"/>
        <pt x="484" y="278" on="1"/>
        <pt x="457" y="278" on="0"/>
        <pt x="412" y="316" on="0"/>
        <pt x="412" y="350" on="1"/>
        <pt x="412" y="376" on="0"/>
      </contour>
    </TTGlyph>
    <TTGlyph name="caron" xMin="164" yMin="514" xMax="528" yMax="665">
      <contour>
        <pt x="500" y="665" on="1"/>
        <pt x="528" y="599" on="1"/>
        <pt x="346" y="514" on="1"/>
        <pt x="164" y="599" on="1"/>
        <pt x="192" y="665" on="1"/>
        <pt x="346" y="611" on="1"/>
      </contour>
    </TTGlyph>
    <TTGlyph name="cedilla" xMin="169" yMin="-210" xMax="523" yMax="-11">
      <contour>
        <pt x="411" y="-18" on="1"/>
        <pt x="433" y="-21" on="0"/>
        <pt x="474" y="-33" on="0"/>
        <pt x="505" y="-55" on="0"/>
        <pt x="523" y="-87" on="0"/>
        <pt x="523" y="-109" on="1"/>
        <pt x="523" y="-154" on="0"/>
        <pt x="429" y="-198" on="0"/>
        <pt x="335" y="-206" on="1"/>
        <pt x="314" y="-208" on="0"/>
        <pt x="271" y="-208" on="0"/>
        <pt x="249" y="-208" on="1"/>
        <pt x="228" y="-208" on="0"/>
        <pt x="188" y="-208" on="0"/>
        <pt x="169" y="-210" on="1"/>
        <pt x="169" y="-159" on="1"/>
        <pt x="201" y="-157" on="0"/>
        <pt x="263" y="-158" on="0"/>
        <pt x="296" y="-155" on="1"/>
        <pt x="332" y="-152" on="0"/>
        <pt x="372" y="-140" on="0"/>
        <pt x="390" y="-127" on="0"/>
        <pt x="393" y="-114" on="0"/>
        <pt x="393" y="-109" on="1"/>
        <pt x="393" y="-92" on="0"/>
        <pt x="371" y="-74" on="0"/>
        <pt x="338" y="-65" on="0"/>
        <pt x="298" y="-63" on="0"/>
        <pt x="281" y="-63" on="1"/>
        <pt x="281" y="-11" on="1"/>
        <pt x="363" y="-14" on="1"/>
      </contour>
    </TTGlyph>
    <TTGlyph name="circumflex" xMin="160" yMin="514" xMax="532" yMax="694">
      <contour>
        <pt x="532" y="575" on="1"/>
        <pt x="496" y="514" on="1"/>
        <pt x="346" y="596" on="1"/>
        <pt x="196" y="514" on="1"/>
        <pt x="160" y="575" on="1"/>
        <pt x="346" y="694" on="1"/>
      </contour>
    </TTGlyph>
    <TTGlyph name="colon" xMin="113" yMin="0" xMax="280" yMax="444">
      <contour>
        <pt x="280" y="360" on="1"/>
        <pt x="280" y="344" on="0"/>
        <pt x="267" y="314" on="0"/>
        <pt x="245" y="291" on="0"/>
        <pt x="214" y="277" on="0"/>
        <pt x="196" y="277" on="1"/>
        <pt x="180" y="277" on="0"/>
        <pt x="150" y="290" on="0"/>
        <pt x="127" y="312" on="0"/>
        <pt x="113" y="343" on="0"/>
        <pt x="113" y="361" on="1"/>
        <pt x="113" y="377" on="0"/>
        <pt x="126" y="407" on="0"/>
        <pt x="148" y="430" on="0"/>
        <pt x="179" y="444" on="0"/>
        <pt x="197" y="444" on="1"/>
        <pt x="213" y="444" on="0"/>
        <pt x="243" y="431" on="0"/>
        <pt x="266" y="409" on="0"/>
        <pt x="280" y="378" on="0"/>
      </contour>
      <contour>
        <pt x="280" y="83" on="1"/>
        <pt x="280" y="67" on="0"/>
        <pt x="267" y="37" on="0"/>
        <pt x="245" y="14" on="0"/>
        <pt x="214" y="0" on="0"/>
        <pt x="196" y="0" on="1"/>
        <pt x="180" y="0" on="0"/>
        <pt x="150" y="13" on="0"/>
        <pt x="127" y="35" on="0"/>
        <pt x="113" y="66" on="0"/>
        <pt x="113" y="84" on="1"/>
        <pt x="113" y="100" on="0"/>
        <pt x="126" y="130" on="0"/>
        <pt x="148" y="153" on="0"/>
        <pt x="179" y="167" on="0"/>
        <pt x="197" y="167" on="1"/>
        <pt x="213" y="167" on="0"/>
        <pt x="243" y="154" on="0"/>
        <pt x="266" y="132" on="0"/>
        <pt x="280" y="101" on="0"/>
      </contour>
    </TTGlyph>
    <TTGlyph name="comma" xMin="113" yMin="-194" xMax="295" yMax="167">
      <contour>
        <pt x="242" y="12" on="1"/>
        <pt x="237" y="9" on="0"/>
        <pt x="213" y="0" on="0"/>
        <pt x="197" y="0" on="1"/>
        <pt x="159" y="0" on="0"/>
        <pt x="113" y="49" on="0"/>
        <pt x="113" y="84" on="1"/>
        <pt x="113" y="118" on="0"/>
        <pt x="158" y="167" on="0"/>
        <pt x="196" y="167" on="1"/>
        <pt x="219" y="167" on="0"/>
        <pt x="255" y="147" on="0"/>
        <pt x="281" y="112" on="0"/>
        <pt x="295" y="64" on="0"/>
        <pt x="295" y="36" on="1"/>
        <pt x="295" y="-18" on="0"/>
        <pt x="259" y="-103" on="0"/>
        <pt x="213" y="-162" on="0"/>
        <pt x="170" y="-194" on="0"/>
        <pt x="162" y="-194" on="1"/>
        <pt x="153" y="-194" on="0"/>
        <pt x="135" y="-176" on="0"/>
        <pt x="135" y="-167" on="1"/>
        <pt x="135" y="-159" on="0"/>
        <pt x="142" y="-151" on="0"/>
        <pt x="147" y="-148" on="1"/>
        <pt x="198" y="-111" on="0"/>
        <pt x="238" y="-26" on="0"/>
      </contour>
    </TTGlyph>
    <TTGlyph name="d" xMin="54" yMin="-7" xMax="701" yMax="694">
      <contour>
        <pt x="632" y="694" on="1"/>
        <pt x="632" y="99" on="1"/>
        <pt x="632" y="84" on="0"/>
        <pt x="636" y="69" on="0"/>
        <pt x="650" y="61" on="0"/>
        <pt x="678" y="60" on="0"/>
        <pt x="701" y="60" on="1"/>
        <pt x="701" y="0" on="1"/>
        <pt x="502" y="-7" on="1"/>
        <pt x="502" y="41" on="1"/>
        <pt x="473" y="22" on="0"/>
        <pt x="389" y="-7" on="0"/>
        <pt x="334" y="-7" on="1"/>
        <pt x="264" y="-7" on="0"/>
        <pt x="159" y="31" on="0"/>
        <pt x="89" y="94" on="0"/>
        <pt x="54" y="176" on="0"/>
        <pt x="54" y="221" on="1"/>
        <pt x="54" y="268" on="0"/>
        <pt x="91" y="351" on="0"/>
        <pt x="165" y="414" on="0"/>
        <pt x="275" y="451" on="0"/>
        <pt x="348" y="451" on="1"/>
        <pt x="407" y="451" on="0"/>
        <pt x="487" y="423" on="0"/>
        <pt x="509" y="409" on="1"/>
        <pt x="509" y="587" on="1"/>
        <pt x="509" y="602" on="0"/>
        <pt x="505" y="617" on="0"/>
        <pt x="491" y="625" on="0"/>
        <pt x="463" y="626" on="0"/>
        <pt x="440" y="626" on="1"/>
        <pt x="440" y="686" on="1"/>
      </contour>
      <contour>
        <pt x="502" y="319" on="1"/>
        <pt x="502" y="333" on="0"/>
        <pt x="498" y="341" on="0"/>
        <pt x="489" y="350" on="1"/>
        <pt x="469" y="370" on="0"/>
        <pt x="403" y="400" on="0"/>
        <pt x="359" y="400" on="1"/>
        <pt x="299" y="400" on="0"/>
        <pt x="233" y="360" on="0"/>
        <pt x="203" y="303" on="0"/>
        <pt x="198" y="241" on="0"/>
        <pt x="198" y="220" on="1"/>
        <pt x="198" y="199" on="0"/>
        <pt x="203" y="139" on="0"/>
        <pt x="230" y="84" on="0"/>
        <pt x="290" y="44" on="0"/>
        <pt x="345" y="44" on="1"/>
        <pt x="386" y="44" on="0"/>
        <pt x="470" y="80" on="0"/>
        <pt x="502" y="124" on="1"/>
      </contour>
    </TTGlyph>
    <TTGlyph name="dieresis" xMin="139" yMin="543" xMax="553" yMax="695">
      <contour>
        <pt x="291" y="619" on="1"/>
        <pt x="291" y="587" on="0"/>
        <pt x="246" y="543" on="0"/>
        <pt x="215" y="543" on="1"/>
        <pt x="183" y="543" on="0"/>
        <pt x="139" y="589" on="0"/>
        <pt x="139" y="619" on="1"/>
        <pt x="139" y="649" on="0"/>
        <pt x="183" y="695" on="0"/>
        <pt x="215" y="695" on="1"/>
        <pt x="246" y="695" on="0"/>
        <pt x="291" y="651" on="0"/>
      </contour>
      <contour>
        <pt x="553" y="619" on="1"/>
        <pt x="553" y="589" on="0"/>
        <pt x="509" y="543" on="0"/>
        <pt x="477" y="543" on="1"/>
        <pt x="446" y="543" on="0"/>
        <pt x="401" y="587" on="0"/>
        <pt x="401" y="619" on="1"/>
        <pt x="401" y="651" on="0"/>
        <pt x="446" y="695" on="0"/>
        <pt x="477" y="695" on="1"/>
        <pt x="509" y="695" on="0"/>
        <pt x="553" y="649" on="0"/>
      </contour>
    </TTGlyph>
    <TTGlyph name="dollar" xMin="84" yMin="-56" xMax="608" yMax="750">
      <contour>
        <pt x="376" y="433" on="1"/>
        <pt x="391" y="430" on="0"/>
        <pt x="430" y="422" on="0"/>
        <pt x="472" y="407" on="0"/>
        <pt x="517" y="383" on="0"/>
        <pt x="538" y="364" on="1"/>
        <pt x="571" y="333" on="0"/>
        <pt x="608" y="258" on="0"/>
        <pt x="608" y="212" on="1"/>
        <pt x="608" y="175" on="0"/>
        <pt x="582" y="100" on="0"/>
        <pt x="525" y="40" on="0"/>
        <pt x="438" y="-2" on="0"/>
        <pt x="376" y="-6" on="1"/>
        <pt x="376" y="-56" on="1"/>
        <pt x="316" y="-56" on="1"/>
        <pt x="316" y="-6" on="1"/>
        <pt x="254" y="-3" on="0"/>
        <pt x="166" y="32" on="0"/>
        <pt x="110" y="85" on="0"/>
        <pt x="84" y="152" on="0"/>
        <pt x="84" y="188" on="1"/>
        <pt x="84" y="211" on="0"/>
        <pt x="99" y="240" on="0"/>
        <pt x="122" y="257" on="0"/>
        <pt x="147" y="264" on="0"/>
        <pt x="156" y="264" on="1"/>
        <pt x="184" y="264" on="0"/>
        <pt x="228" y="226" on="0"/>
        <pt x="228" y="192" on="1"/>
        <pt x="228" y="164" on="0"/>
        <pt x="197" y="128" on="0"/>
        <pt x="174" y="122" on="1"/>
        <pt x="188" y="101" on="0"/>
        <pt x="227" y="75" on="0"/>
        <pt x="268" y="60" on="0"/>
        <pt x="305" y="55" on="0"/>
        <pt x="316" y="54" on="1"/>
        <pt x="316" y="289" on="1"/>
        <pt x="295" y="293" on="0"/>
        <pt x="253" y="301" on="0"/>
        <pt x="212" y="316" on="0"/>
        <pt x="171" y="339" on="0"/>
        <pt x="151" y="357" on="1"/>
        <pt x="124" y="380" on="0"/>
        <pt x="84" y="448" on="0"/>
        <pt x="84" y="496" on="1"/>
        <pt x="84" y="521" on="0"/>
        <pt x="103" y="587" on="0"/>
        <pt x="154" y="648" on="0"/>
        <pt x="244" y="695" on="0"/>
        <pt x="316" y="700" on="1"/>
        <pt x="316" y="750" on="1"/>
        <pt x="376" y="750" on="1"/>
        <pt x="376" y="700" on="1"/>
        <pt x="401" y="699" on="0"/>
        <pt x="479" y="686" on="0"/>
        <pt x="554" y="648" on="0"/>
        <pt x="608" y="578" on="0"/>
        <pt x="608" y="519" on="1"/>
        <pt x="608" y="498" on="0"/>
        <pt x="594" y="469" on="0"/>
        <pt x="572" y="451" on="0"/>
        <pt x="547" y="444" on="0"/>
        <pt x="536" y="444" on="1"/>
        <pt x="508" y="444" on="0"/>
        <pt x="464" y="482" on="0"/>
        <pt x="464" y="516" on="1"/>
        <pt x="464" y="545" on="0"/>
        <pt x="496" y="580" on="0"/>
        <pt x="515" y="585" on="1"/>
        <pt x="501" y="603" on="0"/>
        <pt x="461" y="624" on="0"/>
        <pt x="420" y="635" on="0"/>
        <pt x="385" y="639" on="0"/>
        <pt x="376" y="640" on="1"/>
      </contour>
      <contour>
        <pt x="316" y="640" on="1"/>
        <pt x="246" y="635" on="0"/>
        <pt x="177" y="578" on="0"/>
        <pt x="177" y="542" on="1"/>
        <pt x="177" y="528" on="0"/>
        <pt x="190" y="499" on="0"/>
        <pt x="221" y="473" on="0"/>
        <pt x="275" y="451" on="0"/>
        <pt x="316" y="444" on="1"/>
      </contour>
      <contour>
        <pt x="376" y="54" on="1"/>
        <pt x="436" y="59" on="0"/>
        <pt x="515" y="118" on="0"/>
        <pt x="515" y="166" on="1"/>
        <pt x="515" y="203" on="0"/>
        <pt x="447" y="266" on="0"/>
        <pt x="376" y="277" on="1"/>
      </contour>
    </TTGlyph>
    <TTGlyph name="dotaccent" xMin="113" yMin="528" xMax="279" yMax="695">
      <contour>
        <pt x="279" y="611" on="1"/>
        <pt x="279" y="595" on="0"/>
        <pt x="266" y="564" on="0"/>
        <pt x="244" y="542" on="0"/>
        <pt x="214" y="528" on="0"/>
        <pt x="196" y="528" on="1"/>
        <pt x="179" y="528" on="0"/>
        <pt x="149" y="541" on="0"/>
        <pt x="126" y="564" on="0"/>
        <pt x="113" y="594" on="0"/>
        <pt x="113" y="612" on="1"/>
        <pt x="113" y="629" on="0"/>
        <pt x="126" y="659" on="0"/>
        <pt x="148" y="681" on="0"/>
        <pt x="178" y="695" on="0"/>
        <pt x="196" y="695" on="1"/>
        <pt x="213" y="695" on="0"/>
        <pt x="244" y="682" on="0"/>
        <pt x="266" y="659" on="0"/>
        <pt x="279" y="629" on="0"/>
      </contour>
    </TTGlyph>
    <TTGlyph name="dotlessi" xMin="80" yMin="0" xMax="335" yMax="451">
      <contour>
        <pt x="272" y="60" on="1"/>
        <pt x="335" y="60" on="1"/>
        <pt x="335" y="0" on="1"/>
        <pt x="322" y="1" on="0"/>
        <pt x="285" y="2" on="0"/>
        <pt x="249" y="3" on="0"/>
        <pt x="218" y="4" on="0"/>
        <pt x="210" y="4" on="1"/>
        <pt x="196" y="4" on="0"/>
        <pt x="158" y="3" on="0"/>
        <pt x="120" y="2" on="0"/>
        <pt x="88" y="0" on="0"/>
        <pt x="80" y="0" on="1"/>
        <pt x="80" y="60" on="1"/>
        <pt x="149" y="60" on="1"/>
        <pt x="149" y="344" on="1"/>
        <pt x="149" y="359" on="0"/>
        <pt x="145" y="374" on="0"/>
        <pt x="131" y="382" on="0"/>
        <pt x="105" y="383" on="0"/>
        <pt x="83" y="383" on="1"/>
        <pt x="83" y="443" on="1"/>
        <pt x="272" y="451" on="1"/>
      </contour>
    </TTGlyph>
    <TTGlyph name="e" xMin="46" yMin="-7" xMax="586" yMax="455">
      <contour>
        <pt x="191" y="204" on="1"/>
        <pt x="192" y="177" on="0"/>
        <pt x="207" y="122" on="0"/>
        <pt x="247" y="77" on="0"/>
        <pt x="317" y="49" on="0"/>
        <pt x="372" y="49" on="1"/>
        <pt x="412" y="49" on="0"/>
        <pt x="465" y="67" on="0"/>
        <pt x="498" y="91" on="0"/>
        <pt x="514" y="116" on="0"/>
        <pt x="517" y="123" on="1"/>
        <pt x="522" y="133" on="0"/>
        <pt x="538" y="136" on="0"/>
        <pt x="550" y="136" on="1"/>
        <pt x="561" y="136" on="0"/>
        <pt x="586" y="130" on="0"/>
        <pt x="586" y="113" on="1"/>
        <pt x="586" y="108" on="0"/>
        <pt x="576" y="85" on="0"/>
        <pt x="555" y="58" on="0"/>
        <pt x="521" y="30" on="0"/>
        <pt x="498" y="20" on="1"/>
        <pt x="459" y="2" on="0"/>
        <pt x="382" y="-7" on="0"/>
        <pt x="353" y="-7" on="1"/>
        <pt x="272" y="-7" on="0"/>
        <pt x="156" y="33" on="0"/>
        <pt x="81" y="99" on="0"/>
        <pt x="46" y="183" on="0"/>
        <pt x="46" y="226" on="1"/>
        <pt x="46" y="267" on="0"/>
        <pt x="78" y="349" on="0"/>
        <pt x="148" y="414" on="0"/>
        <pt x="258" y="455" on="0"/>
        <pt x="335" y="455" on="1"/>
        <pt x="388" y="455" on="0"/>
        <pt x="480" y="430" on="0"/>
        <pt x="548" y="376" on="0"/>
        <pt x="586" y="293" on="0"/>
        <pt x="586" y="235" on="1"/>
        <pt x="586" y="212" on="0"/>
        <pt x="566" y="204" on="0"/>
        <pt x="550" y="204" on="1"/>
      </contour>
      <contour>
        <pt x="486" y="251" on="1"/>
        <pt x="482" y="324" on="0"/>
        <pt x="410" y="404" on="0"/>
        <pt x="335" y="404" on="1"/>
        <pt x="291" y="404" on="0"/>
        <pt x="235" y="376" on="0"/>
        <pt x="203" y="331" on="0"/>
        <pt x="191" y="277" on="0"/>
        <pt x="190" y="251" on="1"/>
      </contour>
    </TTGlyph>
    <TTGlyph name="eight" xMin="65" yMin="-14" xMax="627" yMax="658">
      <contour>
        <pt x="482" y="368" on="1"/>
        <pt x="497" y="361" on="0"/>
        <pt x="546" y="334" on="0"/>
        <pt x="593" y="291" on="0"/>
        <pt x="627" y="229" on="0"/>
        <pt x="627" y="187" on="1"/>
        <pt x="627" y="147" on="0"/>
        <pt x="596" y="75" on="0"/>
        <pt x="528" y="19" on="0"/>
        <pt x="420" y="-14" on="0"/>
        <pt x="343" y="-14" on="1"/>
        <pt x="320" y="-14" on="0"/>
        <pt x="261" y="-10" on="0"/>
        <pt x="200" y="2" on="0"/>
        <pt x="140" y="25" on="0"/>
        <pt x="94" y="64" on="0"/>
        <pt x="65" y="122" on="0"/>
        <pt x="65" y="163" on="1"/>
        <pt x="65" y="204" on="0"/>
        <pt x="94" y="261" on="0"/>
        <pt x="136" y="300" on="0"/>
        <pt x="183" y="325" on="0"/>
        <pt x="201" y="333" on="1"/>
        <pt x="159" y="356" on="0"/>
        <pt x="103" y="430" on="0"/>
        <pt x="103" y="479" on="1"/>
        <pt x="103" y="513" on="0"/>
        <pt x="129" y="578" on="0"/>
        <pt x="187" y="628" on="0"/>
        <pt x="281" y="658" on="0"/>
        <pt x="349" y="658" on="1"/>
        <pt x="363" y="658" on="0"/>
        <pt x="410" y="656" on="0"/>
        <pt x="463" y="647" on="0"/>
        <pt x="518" y="629" on="0"/>
        <pt x="561" y="595" on="0"/>
        <pt x="589" y="544" on="0"/>
        <pt x="589" y="507" on="1"/>
        <pt x="589" y="480" on="0"/>
        <pt x="572" y="438" on="0"/>
        <pt x="542" y="405" on="0"/>
        <pt x="503" y="379" on="0"/>
      </contour>
      <contour>
        <pt x="415" y="400" on="1"/>
        <pt x="461" y="422" on="0"/>
        <pt x="496" y="476" on="0"/>
        <pt x="496" y="506" on="1"/>
        <pt x="496" y="534" on="0"/>
        <pt x="473" y="573" on="0"/>
        <pt x="431" y="597" on="0"/>
        <pt x="375" y="608" on="0"/>
        <pt x="342" y="608" on="1"/>
        <pt x="260" y="608" on="0"/>
        <pt x="196" y="569" on="0"/>
        <pt x="196" y="536" on="1"/>
        <pt x="196" y="524" on="0"/>
        <pt x="206" y="507" on="0"/>
        <pt x="227" y="490" on="0"/>
        <pt x="261" y="473" on="0"/>
        <pt x="285" y="461" on="1"/>
        <pt x="307" y="451" on="0"/>
        <pt x="341" y="434" on="0"/>
        <pt x="371" y="420" on="0"/>
        <pt x="400" y="407" on="0"/>
      </contour>
      <contour>
        <pt x="274" y="297" on="1"/>
        <pt x="260" y="291" on="0"/>
        <pt x="225" y="270" on="0"/>
        <pt x="194" y="238" on="0"/>
        <pt x="173" y="194" on="0"/>
        <pt x="173" y="164" on="1"/>
        <pt x="173" y="129" on="0"/>
        <pt x="203" y="82" on="0"/>
        <pt x="252" y="53" on="0"/>
        <pt x="315" y="41" on="0"/>
        <pt x="349" y="41" on="1"/>
        <pt x="381" y="41" on="0"/>
        <pt x="442" y="49" on="0"/>
        <pt x="490" y="70" on="0"/>
        <pt x="519" y="107" on="0"/>
        <pt x="519" y="135" on="1"/>
        <pt x="519" y="152" on="0"/>
        <pt x="504" y="178" on="0"/>
        <pt x="480" y="198" on="0"/>
        <pt x="447" y="215" on="0"/>
        <pt x="429" y="223" on="1"/>
      </contour>
    </TTGlyph>
    <TTGlyph name="emdash" xMin="18" yMin="249" xMax="1367" yMax="300">
      <contour>
        <pt x="18" y="249" on="1"/>
        <pt x="18" y="300" on="1"/>
        <pt x="1367" y="300" on="1"/>
        <pt x="1367" y="249" on="1"/>
      </contour>
    </TTGlyph>
    <TTGlyph name="endash" xMin="9" yMin="249" xMax="683" yMax="300">
      <contour>
        <pt x="9" y="249" on="1"/>
        <pt x="9" y="300" on="1"/>
        <pt x="683" y="300" on="1"/>
        <pt x="683" y="249" on="1"/>
      </contour>
    </TTGlyph>
    <TTGlyph name="equal" xMin="84" yMin="82" xMax="983" yMax="419">
      <contour>
        <pt x="135" y="340" on="1"/>
        <pt x="131" y="340" on="0"/>
        <pt x="114" y="341" on="0"/>
        <pt x="97" y="349" on="0"/>
        <pt x="84" y="365" on="0"/>
        <pt x="84" y="380" on="1"/>
        <pt x="84" y="395" on="0"/>
        <pt x="97" y="410" on="0"/>
        <pt x="114" y="418" on="0"/>
        <pt x="131" y="419" on="0"/>
        <pt x="135" y="419" on="1"/>
        <pt x="932" y="419" on="1"/>
        <pt x="936" y="419" on="0"/>
        <pt x="953" y="418" on="0"/>
        <pt x="970" y="410" on="0"/>
        <pt x="983" y="395" on="0"/>
        <pt x="983" y="380" on="1"/>
        <pt x="983" y="365" on="0"/>
        <pt x="970" y="349" on="0"/>
        <pt x="954" y="341" on="0"/>
        <pt x="937" y="340" on="0"/>
        <pt x="932" y="340" on="1"/>
      </contour>
      <contour>
        <pt x="135" y="82" on="1"/>
        <pt x="131" y="82" on="0"/>
        <pt x="114" y="83" on="0"/>
        <pt x="97" y="91" on="0"/>
        <pt x="84" y="106" on="0"/>
        <pt x="84" y="121" on="1"/>
        <pt x="84" y="136" on="0"/>
        <pt x="97" y="152" on="0"/>
        <pt x="113" y="160" on="0"/>
        <pt x="131" y="161" on="0"/>
        <pt x="135" y="161" on="1"/>
        <pt x="932" y="161" on="1"/>
        <pt x="936" y="161" on="0"/>
        <pt x="953" y="160" on="0"/>
        <pt x="970" y="152" on="0"/>
        <pt x="983" y="136" on="0"/>
        <pt x="983" y="121" on="1"/>
        <pt x="983" y="106" on="0"/>
        <pt x="970" y="91" on="0"/>
        <pt x="953" y="83" on="0"/>
        <pt x="936" y="82" on="0"/>
        <pt x="932" y="82" on="1"/>
      </contour>
    </TTGlyph>
    <TTGlyph name="exclam" xMin="131" yMin="0" xMax="298" yMax="708">
      <contour>
        <pt x="251" y="265" on="1"/>
        <pt x="249" y="245" on="0"/>
        <pt x="236" y="236" on="0"/>
        <pt x="215" y="236" on="1"/>
        <pt x="191" y="236" on="0"/>
        <pt x="180" y="246" on="0"/>
        <pt x="178" y="266" on="1"/>
        <pt x="134" y="604" on="1"/>
        <pt x="134" y="605" on="0"/>
        <pt x="133" y="612" on="0"/>
        <pt x="132" y="621" on="0"/>
        <pt x="131" y="629" on="0"/>
        <pt x="131" y="630" on="1"/>
        <pt x="131" y="649" on="0"/>
        <pt x="146" y="678" on="0"/>
        <pt x="170" y="698" on="0"/>
        <pt x="200" y="708" on="0"/>
        <pt x="215" y="708" on="1"/>
        <pt x="229" y="708" on="0"/>
        <pt x="258" y="698" on="0"/>
        <pt x="282" y="679" on="0"/>
        <pt x="298" y="650" on="0"/>
        <pt x="298" y="630" on="1"/>
        <pt x="298" y="629" on="0"/>
        <pt x="297" y="621" on="0"/>
        <pt x="296" y="612" on="0"/>
        <pt x="295" y="604" on="0"/>
        <pt x="295" y="604" on="1"/>
      </contour>
      <contour>
        <pt x="298" y="83" on="1"/>
        <pt x="298" y="67" on="0"/>
        <pt x="286" y="37" on="0"/>
        <pt x="263" y="14" on="0"/>
        <pt x="232" y="0" on="0"/>
        <pt x="214" y="0" on="1"/>
        <pt x="198" y="0" on="0"/>
        <pt x="168" y="12" on="0"/>
        <pt x="145" y="35" on="0"/>
        <pt x="131" y="66" on="0"/>
        <pt x="131" y="84" on="1"/>
        <pt x="131" y="100" on="0"/>
        <pt x="143" y="130" on="0"/>
        <pt x="166" y="153" on="0"/>
        <pt x="197" y="167" on="0"/>
        <pt x="215" y="167" on="1"/>
        <pt x="231" y="167" on="0"/>
        <pt x="261" y="155" on="0"/>
        <pt x="284" y="132" on="0"/>
        <pt x="298" y="101" on="0"/>
      </contour>
    </TTGlyph>
    <TTGlyph name="exclamdown" xMin="131" yMin="-208" xMax="298" yMax="500">
      <contour>
        <pt x="298" y="416" on="1"/>
        <pt x="298" y="400" on="0"/>
        <pt x="286" y="370" on="0"/>
        <pt x="263" y="347" on="0"/>
        <pt x="232" y="333" on="0"/>
        <pt x="214" y="333" on="1"/>
        <pt x="198" y="333" on="0"/>
        <pt x="168" y="345" on="0"/>
        <pt x="145" y="368" on="0"/>
        <pt x="131" y="399" on="0"/>
        <pt x="131" y="417" on="1"/>
        <pt x="131" y="433" on="0"/>
        <pt x="143" y="463" on="0"/>
        <pt x="166" y="486" on="0"/>
        <pt x="197" y="500" on="0"/>
        <pt x="215" y="500" on="1"/>
        <pt x="231" y="500" on="0"/>
        <pt x="261" y="488" on="0"/>
        <pt x="284" y="465" on="0"/>
        <pt x="298" y="434" on="0"/>
      </contour>
      <contour>
        <pt x="178" y="235" on="1"/>
        <pt x="180" y="255" on="0"/>
        <pt x="193" y="264" on="0"/>
        <pt x="214" y="264" on="1"/>
        <pt x="238" y="264" on="0"/>
        <pt x="249" y="254" on="0"/>
        <pt x="251" y="234" on="1"/>
        <pt x="295" y="-104" on="1"/>
        <pt x="295" y="-105" on="0"/>
        <pt x="296" y="-112" on="0"/>
        <pt x="297" y="-121" on="0"/>
        <pt x="298" y="-129" on="0"/>
        <pt x="298" y="-130" on="1"/>
        <pt x="298" y="-149" on="0"/>
        <pt x="283" y="-178" on="0"/>
        <pt x="259" y="-198" on="0"/>
        <pt x="229" y="-208" on="0"/>
        <pt x="214" y="-208" on="1"/>
        <pt x="200" y="-208" on="0"/>
        <pt x="171" y="-198" on="0"/>
        <pt x="147" y="-179" on="0"/>
        <pt x="131" y="-150" on="0"/>
        <pt x="131" y="-130" on="1"/>
        <pt x="131" y="-129" on="0"/>
        <pt x="132" y="-121" on="0"/>
        <pt x="133" y="-112" on="0"/>
        <pt x="134" y="-104" on="0"/>
        <pt x="134" y="-104" on="1"/>
      </contour>
    </TTGlyph>
    <TTGlyph name="f" xMin="60" yMin="0" xMax="520" yMax="701">
      <contour>
        <pt x="273" y="60" on="1"/>
        <pt x="360" y="60" on="1"/>
        <pt x="360" y="0" on="1"/>
        <pt x="354" y="0" on="0"/>
        <pt x="320" y="2" on="0"/>
        <pt x="278" y="3" on="0"/>
        <pt x="232" y="4" on="0"/>
        <pt x="214" y="4" on="1"/>
        <pt x="201" y="4" on="0"/>
        <pt x="163" y="3" on="0"/>
        <pt x="125" y="2" on="0"/>
        <pt x="91" y="1" on="0"/>
        <pt x="81" y="0" on="1"/>
        <pt x="81" y="60" on="1"/>
        <pt x="150" y="60" on="1"/>
        <pt x="150" y="384" on="1"/>
        <pt x="60" y="384" on="1"/>
        <pt x="60" y="444" on="1"/>
        <pt x="150" y="444" on="1"/>
        <pt x="150" y="535" on="1"/>
        <pt x="150" y="582" on="0"/>
        <pt x="194" y="646" on="0"/>
        <pt x="262" y="685" on="0"/>
        <pt x="347" y="701" on="0"/>
        <pt x="387" y="701" on="1"/>
        <pt x="421" y="701" on="0"/>
        <pt x="471" y="684" on="0"/>
        <pt x="504" y="657" on="0"/>
        <pt x="520" y="623" on="0"/>
        <pt x="520" y="605" on="1"/>
        <pt x="520" y="570" on="0"/>
        <pt x="475" y="534" on="0"/>
        <pt x="449" y="534" on="1"/>
        <pt x="437" y="534" on="0"/>
        <pt x="413" y="543" on="0"/>
        <pt x="392" y="560" on="0"/>
        <pt x="379" y="587" on="0"/>
        <pt x="379" y="605" on="1"/>
        <pt x="379" y="614" on="0"/>
        <pt x="384" y="634" on="0"/>
        <pt x="389" y="642" on="1"/>
        <pt x="391" y="646" on="0"/>
        <pt x="391" y="648" on="1"/>
        <pt x="391" y="649" on="0"/>
        <pt x="388" y="650" on="0"/>
        <pt x="380" y="650" on="1"/>
        <pt x="323" y="650" on="0"/>
        <pt x="266" y="590" on="0"/>
        <pt x="266" y="534" on="1"/>
        <pt x="266" y="444" on="1"/>
        <pt x="410" y="444" on="1"/>
        <pt x="410" y="384" on="1"/>
        <pt x="273" y="384" on="1"/>
      </contour>
    </TTGlyph>
    <TTGlyph name="f_f" xMin="45" yMin="0" xMax="899" yMax="701">
      <contour>
        <pt x="651" y="60" on="1"/>
        <pt x="738" y="60" on="1"/>
        <pt x="738" y="0" on="1"/>
        <pt x="732" y="0" on="0"/>
        <pt x="698" y="2" on="0"/>
        <pt x="656" y="3" on="0"/>
        <pt x="610" y="4" on="0"/>
        <pt x="592" y="4" on="1"/>
        <pt x="579" y="4" on="0"/>
        <pt x="541" y="3" on="0"/>
        <pt x="503" y="2" on="0"/>
        <pt x="469" y="1" on="0"/>
        <pt x="459" y="0" on="1"/>
        <pt x="459" y="60" on="1"/>
        <pt x="528" y="60" on="1"/>
        <pt x="528" y="384" on="1"/>
        <pt x="258" y="384" on="1"/>
        <pt x="258" y="60" on="1"/>
        <pt x="327" y="60" on="1"/>
        <pt x="327" y="0" on="1"/>
        <pt x="318" y="1" on="0"/>
        <pt x="286" y="2" on="0"/>
        <pt x="248" y="3" on="0"/>
        <pt x="210" y="4" on="0"/>
        <pt x="196" y="4" on="1"/>
        <pt x="182" y="4" on="0"/>
        <pt x="144" y="3" on="0"/>
        <pt x="106" y="2" on="0"/>
        <pt x="74" y="0" on="0"/>
        <pt x="66" y="0" on="1"/>
        <pt x="66" y="60" on="1"/>
        <pt x="135" y="60" on="1"/>
        <pt x="135" y="384" on="1"/>
        <pt x="45" y="384" on="1"/>
        <pt x="45" y="444" on="1"/>
        <pt x="135" y="444" on="1"/>
        <pt x="135" y="536" on="1"/>
        <pt x="135" y="586" on="0"/>
        <pt x="198" y="650" on="0"/>
        <pt x="294" y="687" on="0"/>
        <pt x="407" y="701" on="0"/>
        <pt x="457" y="701" on="1"/>
        <pt x="467" y="701" on="0"/>
        <pt x="502" y="700" on="0"/>
        <pt x="544" y="693" on="0"/>
        <pt x="587" y="679" on="0"/>
        <pt x="605" y="665" on="1"/>
        <pt x="636" y="683" on="0"/>
        <pt x="720" y="701" on="0"/>
        <pt x="765" y="701" on="1"/>
        <pt x="800" y="701" on="0"/>
        <pt x="850" y="684" on="0"/>
        <pt x="883" y="657" on="0"/>
        <pt x="899" y="622" on="0"/>
        <pt x="899" y="605" on="1"/>
        <pt x="899" y="570" on="0"/>
        <pt x="854" y="534" on="0"/>
        <pt x="828" y="534" on="1"/>
        <pt x="816" y="534" on="0"/>
        <pt x="792" y="543" on="0"/>
        <pt x="771" y="560" on="0"/>
        <pt x="758" y="587" on="0"/>
        <pt x="758" y="605" on="1"/>
        <pt x="758" y="614" on="0"/>
        <pt x="763" y="634" on="0"/>
        <pt x="768" y="642" on="1"/>
        <pt x="770" y="646" on="0"/>
        <pt x="770" y="648" on="1"/>
        <pt x="770" y="649" on="0"/>
        <pt x="767" y="650" on="0"/>
        <pt x="759" y="650" on="1"/>
        <pt x="703" y="650" on="0"/>
        <pt x="644" y="591" on="0"/>
        <pt x="644" y="536" on="1"/>
        <pt x="644" y="444" on="1"/>
        <pt x="789" y="444" on="1"/>
        <pt x="789" y="384" on="1"/>
        <pt x="651" y="384" on="1"/>
      </contour>
      <contour>
        <pt x="528" y="444" on="1"/>
        <pt x="528" y="536" on="1"/>
        <pt x="511" y="548" on="0"/>
        <pt x="501" y="581" on="0"/>
        <pt x="501" y="592" on="1"/>
        <pt x="501" y="614" on="0"/>
        <pt x="518" y="640" on="0"/>
        <pt x="520" y="642" on="1"/>
        <pt x="517" y="643" on="0"/>
        <pt x="478" y="650" on="0"/>
        <pt x="447" y="650" on="1"/>
        <pt x="416" y="650" on="0"/>
        <pt x="346" y="640" on="0"/>
        <pt x="289" y="614" on="0"/>
        <pt x="251" y="569" on="0"/>
        <pt x="251" y="533" on="1"/>
        <pt x="251" y="444" on="1"/>
      </contour>
    </TTGlyph>
    <TTGlyph name="f_f_i" xMin="45" yMin="0" xMax="1113" yMax="701">
      <contour>
        <pt x="1044" y="453" on="1"/>
        <pt x="1044" y="60" on="1"/>
        <pt x="1113" y="60" on="1"/>
        <pt x="1113" y="0" on="1"/>
        <pt x="1104" y="1" on="0"/>
        <pt x="1072" y="2" on="0"/>
        <pt x="1034" y="3" on="0"/>
        <pt x="996" y="4" on="0"/>
        <pt x="982" y="4" on="1"/>
        <pt x="968" y="4" on="0"/>
        <pt x="930" y="3" on="0"/>
        <pt x="892" y="2" on="0"/>
        <pt x="860" y="0" on="0"/>
        <pt x="852" y="0" on="1"/>
        <pt x="852" y="60" on="1"/>
        <pt x="921" y="60" on="1"/>
        <pt x="921" y="347" on="1"/>
        <pt x="921" y="372" on="0"/>
        <pt x="908" y="384" on="0"/>
        <pt x="884" y="384" on="1"/>
        <pt x="651" y="384" on="1"/>
        <pt x="651" y="60" on="1"/>
        <pt x="720" y="60" on="1"/>
        <pt x="720" y="0" on="1"/>
        <pt x="711" y="1" on="0"/>
        <pt x="679" y="2" on="0"/>
        <pt x="641" y="3" on="0"/>
        <pt x="603" y="4" on="0"/>
        <pt x="589" y="4" on="1"/>
        <pt x="575" y="4" on="0"/>
        <pt x="537" y="3" on="0"/>
        <pt x="499" y="2" on="0"/>
        <pt x="467" y="0" on="0"/>
        <pt x="459" y="0" on="1"/>
        <pt x="459" y="60" on="1"/>
        <pt x="528" y="60" on="1"/>
        <pt x="528" y="384" on="1"/>
        <pt x="258" y="384" on="1"/>
        <pt x="258" y="60" on="1"/>
        <pt x="327" y="60" on="1"/>
        <pt x="327" y="0" on="1"/>
        <pt x="318" y="1" on="0"/>
        <pt x="286" y="2" on="0"/>
        <pt x="248" y="3" on="0"/>
        <pt x="210" y="4" on="0"/>
        <pt x="196" y="4" on="1"/>
        <pt x="182" y="4" on="0"/>
        <pt x="144" y="3" on="0"/>
        <pt x="106" y="2" on="0"/>
        <pt x="74" y="0" on="0"/>
        <pt x="66" y="0" on="1"/>
        <pt x="66" y="60" on="1"/>
        <pt x="135" y="60" on="1"/>
        <pt x="135" y="384" on="1"/>
        <pt x="45" y="384" on="1"/>
        <pt x="45" y="444" on="1"/>
        <pt x="135" y="444" on="1"/>
        <pt x="135" y="536" on="1"/>
        <pt x="135" y="587" on="0"/>
        <pt x="201" y="651" on="0"/>
        <pt x="298" y="688" on="0"/>
        <pt x="410" y="701" on="0"/>
        <pt x="455" y="701" on="1"/>
        <pt x="472" y="701" on="0"/>
        <pt x="513" y="698" on="0"/>
        <pt x="553" y="687" on="0"/>
        <pt x="592" y="668" on="0"/>
        <pt x="607" y="653" on="1"/>
        <pt x="622" y="660" on="0"/>
        <pt x="663" y="677" on="0"/>
        <pt x="722" y="691" on="0"/>
        <pt x="801" y="701" on="0"/>
        <pt x="853" y="701" on="1"/>
        <pt x="906" y="701" on="0"/>
        <pt x="979" y="677" on="0"/>
        <pt x="1023" y="641" on="0"/>
        <pt x="1042" y="597" on="0"/>
        <pt x="1042" y="577" on="1"/>
        <pt x="1042" y="542" on="0"/>
        <pt x="999" y="502" on="0"/>
        <pt x="968" y="502" on="1"/>
        <pt x="935" y="502" on="0"/>
        <pt x="894" y="544" on="0"/>
        <pt x="894" y="576" on="1"/>
        <pt x="894" y="587" on="0"/>
        <pt x="904" y="621" on="0"/>
        <pt x="923" y="635" on="1"/>
        <pt x="898" y="646" on="0"/>
        <pt x="859" y="650" on="0"/>
        <pt x="842" y="650" on="1"/>
        <pt x="813" y="650" on="0"/>
        <pt x="744" y="641" on="0"/>
        <pt x="684" y="616" on="0"/>
        <pt x="644" y="570" on="0"/>
        <pt x="644" y="533" on="1"/>
        <pt x="644" y="444" on="1"/>
        <pt x="834" y="444" on="1"/>
        <pt x="845" y="444" on="0"/>
        <pt x="850" y="444" on="0"/>
        <pt x="852" y="445" on="1"/>
        <pt x="855" y="447" on="0"/>
        <pt x="867" y="447" on="0"/>
        <pt x="870" y="447" on="1"/>
      </contour>
      <contour>
        <pt x="528" y="444" on="1"/>
        <pt x="528" y="513" on="1"/>
        <pt x="508" y="525" on="0"/>
        <pt x="494" y="559" on="0"/>
        <pt x="494" y="576" on="1"/>
        <pt x="494" y="584" on="0"/>
        <pt x="501" y="619" on="0"/>
        <pt x="523" y="636" on="1"/>
        <pt x="498" y="647" on="0"/>
        <pt x="455" y="650" on="0"/>
        <pt x="444" y="650" on="1"/>
        <pt x="415" y="650" on="0"/>
        <pt x="348" y="641" on="0"/>
        <pt x="290" y="616" on="0"/>
        <pt x="251" y="570" on="0"/>
        <pt x="251" y="533" on="1"/>
        <pt x="251" y="444" on="1"/>
      </contour>
    </TTGlyph>
    <TTGlyph name="f_f_l" xMin="45" yMin="0" xMax="1113" yMax="701">
      <contour>
        <pt x="1044" y="60" on="1"/>
        <pt x="1113" y="60" on="1"/>
        <pt x="1113" y="0" on="1"/>
        <pt x="1104" y="1" on="0"/>
        <pt x="1072" y="2" on="0"/>
        <pt x="1034" y="3" on="0"/>
        <pt x="996" y="4" on="0"/>
        <pt x="982" y="4" on="1"/>
        <pt x="968" y="4" on="0"/>
        <pt x="930" y="3" on="0"/>
        <pt x="892" y="2" on="0"/>
        <pt x="860" y="0" on="0"/>
        <pt x="852" y="0" on="1"/>
        <pt x="852" y="60" on="1"/>
        <pt x="921" y="60" on="1"/>
        <pt x="921" y="384" on="1"/>
        <pt x="651" y="384" on="1"/>
        <pt x="651" y="60" on="1"/>
        <pt x="720" y="60" on="1"/>
        <pt x="720" y="0" on="1"/>
        <pt x="711" y="1" on="0"/>
        <pt x="679" y="2" on="0"/>
        <pt x="641" y="3" on="0"/>
        <pt x="603" y="4" on="0"/>
        <pt x="589" y="4" on="1"/>
        <pt x="575" y="4" on="0"/>
        <pt x="537" y="3" on="0"/>
        <pt x="499" y="2" on="0"/>
        <pt x="467" y="0" on="0"/>
        <pt x="459" y="0" on="1"/>
        <pt x="459" y="60" on="1"/>
        <pt x="528" y="60" on="1"/>
        <pt x="528" y="384" on="1"/>
        <pt x="258" y="384" on="1"/>
        <pt x="258" y="60" on="1"/>
        <pt x="327" y="60" on="1"/>
        <pt x="327" y="0" on="1"/>
        <pt x="318" y="1" on="0"/>
        <pt x="286" y="2" on="0"/>
        <pt x="248" y="3" on="0"/>
        <pt x="210" y="4" on="0"/>
        <pt x="196" y="4" on="1"/>
        <pt x="182" y="4" on="0"/>
        <pt x="144" y="3" on="0"/>
        <pt x="106" y="2" on="0"/>
        <pt x="74" y="0" on="0"/>
        <pt x="66" y="0" on="1"/>
        <pt x="66" y="60" on="1"/>
        <pt x="135" y="60" on="1"/>
        <pt x="135" y="384" on="1"/>
        <pt x="45" y="384" on="1"/>
        <pt x="45" y="444" on="1"/>
        <pt x="135" y="444" on="1"/>
        <pt x="135" y="536" on="1"/>
        <pt x="135" y="586" on="0"/>
        <pt x="199" y="650" on="0"/>
        <pt x="295" y="687" on="0"/>
        <pt x="408" y="701" on="0"/>
        <pt x="457" y="701" on="1"/>
        <pt x="467" y="701" on="0"/>
        <pt x="506" y="700" on="0"/>
        <pt x="551" y="691" on="0"/>
        <pt x="597" y="674" on="0"/>
        <pt x="614" y="657" on="1"/>
        <pt x="628" y="663" on="0"/>
        <pt x="667" y="679" on="0"/>
        <pt x="724" y="692" on="0"/>
        <pt x="801" y="701" on="0"/>
        <pt x="853" y="701" on="1"/>
        <pt x="872" y="701" on="0"/>
        <pt x="925" y="699" on="0"/>
        <pt x="955" y="691" on="1"/>
        <pt x="960" y="689" on="0"/>
        <pt x="964" y="689" on="0"/>
        <pt x="968" y="689" on="1"/>
        <pt x="1044" y="694" on="1"/>
      </contour>
      <contour>
        <pt x="528" y="444" on="1"/>
        <pt x="528" y="536" on="1"/>
        <pt x="510" y="549" on="0"/>
        <pt x="501" y="580" on="0"/>
        <pt x="501" y="592" on="1"/>
        <pt x="501" y="612" on="0"/>
        <pt x="514" y="636" on="0"/>
        <pt x="519" y="641" on="1"/>
        <pt x="496" y="648" on="0"/>
        <pt x="457" y="650" on="0"/>
        <pt x="446" y="650" on="1"/>
        <pt x="417" y="650" on="0"/>
        <pt x="349" y="641" on="0"/>
        <pt x="290" y="616" on="0"/>
        <pt x="251" y="570" on="0"/>
        <pt x="251" y="533" on="1"/>
        <pt x="251" y="444" on="1"/>
      </contour>
      <contour>
        <pt x="921" y="444" on="1"/>
        <pt x="921" y="548" on="1"/>
        <pt x="901" y="563" on="0"/>
        <pt x="894" y="598" on="0"/>
        <pt x="894" y="605" on="1"/>
        <pt x="894" y="611" on="0"/>
        <pt x="896" y="629" on="0"/>
        <pt x="903" y="642" on="1"/>
        <pt x="904" y="643" on="0"/>
        <pt x="904" y="645" on="1"/>
        <pt x="904" y="647" on="0"/>
        <pt x="886" y="649" on="0"/>
        <pt x="864" y="650" on="0"/>
        <pt x="845" y="650" on="0"/>
        <pt x="843" y="650" on="1"/>
        <pt x="821" y="650" on="0"/>
        <pt x="753" y="644" on="0"/>
        <pt x="690" y="620" on="0"/>
        <pt x="644" y="574" on="0"/>
        <pt x="644" y="533" on="1"/>
        <pt x="644" y="444" on="1"/>
      </contour>
    </TTGlyph>
    <TTGlyph name="fi" xMin="45" yMin="0" xMax="719" yMax="701">
      <contour>
        <pt x="650" y="453" on="1"/>
        <pt x="650" y="60" on="1"/>
        <pt x="719" y="60" on="1"/>
        <pt x="719" y="0" on="1"/>
        <pt x="710" y="1" on="0"/>
        <pt x="678" y="2" on="0"/>
        <pt x="640" y="3" on="0"/>
        <pt x="602" y="4" on="0"/>
        <pt x="588" y="4" on="1"/>
        <pt x="574" y="4" on="0"/>
        <pt x="536" y="3" on="0"/>
        <pt x="498" y="2" on="0"/>
        <pt x="466" y="0" on="0"/>
        <pt x="458" y="0" on="1"/>
        <pt x="458" y="60" on="1"/>
        <pt x="527" y="60" on="1"/>
        <pt x="527" y="347" on="1"/>
        <pt x="527" y="372" on="0"/>
        <pt x="514" y="384" on="0"/>
        <pt x="490" y="384" on="1"/>
        <pt x="258" y="384" on="1"/>
        <pt x="258" y="60" on="1"/>
        <pt x="327" y="60" on="1"/>
        <pt x="327" y="0" on="1"/>
        <pt x="318" y="1" on="0"/>
        <pt x="286" y="2" on="0"/>
        <pt x="248" y="3" on="0"/>
        <pt x="210" y="4" on="0"/>
        <pt x="196" y="4" on="1"/>
        <pt x="182" y="4" on="0"/>
        <pt x="144" y="3" on="0"/>
        <pt x="106" y="2" on="0"/>
        <pt x="74" y="0" on="0"/>
        <pt x="66" y="0" on="1"/>
        <pt x="66" y="60" on="1"/>
        <pt x="135" y="60" on="1"/>
        <pt x="135" y="384" on="1"/>
        <pt x="45" y="384" on="1"/>
        <pt x="45" y="444" on="1"/>
        <pt x="135" y="444" on="1"/>
        <pt x="135" y="536" on="1"/>
        <pt x="135" y="570" on="0"/>
        <pt x="166" y="621" on="0"/>
        <pt x="218" y="658" on="0"/>
        <pt x="286" y="682" on="0"/>
        <pt x="358" y="696" on="0"/>
        <pt x="429" y="701" on="0"/>
        <pt x="459" y="701" on="1"/>
        <pt x="513" y="701" on="0"/>
        <pt x="586" y="677" on="0"/>
        <pt x="630" y="640" on="0"/>
        <pt x="648" y="597" on="0"/>
        <pt x="648" y="577" on="1"/>
        <pt x="648" y="542" on="0"/>
        <pt x="605" y="502" on="0"/>
        <pt x="574" y="502" on="1"/>
        <pt x="541" y="502" on="0"/>
        <pt x="500" y="544" on="0"/>
        <pt x="500" y="576" on="1"/>
        <pt x="500" y="587" on="0"/>
        <pt x="510" y="621" on="0"/>
        <pt x="529" y="635" on="1"/>
        <pt x="503" y="646" on="0"/>
        <pt x="463" y="650" on="0"/>
        <pt x="449" y="650" on="1"/>
        <pt x="415" y="650" on="0"/>
        <pt x="345" y="639" on="0"/>
        <pt x="313" y="624" on="1"/>
        <pt x="290" y="613" on="0"/>
        <pt x="265" y="587" on="0"/>
        <pt x="253" y="563" on="0"/>
        <pt x="251" y="541" on="0"/>
        <pt x="251" y="533" on="1"/>
        <pt x="251" y="444" on="1"/>
        <pt x="440" y="444" on="1"/>
        <pt x="451" y="444" on="0"/>
        <pt x="456" y="444" on="0"/>
        <pt x="458" y="445" on="1"/>
        <pt x="461" y="447" on="0"/>
        <pt x="473" y="447" on="0"/>
        <pt x="476" y="447" on="1"/>
      </contour>
    </TTGlyph>
    <TTGlyph name="five" xMin="76" yMin="-14" xMax="616" yMax="658">
      <contour>
        <pt x="208" y="379" on="1"/>
        <pt x="246" y="400" on="0"/>
        <pt x="324" y="412" on="0"/>
        <pt x="353" y="412" on="1"/>
        <pt x="423" y="412" on="0"/>
        <pt x="522" y="374" on="0"/>
        <pt x="586" y="314" on="0"/>
        <pt x="616" y="239" on="0"/>
        <pt x="616" y="201" on="1"/>
        <pt x="616" y="159" on="0"/>
        <pt x="579" y="81" on="0"/>
        <pt x="505" y="22" on="0"/>
        <pt x="392" y="-14" on="0"/>
        <pt x="315" y="-14" on="1"/>
        <pt x="262" y="-14" on="0"/>
        <pt x="174" y="12" on="0"/>
        <pt x="111" y="57" on="0"/>
        <pt x="76" y="119" on="0"/>
        <pt x="76" y="155" on="1"/>
        <pt x="76" y="191" on="0"/>
        <pt x="120" y="232" on="0"/>
        <pt x="152" y="232" on="1"/>
        <pt x="187" y="232" on="0"/>
        <pt x="228" y="186" on="0"/>
        <pt x="228" y="156" on="1"/>
        <pt x="228" y="149" on="0"/>
        <pt x="224" y="130" on="0"/>
        <pt x="214" y="110" on="0"/>
        <pt x="195" y="92" on="0"/>
        <pt x="180" y="86" on="1"/>
        <pt x="206" y="61" on="0"/>
        <pt x="280" y="41" on="0"/>
        <pt x="312" y="41" on="1"/>
        <pt x="369" y="41" on="0"/>
        <pt x="430" y="75" on="0"/>
        <pt x="458" y="125" on="0"/>
        <pt x="463" y="183" on="0"/>
        <pt x="463" y="207" on="1"/>
        <pt x="463" y="231" on="0"/>
        <pt x="459" y="285" on="0"/>
        <pt x="438" y="331" on="0"/>
        <pt x="391" y="361" on="0"/>
        <pt x="348" y="361" on="1"/>
        <pt x="302" y="361" on="0"/>
        <pt x="220" y="335" on="0"/>
        <pt x="191" y="303" on="1"/>
        <pt x="183" y="294" on="0"/>
        <pt x="174" y="290" on="0"/>
        <pt x="159" y="290" on="1"/>
        <pt x="135" y="290" on="0"/>
        <pt x="125" y="306" on="0"/>
        <pt x="125" y="326" on="1"/>
        <pt x="125" y="624" on="1"/>
        <pt x="125" y="635" on="0"/>
        <pt x="130" y="658" on="0"/>
        <pt x="146" y="658" on="1"/>
        <pt x="148" y="658" on="0"/>
        <pt x="153" y="657" on="0"/>
        <pt x="162" y="654" on="1"/>
        <pt x="204" y="641" on="0"/>
        <pt x="293" y="626" on="0"/>
        <pt x="344" y="626" on="1"/>
        <pt x="387" y="626" on="0"/>
        <pt x="476" y="639" on="0"/>
        <pt x="524" y="653" on="1"/>
        <pt x="535" y="657" on="0"/>
        <pt x="540" y="658" on="0"/>
        <pt x="542" y="658" on="1"/>
        <pt x="551" y="658" on="0"/>
        <pt x="563" y="646" on="0"/>
        <pt x="563" y="632" on="1"/>
        <pt x="563" y="620" on="0"/>
        <pt x="538" y="590" on="0"/>
        <pt x="505" y="562" on="0"/>
        <pt x="473" y="540" on="0"/>
        <pt x="466" y="536" on="1"/>
        <pt x="418" y="508" on="0"/>
        <pt x="324" y="488" on="0"/>
        <pt x="287" y="488" on="1"/>
        <pt x="284" y="488" on="0"/>
        <pt x="265" y="489" on="0"/>
        <pt x="241" y="490" on="0"/>
        <pt x="217" y="492" on="0"/>
        <pt x="208" y="493" on="1"/>
      </contour>
    </TTGlyph>
    <TTGlyph name="fl" xMin="45" yMin="0" xMax="719" yMax="701">
      <contour>
        <pt x="650" y="60" on="1"/>
        <pt x="719" y="60" on="1"/>
        <pt x="719" y="0" on="1"/>
        <pt x="710" y="1" on="0"/>
        <pt x="678" y="2" on="0"/>
        <pt x="640" y="3" on="0"/>
        <pt x="602" y="4" on="0"/>
        <pt x="588" y="4" on="1"/>
        <pt x="574" y="4" on="0"/>
        <pt x="536" y="3" on="0"/>
        <pt x="498" y="2" on="0"/>
        <pt x="466" y="0" on="0"/>
        <pt x="458" y="0" on="1"/>
        <pt x="458" y="60" on="1"/>
        <pt x="527" y="60" on="1"/>
        <pt x="527" y="384" on="1"/>
        <pt x="258" y="384" on="1"/>
        <pt x="258" y="60" on="1"/>
        <pt x="327" y="60" on="1"/>
        <pt x="327" y="0" on="1"/>
        <pt x="318" y="1" on="0"/>
        <pt x="286" y="2" on="0"/>
        <pt x="248" y="3" on="0"/>
        <pt x="210" y="4" on="0"/>
        <pt x="196" y="4" on="1"/>
        <pt x="182" y="4" on="0"/>
        <pt x="144" y="3" on="0"/>
        <pt x="106" y="2" on="0"/>
        <pt x="74" y="0" on="0"/>
        <pt x="66" y="0" on="1"/>
        <pt x="66" y="60" on="1"/>
        <pt x="135" y="60" on="1"/>
        <pt x="135" y="384" on="1"/>
        <pt x="45" y="384" on="1"/>
        <pt x="45" y="444" on="1"/>
        <pt x="135" y="444" on="1"/>
        <pt x="135" y="536" on="1"/>
        <pt x="135" y="585" on="0"/>
        <pt x="197" y="649" on="0"/>
        <pt x="292" y="686" on="0"/>
        <pt x="406" y="701" on="0"/>
        <pt x="459" y="701" on="1"/>
        <pt x="479" y="701" on="0"/>
        <pt x="531" y="699" on="0"/>
        <pt x="561" y="691" on="1"/>
        <pt x="566" y="689" on="0"/>
        <pt x="570" y="689" on="0"/>
        <pt x="574" y="689" on="1"/>
        <pt x="650" y="694" on="1"/>
      </contour>
      <contour>
        <pt x="527" y="444" on="1"/>
        <pt x="527" y="548" on="1"/>
        <pt x="507" y="563" on="0"/>
        <pt x="500" y="598" on="0"/>
        <pt x="500" y="605" on="1"/>
        <pt x="500" y="611" on="0"/>
        <pt x="502" y="629" on="0"/>
        <pt x="509" y="642" on="1"/>
        <pt x="510" y="643" on="0"/>
        <pt x="510" y="645" on="1"/>
        <pt x="510" y="647" on="0"/>
        <pt x="492" y="649" on="0"/>
        <pt x="470" y="650" on="0"/>
        <pt x="451" y="650" on="0"/>
        <pt x="449" y="650" on="1"/>
        <pt x="420" y="650" on="0"/>
        <pt x="351" y="642" on="0"/>
        <pt x="291" y="616" on="0"/>
        <pt x="251" y="571" on="0"/>
        <pt x="251" y="533" on="1"/>
        <pt x="251" y="444" on="1"/>
      </contour>
    </TTGlyph>
    <TTGlyph name="four" xMin="46" yMin="0" xMax="646" yMax="665">
      <contour>
        <pt x="528" y="155" on="1"/>
        <pt x="528" y="60" on="1"/>
        <pt x="646" y="60" on="1"/>
        <pt x="646" y="0" on="1"/>
        <pt x="604" y="3" on="0"/>
        <pt x="500" y="4" on="0"/>
        <pt x="457" y="4" on="1"/>
        <pt x="437" y="4" on="0"/>
        <pt x="384" y="4" on="0"/>
        <pt x="328" y="3" on="0"/>
        <pt x="276" y="2" on="0"/>
        <pt x="258" y="0" on="1"/>
        <pt x="258" y="60" on="1"/>
        <pt x="389" y="60" on="1"/>
        <pt x="389" y="155" on="1"/>
        <pt x="46" y="155" on="1"/>
        <pt x="46" y="215" on="1"/>
        <pt x="414" y="648" on="1"/>
        <pt x="419" y="654" on="0"/>
        <pt x="425" y="660" on="0"/>
        <pt x="433" y="664" on="0"/>
        <pt x="445" y="665" on="0"/>
        <pt x="455" y="665" on="1"/>
        <pt x="492" y="665" on="1"/>
        <pt x="515" y="665" on="0"/>
        <pt x="528" y="652" on="0"/>
        <pt x="528" y="629" on="1"/>
        <pt x="528" y="215" on="1"/>
        <pt x="646" y="215" on="1"/>
        <pt x="646" y="155" on="1"/>
      </contour>
      <contour>
        <pt x="123" y="215" on="1"/>
        <pt x="404" y="215" on="1"/>
        <pt x="404" y="546" on="1"/>
      </contour>
    </TTGlyph>
    <TTGlyph name="g" xMin="46" yMin="-202" xMax="664" yMax="458">
      <contour>
        <pt x="315" y="90" on="1"/>
        <pt x="358" y="90" on="0"/>
        <pt x="425" y="89" on="0"/>
        <pt x="480" y="84" on="0"/>
        <pt x="530" y="73" on="0"/>
        <pt x="555" y="62" on="1"/>
        <pt x="582" y="51" on="0"/>
        <pt x="617" y="19" on="0"/>
        <pt x="638" y="-17" on="0"/>
        <pt x="646" y="-54" on="0"/>
        <pt x="646" y="-69" on="1"/>
        <pt x="646" y="-102" on="0"/>
        <pt x="603" y="-151" on="0"/>
        <pt x="524" y="-185" on="0"/>
        <pt x="414" y="-202" on="0"/>
        <pt x="346" y="-202" on="1"/>
        <pt x="265" y="-202" on="0"/>
        <pt x="151" y="-180" on="0"/>
        <pt x="79" y="-144" on="0"/>
        <pt x="46" y="-97" on="0"/>
        <pt x="46" y="-72" on="1"/>
        <pt x="46" y="-41" on="0"/>
        <pt x="95" y="4" on="0"/>
        <pt x="140" y="15" on="1"/>
        <pt x="117" y="38" on="0"/>
        <pt x="101" y="92" on="0"/>
        <pt x="101" y="111" on="1"/>
        <pt x="101" y="123" on="0"/>
        <pt x="111" y="170" on="0"/>
        <pt x="132" y="196" on="1"/>
        <pt x="126" y="201" on="0"/>
        <pt x="108" y="219" on="0"/>
        <pt x="91" y="244" on="0"/>
        <pt x="79" y="278" on="0"/>
        <pt x="79" y="299" on="1"/>
        <pt x="79" y="322" on="0"/>
        <pt x="101" y="376" on="0"/>
        <pt x="153" y="421" on="0"/>
        <pt x="242" y="451" on="0"/>
        <pt x="309" y="451" on="1"/>
        <pt x="334" y="451" on="0"/>
        <pt x="416" y="442" on="0"/>
        <pt x="459" y="420" on="1"/>
        <pt x="497" y="444" on="0"/>
        <pt x="563" y="458" on="0"/>
        <pt x="583" y="458" on="1"/>
        <pt x="604" y="458" on="0"/>
        <pt x="634" y="445" on="0"/>
        <pt x="654" y="424" on="0"/>
        <pt x="664" y="399" on="0"/>
        <pt x="664" y="387" on="1"/>
        <pt x="664" y="364" on="0"/>
        <pt x="634" y="333" on="0"/>
        <pt x="610" y="333" on="1"/>
        <pt x="585" y="333" on="0"/>
        <pt x="557" y="365" on="0"/>
        <pt x="557" y="387" on="1"/>
        <pt x="557" y="389" on="0"/>
        <pt x="558" y="401" on="0"/>
        <pt x="559" y="405" on="1"/>
        <pt x="533" y="402" on="0"/>
        <pt x="505" y="392" on="0"/>
        <pt x="499" y="390" on="1"/>
        <pt x="508" y="381" on="0"/>
        <pt x="538" y="334" on="0"/>
        <pt x="538" y="299" on="1"/>
        <pt x="538" y="276" on="0"/>
        <pt x="516" y="222" on="0"/>
        <pt x="464" y="177" on="0"/>
        <pt x="375" y="147" on="0"/>
        <pt x="308" y="147" on="1"/>
        <pt x="289" y="147" on="0"/>
        <pt x="213" y="154" on="0"/>
        <pt x="171" y="172" on="1"/>
        <pt x="169" y="168" on="0"/>
        <pt x="166" y="161" on="0"/>
        <pt x="166" y="150" on="1"/>
        <pt x="166" y="137" on="0"/>
        <pt x="178" y="113" on="0"/>
        <pt x="188" y="105" on="1"/>
        <pt x="202" y="94" on="0"/>
        <pt x="228" y="90" on="0"/>
        <pt x="259" y="90" on="1"/>
      </contour>
      <contour>
        <pt x="309" y="199" on="1"/>
        <pt x="349" y="199" on="0"/>
        <pt x="392" y="220" on="0"/>
        <pt x="412" y="250" on="0"/>
        <pt x="416" y="285" on="0"/>
        <pt x="416" y="299" on="1"/>
        <pt x="416" y="314" on="0"/>
        <pt x="412" y="349" on="0"/>
        <pt x="391" y="379" on="0"/>
        <pt x="348" y="399" on="0"/>
        <pt x="308" y="399" on="1"/>
        <pt x="268" y="399" on="0"/>
        <pt x="225" y="378" on="0"/>
        <pt x="205" y="348" on="0"/>
        <pt x="201" y="313" on="0"/>
        <pt x="201" y="299" on="1"/>
        <pt x="201" y="284" on="0"/>
        <pt x="205" y="249" on="0"/>
        <pt x="226" y="219" on="0"/>
        <pt x="269" y="199" on="0"/>
      </contour>
      <contour>
        <pt x="235" y="-22" on="1"/>
        <pt x="204" y="-22" on="0"/>
        <pt x="169" y="-35" on="0"/>
        <pt x="152" y="-51" on="0"/>
        <pt x="148" y="-67" on="0"/>
        <pt x="148" y="-71" on="1"/>
        <pt x="148" y="-85" on="0"/>
        <pt x="170" y="-113" on="0"/>
        <pt x="217" y="-135" on="0"/>
        <pt x="292" y="-150" on="0"/>
        <pt x="346" y="-150" on="1"/>
        <pt x="402" y="-150" on="0"/>
        <pt x="478" y="-134" on="0"/>
        <pt x="524" y="-111" on="0"/>
        <pt x="544" y="-84" on="0"/>
        <pt x="544" y="-72" on="1"/>
        <pt x="544" y="-53" on="0"/>
        <pt x="499" y="-33" on="0"/>
        <pt x="441" y="-24" on="0"/>
        <pt x="389" y="-22" on="0"/>
        <pt x="381" y="-22" on="1"/>
      </contour>
    </TTGlyph>
    <TTGlyph name="germandbls" xMin="66" yMin="-7" xMax="660" yMax="701">
      <contour>
        <pt x="504" y="416" on="1"/>
        <pt x="540" y="401" on="0"/>
        <pt x="598" y="352" on="0"/>
        <pt x="639" y="291" on="0"/>
        <pt x="660" y="219" on="0"/>
        <pt x="660" y="180" on="1"/>
        <pt x="660" y="137" on="0"/>
        <pt x="624" y="68" on="0"/>
        <pt x="561" y="19" on="0"/>
        <pt x="473" y="-7" on="0"/>
        <pt x="421" y="-7" on="1"/>
        <pt x="389" y="-7" on="0"/>
        <pt x="342" y="11" on="0"/>
        <pt x="312" y="38" on="0"/>
        <pt x="297" y="73" on="0"/>
        <pt x="297" y="89" on="1"/>
        <pt x="297" y="114" on="0"/>
        <pt x="329" y="148" on="0"/>
        <pt x="356" y="148" on="1"/>
        <pt x="379" y="148" on="0"/>
        <pt x="414" y="118" on="0"/>
        <pt x="414" y="90" on="1"/>
        <pt x="414" y="85" on="0"/>
        <pt x="411" y="63" on="0"/>
        <pt x="401" y="52" on="1"/>
        <pt x="399" y="48" on="0"/>
        <pt x="399" y="48" on="1"/>
        <pt x="399" y="44" on="0"/>
        <pt x="418" y="44" on="1"/>
        <pt x="459" y="44" on="0"/>
        <pt x="502" y="78" on="0"/>
        <pt x="523" y="123" on="0"/>
        <pt x="526" y="168" on="0"/>
        <pt x="526" y="180" on="1"/>
        <pt x="526" y="225" on="0"/>
        <pt x="509" y="301" on="0"/>
        <pt x="468" y="357" on="0"/>
        <pt x="402" y="391" on="0"/>
        <pt x="354" y="393" on="1"/>
        <pt x="338" y="394" on="0"/>
        <pt x="333" y="414" on="0"/>
        <pt x="333" y="418" on="1"/>
        <pt x="333" y="437" on="0"/>
        <pt x="351" y="443" on="0"/>
        <pt x="364" y="444" on="1"/>
        <pt x="488" y="449" on="0"/>
        <pt x="488" y="559" on="1"/>
        <pt x="488" y="579" on="0"/>
        <pt x="477" y="612" on="0"/>
        <pt x="452" y="636" on="0"/>
        <pt x="408" y="650" on="0"/>
        <pt x="375" y="650" on="1"/>
        <pt x="331" y="650" on="0"/>
        <pt x="284" y="627" on="0"/>
        <pt x="262" y="596" on="0"/>
        <pt x="258" y="563" on="0"/>
        <pt x="258" y="552" on="1"/>
        <pt x="258" y="0" on="1"/>
        <pt x="241" y="2" on="0"/>
        <pt x="205" y="4" on="0"/>
        <pt x="188" y="4" on="1"/>
        <pt x="173" y="4" on="0"/>
        <pt x="134" y="3" on="0"/>
        <pt x="97" y="2" on="0"/>
        <pt x="69" y="0" on="0"/>
        <pt x="66" y="0" on="1"/>
        <pt x="66" y="60" on="1"/>
        <pt x="135" y="60" on="1"/>
        <pt x="135" y="384" on="1"/>
        <pt x="66" y="384" on="1"/>
        <pt x="66" y="444" on="1"/>
        <pt x="135" y="444" on="1"/>
        <pt x="135" y="552" on="1"/>
        <pt x="135" y="590" on="0"/>
        <pt x="172" y="646" on="0"/>
        <pt x="236" y="683" on="0"/>
        <pt x="324" y="701" on="0"/>
        <pt x="376" y="701" on="1"/>
        <pt x="446" y="701" on="0"/>
        <pt x="541" y="674" on="0"/>
        <pt x="598" y="633" on="0"/>
        <pt x="622" y="583" on="0"/>
        <pt x="622" y="559" on="1"/>
        <pt x="622" y="546" on="0"/>
        <pt x="614" y="509" on="0"/>
        <pt x="588" y="470" on="0"/>
        <pt x="542" y="431" on="0"/>
      </contour>
    </TTGlyph>
    <TTGlyph name="grave" xMin="148" yMin="499" xMax="405" yMax="702">
      <contour>
        <pt x="405" y="559" on="1"/>
        <pt x="368" y="499" on="1"/>
        <pt x="195" y="572" on="1"/>
        <pt x="189" y="574" on="0"/>
        <pt x="173" y="582" on="0"/>
        <pt x="158" y="596" on="0"/>
        <pt x="148" y="616" on="0"/>
        <pt x="148" y="631" on="1"/>
        <pt x="148" y="643" on="0"/>
        <pt x="158" y="668" on="0"/>
        <pt x="175" y="689" on="0"/>
        <pt x="199" y="702" on="0"/>
        <pt x="214" y="702" on="1"/>
        <pt x="231" y="702" on="0"/>
        <pt x="255" y="688" on="0"/>
        <pt x="263" y="680" on="1"/>
      </contour>
    </TTGlyph>
    <TTGlyph name="h" xMin="77" yMin="0" xMax="720" yMax="694">
      <contour>
        <pt x="651" y="60" on="1"/>
        <pt x="720" y="60" on="1"/>
        <pt x="720" y="0" on="1"/>
        <pt x="714" y="0" on="0"/>
        <pt x="685" y="2" on="0"/>
        <pt x="647" y="3" on="0"/>
        <pt x="605" y="4" on="0"/>
        <pt x="586" y="4" on="1"/>
        <pt x="569" y="4" on="0"/>
        <pt x="530" y="3" on="0"/>
        <pt x="492" y="2" on="0"/>
        <pt x="461" y="0" on="0"/>
        <pt x="452" y="0" on="1"/>
        <pt x="452" y="60" on="1"/>
        <pt x="521" y="60" on="1"/>
        <pt x="521" y="305" on="1"/>
        <pt x="521" y="361" on="0"/>
        <pt x="487" y="400" on="0"/>
        <pt x="451" y="400" on="1"/>
        <pt x="428" y="400" on="0"/>
        <pt x="367" y="385" on="0"/>
        <pt x="313" y="349" on="0"/>
        <pt x="276" y="291" on="0"/>
        <pt x="276" y="247" on="1"/>
        <pt x="276" y="60" on="1"/>
        <pt x="345" y="60" on="1"/>
        <pt x="345" y="0" on="1"/>
        <pt x="339" y="0" on="0"/>
        <pt x="310" y="2" on="0"/>
        <pt x="272" y="3" on="0"/>
        <pt x="230" y="4" on="0"/>
        <pt x="211" y="4" on="1"/>
        <pt x="194" y="4" on="0"/>
        <pt x="155" y="3" on="0"/>
        <pt x="117" y="2" on="0"/>
        <pt x="86" y="0" on="0"/>
        <pt x="77" y="0" on="1"/>
        <pt x="77" y="60" on="1"/>
        <pt x="146" y="60" on="1"/>
        <pt x="146" y="587" on="1"/>
        <pt x="146" y="602" on="0"/>
        <pt x="142" y="617" on="0"/>
        <pt x="128" y="625" on="0"/>
        <pt x="100" y="626" on="0"/>
        <pt x="77" y="626" on="1"/>
        <pt x="77" y="686" on="1"/>
        <pt x="269" y="694" on="1"/>
        <pt x="269" y="361" on="1"/>
        <pt x="277" y="372" on="0"/>
        <pt x="308" y="402" on="0"/>
        <pt x="357" y="431" on="0"/>
        <pt x="425" y="451" on="0"/>
        <pt x="470" y="451" on="1"/>
        <pt x="503" y="451" on="0"/>
        <pt x="568" y="440" on="0"/>
        <pt x="619" y="408" on="0"/>
        <pt x="651" y="348" on="0"/>
        <pt x="651" y="298" on="1"/>
      </contour>
    </TTGlyph>
    <TTGlyph name="hungarumlaut" xMin="169" yMin="506" xMax="585" yMax="709">
      <contour>
        <pt x="224" y="506" on="1"/>
        <pt x="169" y="552" on="1"/>
        <pt x="231" y="669" on="1"/>
        <pt x="236" y="679" on="0"/>
        <pt x="261" y="709" on="0"/>
        <pt x="287" y="709" on="1"/>
        <pt x="302" y="709" on="0"/>
        <pt x="328" y="697" on="0"/>
        <pt x="348" y="677" on="0"/>
        <pt x="360" y="652" on="0"/>
        <pt x="360" y="639" on="1"/>
        <pt x="360" y="620" on="0"/>
        <pt x="340" y="594" on="0"/>
        <pt x="328" y="585" on="1"/>
      </contour>
      <contour>
        <pt x="456" y="669" on="1"/>
        <pt x="461" y="679" on="0"/>
        <pt x="486" y="709" on="0"/>
        <pt x="512" y="709" on="1"/>
        <pt x="527" y="709" on="0"/>
        <pt x="553" y="697" on="0"/>
        <pt x="573" y="677" on="0"/>
        <pt x="585" y="652" on="0"/>
        <pt x="585" y="639" on="1"/>
        <pt x="585" y="620" on="0"/>
        <pt x="565" y="594" on="0"/>
        <pt x="553" y="585" on="1"/>
        <pt x="449" y="506" on="1"/>
        <pt x="394" y="552" on="1"/>
      </contour>
    </TTGlyph>
    <TTGlyph name="hyphen" xMin="24" yMin="165" xMax="383" yMax="280">
      <contour>
        <pt x="383" y="165" on="1"/>
        <pt x="24" y="165" on="1"/>
        <pt x="24" y="280" on="1"/>
        <pt x="383" y="280" on="1"/>
      </contour>
    </TTGlyph>
    <TTGlyph name="i" xMin="80" yMin="0" xMax="335" yMax="695">
      <contour>
        <pt x="280" y="611" on="1"/>
        <pt x="280" y="593" on="0"/>
        <pt x="266" y="563" on="0"/>
        <pt x="243" y="540" on="0"/>
        <pt x="213" y="528" on="0"/>
        <pt x="197" y="528" on="1"/>
        <pt x="180" y="528" on="0"/>
        <pt x="149" y="541" on="0"/>
        <pt x="126" y="564" on="0"/>
        <pt x="113" y="594" on="0"/>
        <pt x="113" y="612" on="1"/>
        <pt x="113" y="628" on="0"/>
        <pt x="126" y="658" on="0"/>
        <pt x="148" y="681" on="0"/>
        <pt x="179" y="695" on="0"/>
        <pt x="197" y="695" on="1"/>
        <pt x="212" y="695" on="0"/>
        <pt x="242" y="683" on="0"/>
        <pt x="266" y="661" on="0"/>
        <pt x="280" y="630" on="0"/>
      </contour>
      <contour>
        <pt x="272" y="451" on="1"/>
        <pt x="272" y="60" on="1"/>
        <pt x="335" y="60" on="1"/>
        <pt x="335" y="0" on="1"/>
        <pt x="322" y="1" on="0"/>
        <pt x="285" y="2" on="0"/>
        <pt x="249" y="3" on="0"/>
        <pt x="218" y="4" on="0"/>
        <pt x="210" y="4" on="1"/>
        <pt x="196" y="4" on="0"/>
        <pt x="158" y="3" on="0"/>
        <pt x="120" y="2" on="0"/>
        <pt x="88" y="0" on="0"/>
        <pt x="80" y="0" on="1"/>
        <pt x="80" y="60" on="1"/>
        <pt x="149" y="60" on="1"/>
        <pt x="149" y="344" on="1"/>
        <pt x="149" y="359" on="0"/>
        <pt x="145" y="374" on="0"/>
        <pt x="131" y="382" on="0"/>
        <pt x="105" y="383" on="0"/>
        <pt x="83" y="383" on="1"/>
        <pt x="83" y="443" on="1"/>
      </contour>
    </TTGlyph>
    <TTGlyph name="j" xMin="-49" yMin="-201" xMax="325" yMax="695">
      <contour>
        <pt x="325" y="611" on="1"/>
        <pt x="325" y="595" on="0"/>
        <pt x="313" y="565" on="0"/>
        <pt x="290" y="542" on="0"/>
        <pt x="259" y="528" on="0"/>
        <pt x="241" y="528" on="1"/>
        <pt x="225" y="528" on="0"/>
        <pt x="195" y="540" on="0"/>
        <pt x="172" y="563" on="0"/>
        <pt x="158" y="594" on="0"/>
        <pt x="158" y="612" on="1"/>
        <pt x="158" y="628" on="0"/>
        <pt x="170" y="658" on="0"/>
        <pt x="193" y="681" on="0"/>
        <pt x="224" y="695" on="0"/>
        <pt x="242" y="695" on="1"/>
        <pt x="258" y="695" on="0"/>
        <pt x="288" y="683" on="0"/>
        <pt x="311" y="660" on="0"/>
        <pt x="325" y="629" on="0"/>
      </contour>
      <contour>
        <pt x="325" y="451" on="1"/>
        <pt x="325" y="-36" on="1"/>
        <pt x="325" y="-81" on="0"/>
        <pt x="285" y="-144" on="0"/>
        <pt x="223" y="-183" on="0"/>
        <pt x="148" y="-201" on="0"/>
        <pt x="114" y="-201" on="1"/>
        <pt x="40" y="-201" on="0"/>
        <pt x="-49" y="-148" on="0"/>
        <pt x="-49" y="-99" on="1"/>
        <pt x="-49" y="-67" on="0"/>
        <pt x="-9" y="-27" on="0"/>
        <pt x="23" y="-27" on="1"/>
        <pt x="55" y="-27" on="0"/>
        <pt x="95" y="-67" on="0"/>
        <pt x="95" y="-99" on="1"/>
        <pt x="95" y="-113" on="0"/>
        <pt x="88" y="-132" on="0"/>
        <pt x="84" y="-138" on="1"/>
        <pt x="82" y="-142" on="0"/>
        <pt x="81" y="-144" on="0"/>
        <pt x="81" y="-145" on="1"/>
        <pt x="81" y="-146" on="0"/>
        <pt x="90" y="-148" on="0"/>
        <pt x="101" y="-149" on="0"/>
        <pt x="113" y="-150" on="0"/>
        <pt x="116" y="-150" on="1"/>
        <pt x="153" y="-150" on="0"/>
        <pt x="202" y="-89" on="0"/>
        <pt x="202" y="-35" on="1"/>
        <pt x="202" y="343" on="1"/>
        <pt x="202" y="359" on="0"/>
        <pt x="197" y="378" on="0"/>
        <pt x="180" y="381" on="1"/>
        <pt x="169" y="383" on="0"/>
        <pt x="139" y="383" on="0"/>
        <pt x="126" y="383" on="1"/>
        <pt x="126" y="443" on="1"/>
      </contour>
    </TTGlyph>
    <TTGlyph name="k" xMin="66" yMin="0" xMax="698" yMax="694">
      <contour>
        <pt x="617" y="71" on="1"/>
        <pt x="620" y="68" on="0"/>
        <pt x="626" y="63" on="0"/>
        <pt x="635" y="61" on="0"/>
        <pt x="650" y="60" on="0"/>
        <pt x="663" y="60" on="1"/>
        <pt x="698" y="60" on="1"/>
        <pt x="698" y="0" on="1"/>
        <pt x="686" y="1" on="0"/>
        <pt x="649" y="3" on="0"/>
        <pt x="613" y="4" on="0"/>
        <pt x="587" y="4" on="0"/>
        <pt x="586" y="4" on="1"/>
        <pt x="568" y="4" on="0"/>
        <pt x="527" y="3" on="0"/>
        <pt x="489" y="2" on="0"/>
        <pt x="459" y="0" on="0"/>
        <pt x="453" y="0" on="1"/>
        <pt x="453" y="60" on="1"/>
        <pt x="462" y="60" on="0"/>
        <pt x="468" y="61" on="0"/>
        <pt x="473" y="64" on="1"/>
        <pt x="331" y="208" on="1"/>
        <pt x="250" y="152" on="1"/>
        <pt x="250" y="60" on="1"/>
        <pt x="319" y="60" on="1"/>
        <pt x="319" y="0" on="1"/>
        <pt x="312" y="0" on="0"/>
        <pt x="284" y="2" on="0"/>
        <pt x="248" y="3" on="0"/>
        <pt x="209" y="4" on="0"/>
        <pt x="192" y="4" on="1"/>
        <pt x="176" y="4" on="0"/>
        <pt x="138" y="3" on="0"/>
        <pt x="102" y="2" on="0"/>
        <pt x="73" y="0" on="0"/>
        <pt x="66" y="0" on="1"/>
        <pt x="66" y="60" on="1"/>
        <pt x="135" y="60" on="1"/>
        <pt x="135" y="587" on="1"/>
        <pt x="135" y="602" on="0"/>
        <pt x="131" y="617" on="0"/>
        <pt x="117" y="625" on="0"/>
        <pt x="89" y="626" on="0"/>
        <pt x="66" y="626" on="1"/>
        <pt x="66" y="686" on="1"/>
        <pt x="258" y="694" on="1"/>
        <pt x="258" y="244" on="1"/>
        <pt x="457" y="380" on="1"/>
        <pt x="453" y="382" on="0"/>
        <pt x="446" y="384" on="0"/>
        <pt x="438" y="384" on="1"/>
        <pt x="438" y="444" on="1"/>
        <pt x="443" y="444" on="0"/>
        <pt x="474" y="442" on="0"/>
        <pt x="514" y="441" on="0"/>
        <pt x="558" y="440" on="0"/>
        <pt x="574" y="440" on="1"/>
        <pt x="604" y="440" on="0"/>
        <pt x="660" y="443" on="0"/>
        <pt x="668" y="444" on="1"/>
        <pt x="668" y="384" on="1"/>
        <pt x="641" y="384" on="1"/>
        <pt x="622" y="384" on="0"/>
        <pt x="598" y="383" on="0"/>
        <pt x="584" y="380" on="0"/>
        <pt x="577" y="376" on="0"/>
        <pt x="573" y="373" on="1"/>
        <pt x="422" y="270" on="1"/>
      </contour>
    </TTGlyph>
    <TTGlyph name="l" xMin="80" yMin="0" xMax="341" yMax="694">
      <contour>
        <pt x="272" y="60" on="1"/>
        <pt x="341" y="60" on="1"/>
        <pt x="341" y="0" on="1"/>
        <pt x="332" y="1" on="0"/>
        <pt x="300" y="2" on="0"/>
        <pt x="262" y="3" on="0"/>
        <pt x="224" y="4" on="0"/>
        <pt x="210" y="4" on="1"/>
        <pt x="196" y="4" on="0"/>
        <pt x="158" y="3" on="0"/>
        <pt x="120" y="2" on="0"/>
        <pt x="88" y="0" on="0"/>
        <pt x="80" y="0" on="1"/>
        <pt x="80" y="60" on="1"/>
        <pt x="149" y="60" on="1"/>
        <pt x="149" y="587" on="1"/>
        <pt x="149" y="602" on="0"/>
        <pt x="145" y="617" on="0"/>
        <pt x="131" y="625" on="0"/>
        <pt x="103" y="626" on="0"/>
        <pt x="80" y="626" on="1"/>
        <pt x="80" y="686" on="1"/>
        <pt x="272" y="694" on="1"/>
      </contour>
    </TTGlyph>
    <TTGlyph name="m" xMin="77" yMin="0" xMax="1095" yMax="451">
      <contour>
        <pt x="1026" y="60" on="1"/>
        <pt x="1095" y="60" on="1"/>
        <pt x="1095" y="0" on="1"/>
        <pt x="1089" y="0" on="0"/>
        <pt x="1060" y="2" on="0"/>
        <pt x="1022" y="3" on="0"/>
        <pt x="980" y="4" on="0"/>
        <pt x="961" y="4" on="1"/>
        <pt x="944" y="4" on="0"/>
        <pt x="905" y="3" on="0"/>
        <pt x="867" y="2" on="0"/>
        <pt x="836" y="0" on="0"/>
        <pt x="827" y="0" on="1"/>
        <pt x="827" y="60" on="1"/>
        <pt x="896" y="60" on="1"/>
        <pt x="896" y="305" on="1"/>
        <pt x="896" y="361" on="0"/>
        <pt x="862" y="400" on="0"/>
        <pt x="826" y="400" on="1"/>
        <pt x="803" y="400" on="0"/>
        <pt x="742" y="385" on="0"/>
        <pt x="688" y="349" on="0"/>
        <pt x="651" y="291" on="0"/>
        <pt x="651" y="247" on="1"/>
        <pt x="651" y="60" on="1"/>
        <pt x="720" y="60" on="1"/>
        <pt x="720" y="0" on="1"/>
        <pt x="714" y="0" on="0"/>
        <pt x="685" y="2" on="0"/>
        <pt x="647" y="3" on="0"/>
        <pt x="605" y="4" on="0"/>
        <pt x="586" y="4" on="1"/>
        <pt x="569" y="4" on="0"/>
        <pt x="530" y="3" on="0"/>
        <pt x="492" y="2" on="0"/>
        <pt x="461" y="0" on="0"/>
        <pt x="452" y="0" on="1"/>
        <pt x="452" y="60" on="1"/>
        <pt x="521" y="60" on="1"/>
        <pt x="521" y="305" on="1"/>
        <pt x="521" y="361" on="0"/>
        <pt x="487" y="400" on="0"/>
        <pt x="451" y="400" on="1"/>
        <pt x="428" y="400" on="0"/>
        <pt x="367" y="385" on="0"/>
        <pt x="313" y="349" on="0"/>
        <pt x="276" y="291" on="0"/>
        <pt x="276" y="247" on="1"/>
        <pt x="276" y="60" on="1"/>
        <pt x="345" y="60" on="1"/>
        <pt x="345" y="0" on="1"/>
        <pt x="339" y="0" on="0"/>
        <pt x="310" y="2" on="0"/>
        <pt x="272" y="3" on="0"/>
        <pt x="230" y="4" on="0"/>
        <pt x="211" y="4" on="1"/>
        <pt x="194" y="4" on="0"/>
        <pt x="155" y="3" on="0"/>
        <pt x="117" y="2" on="0"/>
        <pt x="86" y="0" on="0"/>
        <pt x="77" y="0" on="1"/>
        <pt x="77" y="60" on="1"/>
        <pt x="146" y="60" on="1"/>
        <pt x="146" y="344" on="1"/>
        <pt x="146" y="359" on="0"/>
        <pt x="142" y="374" on="0"/>
        <pt x="128" y="382" on="0"/>
        <pt x="100" y="383" on="0"/>
        <pt x="77" y="383" on="1"/>
        <pt x="77" y="443" on="1"/>
        <pt x="261" y="451" on="1"/>
        <pt x="261" y="349" on="1"/>
        <pt x="269" y="361" on="0"/>
        <pt x="300" y="396" on="0"/>
        <pt x="351" y="428" on="0"/>
        <pt x="422" y="451" on="0"/>
        <pt x="470" y="451" on="1"/>
        <pt x="495" y="451" on="0"/>
        <pt x="547" y="445" on="0"/>
        <pt x="595" y="426" on="0"/>
        <pt x="633" y="390" on="0"/>
        <pt x="643" y="359" on="1"/>
        <pt x="678" y="407" on="0"/>
        <pt x="786" y="451" on="0"/>
        <pt x="845" y="451" on="1"/>
        <pt x="878" y="451" on="0"/>
        <pt x="943" y="440" on="0"/>
        <pt x="994" y="408" on="0"/>
        <pt x="1026" y="348" on="0"/>
        <pt x="1026" y="298" on="1"/>
      </contour>
    </TTGlyph>
    <TTGlyph name="macron" xMin="103" yMin="558" xMax="589" yMax="625">
      <contour>
        <pt x="103" y="558" on="1"/>
        <pt x="103" y="625" on="1"/>
        <pt x="589" y="625" on="1"/>
        <pt x="589" y="558" on="1"/>
      </contour>
    </TTGlyph>
    <TTGlyph name="n" xMin="77" yMin="0" xMax="720" yMax="451">
      <contour>
        <pt x="651" y="60" on="1"/>
        <pt x="720" y="60" on="1"/>
        <pt x="720" y="0" on="1"/>
        <pt x="714" y="0" on="0"/>
        <pt x="685" y="2" on="0"/>
        <pt x="647" y="3" on="0"/>
        <pt x="605" y="4" on="0"/>
        <pt x="586" y="4" on="1"/>
        <pt x="569" y="4" on="0"/>
        <pt x="530" y="3" on="0"/>
        <pt x="492" y="2" on="0"/>
        <pt x="461" y="0" on="0"/>
        <pt x="452" y="0" on="1"/>
        <pt x="452" y="60" on="1"/>
        <pt x="521" y="60" on="1"/>
        <pt x="521" y="305" on="1"/>
        <pt x="521" y="361" on="0"/>
        <pt x="487" y="400" on="0"/>
        <pt x="451" y="400" on="1"/>
        <pt x="428" y="400" on="0"/>
        <pt x="367" y="385" on="0"/>
        <pt x="313" y="349" on="0"/>
        <pt x="276" y="291" on="0"/>
        <pt x="276" y="247" on="1"/>
        <pt x="276" y="60" on="1"/>
        <pt x="345" y="60" on="1"/>
        <pt x="345" y="0" on="1"/>
        <pt x="339" y="0" on="0"/>
        <pt x="310" y="2" on="0"/>
        <pt x="272" y="3" on="0"/>
        <pt x="230" y="4" on="0"/>
        <pt x="211" y="4" on="1"/>
        <pt x="194" y="4" on="0"/>
        <pt x="155" y="3" on="0"/>
        <pt x="117" y="2" on="0"/>
        <pt x="86" y="0" on="0"/>
        <pt x="77" y="0" on="1"/>
        <pt x="77" y="60" on="1"/>
        <pt x="146" y="60" on="1"/>
        <pt x="146" y="344" on="1"/>
        <pt x="146" y="359" on="0"/>
        <pt x="142" y="374" on="0"/>
        <pt x="128" y="382" on="0"/>
        <pt x="100" y="383" on="0"/>
        <pt x="77" y="383" on="1"/>
        <pt x="77" y="443" on="1"/>
        <pt x="261" y="451" on="1"/>
        <pt x="261" y="349" on="1"/>
        <pt x="269" y="361" on="0"/>
        <pt x="300" y="396" on="0"/>
        <pt x="351" y="428" on="0"/>
        <pt x="422" y="451" on="0"/>
        <pt x="470" y="451" on="1"/>
        <pt x="503" y="451" on="0"/>
        <pt x="568" y="440" on="0"/>
        <pt x="619" y="408" on="0"/>
        <pt x="651" y="348" on="0"/>
        <pt x="651" y="298" on="1"/>
      </contour>
    </TTGlyph>
    <TTGlyph name="nine" xMin="65" yMin="-14" xMax="627" yMax="658">
      <contour>
        <pt x="475" y="299" on="1"/>
        <pt x="468" y="289" on="0"/>
        <pt x="443" y="263" on="0"/>
        <pt x="407" y="239" on="0"/>
        <pt x="359" y="223" on="0"/>
        <pt x="330" y="223" on="1"/>
        <pt x="266" y="223" on="0"/>
        <pt x="167" y="257" on="0"/>
        <pt x="99" y="315" on="0"/>
        <pt x="65" y="394" on="0"/>
        <pt x="65" y="440" on="1"/>
        <pt x="65" y="490" on="0"/>
        <pt x="105" y="570" on="0"/>
        <pt x="179" y="627" on="0"/>
        <pt x="283" y="658" on="0"/>
        <pt x="347" y="658" on="1"/>
        <pt x="424" y="658" on="0"/>
        <pt x="530" y="609" on="0"/>
        <pt x="597" y="522" on="0"/>
        <pt x="627" y="400" on="0"/>
        <pt x="627" y="328" on="1"/>
        <pt x="627" y="243" on="0"/>
        <pt x="573" y="115" on="0"/>
        <pt x="482" y="29" on="0"/>
        <pt x="359" y="-14" on="0"/>
        <pt x="290" y="-14" on="1"/>
        <pt x="284" y="-14" on="0"/>
        <pt x="250" y="-13" on="0"/>
        <pt x="208" y="-5" on="0"/>
        <pt x="162" y="11" on="0"/>
        <pt x="124" y="41" on="0"/>
        <pt x="99" y="87" on="0"/>
        <pt x="99" y="120" on="1"/>
        <pt x="99" y="140" on="0"/>
        <pt x="113" y="168" on="0"/>
        <pt x="134" y="186" on="0"/>
        <pt x="159" y="194" on="0"/>
        <pt x="171" y="194" on="1"/>
        <pt x="199" y="194" on="0"/>
        <pt x="243" y="156" on="0"/>
        <pt x="243" y="122" on="1"/>
        <pt x="243" y="99" on="0"/>
        <pt x="223" y="69" on="0"/>
        <pt x="206" y="58" on="1"/>
        <pt x="220" y="50" on="0"/>
        <pt x="264" y="41" on="0"/>
        <pt x="289" y="41" on="1"/>
        <pt x="336" y="41" on="0"/>
        <pt x="422" y="83" on="0"/>
        <pt x="445" y="124" on="1"/>
        <pt x="461" y="155" on="0"/>
        <pt x="475" y="236" on="0"/>
      </contour>
      <contour>
        <pt x="334" y="275" on="1"/>
        <pt x="373" y="275" on="0"/>
        <pt x="426" y="306" on="0"/>
        <pt x="459" y="352" on="0"/>
        <pt x="473" y="405" on="0"/>
        <pt x="473" y="427" on="1"/>
        <pt x="473" y="453" on="0"/>
        <pt x="468" y="515" on="0"/>
        <pt x="444" y="571" on="0"/>
        <pt x="394" y="608" on="0"/>
        <pt x="349" y="608" on="1"/>
        <pt x="300" y="608" on="0"/>
        <pt x="246" y="579" on="0"/>
        <pt x="221" y="531" on="0"/>
        <pt x="217" y="471" on="0"/>
        <pt x="217" y="440" on="1"/>
        <pt x="217" y="407" on="0"/>
        <pt x="221" y="348" on="0"/>
        <pt x="243" y="302" on="0"/>
        <pt x="290" y="275" on="0"/>
      </contour>
    </TTGlyph>
    <TTGlyph name="numbersign" xMin="84" yMin="-194" xMax="1058" yMax="694">
      <contour>
        <pt x="730" y="161" on="1"/>
        <pt x="1007" y="161" on="1"/>
        <pt x="1011" y="161" on="0"/>
        <pt x="1028" y="160" on="0"/>
        <pt x="1045" y="152" on="0"/>
        <pt x="1058" y="136" on="0"/>
        <pt x="1058" y="121" on="1"/>
        <pt x="1058" y="106" on="0"/>
        <pt x="1045" y="91" on="0"/>
        <pt x="1028" y="83" on="0"/>
        <pt x="1011" y="82" on="0"/>
        <pt x="1007" y="82" on="1"/>
        <pt x="700" y="82" on="1"/>
        <pt x="611" y="-162" on="1"/>
        <pt x="610" y="-165" on="0"/>
        <pt x="605" y="-175" on="0"/>
        <pt x="596" y="-186" on="0"/>
        <pt x="582" y="-194" on="0"/>
        <pt x="572" y="-194" on="1"/>
        <pt x="555" y="-194" on="0"/>
        <pt x="532" y="-171" on="0"/>
        <pt x="532" y="-154" on="1"/>
        <pt x="532" y="-149" on="0"/>
        <pt x="543" y="-116" on="0"/>
        <pt x="548" y="-102" on="1"/>
        <pt x="550" y="-98" on="0"/>
        <pt x="559" y="-73" on="0"/>
        <pt x="572" y="-37" on="0"/>
        <pt x="587" y="4" on="0"/>
        <pt x="601" y="43" on="0"/>
        <pt x="613" y="74" on="0"/>
        <pt x="616" y="82" on="1"/>
        <pt x="402" y="82" on="1"/>
        <pt x="313" y="-162" on="1"/>
        <pt x="312" y="-165" on="0"/>
        <pt x="307" y="-175" on="0"/>
        <pt x="298" y="-186" on="0"/>
        <pt x="284" y="-194" on="0"/>
        <pt x="274" y="-194" on="1"/>
        <pt x="257" y="-194" on="0"/>
        <pt x="234" y="-171" on="0"/>
        <pt x="234" y="-154" on="1"/>
        <pt x="234" y="-149" on="0"/>
        <pt x="245" y="-116" on="0"/>
        <pt x="250" y="-102" on="1"/>
        <pt x="252" y="-98" on="0"/>
        <pt x="261" y="-73" on="0"/>
        <pt x="274" y="-37" on="0"/>
        <pt x="289" y="4" on="0"/>
        <pt x="303" y="43" on="0"/>
        <pt x="315" y="74" on="0"/>
        <pt x="318" y="82" on="1"/>
        <pt x="135" y="82" on="1"/>
        <pt x="131" y="82" on="0"/>
        <pt x="114" y="83" on="0"/>
        <pt x="97" y="91" on="0"/>
        <pt x="84" y="106" on="0"/>
        <pt x="84" y="121" on="1"/>
        <pt x="84" y="136" on="0"/>
        <pt x="97" y="152" on="0"/>
        <pt x="113" y="160" on="0"/>
        <pt x="131" y="161" on="0"/>
        <pt x="135" y="161" on="1"/>
        <pt x="348" y="161" on="1"/>
        <pt x="413" y="340" on="1"/>
        <pt x="135" y="340" on="1"/>
        <pt x="131" y="340" on="0"/>
        <pt x="114" y="341" on="0"/>
        <pt x="97" y="349" on="0"/>
        <pt x="84" y="365" on="0"/>
        <pt x="84" y="380" on="1"/>
        <pt x="84" y="395" on="0"/>
        <pt x="97" y="410" on="0"/>
        <pt x="114" y="418" on="0"/>
        <pt x="131" y="419" on="0"/>
        <pt x="135" y="419" on="1"/>
        <pt x="443" y="419" on="1"/>
        <pt x="531" y="662" on="1"/>
        <pt x="532" y="665" on="0"/>
        <pt x="537" y="675" on="0"/>
        <pt x="546" y="686" on="0"/>
        <pt x="560" y="694" on="0"/>
        <pt x="570" y="694" on="1"/>
        <pt x="587" y="694" on="0"/>
        <pt x="610" y="671" on="0"/>
        <pt x="610" y="654" on="1"/>
        <pt x="610" y="650" on="0"/>
        <pt x="609" y="643" on="0"/>
        <pt x="604" y="632" on="1"/>
        <pt x="527" y="419" on="1"/>
        <pt x="741" y="419" on="1"/>
        <pt x="829" y="662" on="1"/>
        <pt x="830" y="665" on="0"/>
        <pt x="835" y="675" on="0"/>
        <pt x="844" y="686" on="0"/>
        <pt x="858" y="694" on="0"/>
        <pt x="868" y="694" on="1"/>
        <pt x="885" y="694" on="0"/>
        <pt x="908" y="671" on="0"/>
        <pt x="908" y="654" on="1"/>
        <pt x="908" y="650" on="0"/>
        <pt x="907" y="643" on="0"/>
        <pt x="902" y="632" on="1"/>
        <pt x="825" y="419" on="1"/>
        <pt x="1007" y="419" on="1"/>
        <pt x="1011" y="419" on="0"/>
        <pt x="1028" y="418" on="0"/>
        <pt x="1045" y="410" on="0"/>
        <pt x="1058" y="395" on="0"/>
        <pt x="1058" y="380" on="1"/>
        <pt x="1058" y="365" on="0"/>
        <pt x="1045" y="349" on="0"/>
        <pt x="1029" y="341" on="0"/>
        <pt x="1012" y="340" on="0"/>
        <pt x="1007" y="340" on="1"/>
        <pt x="795" y="340" on="1"/>
      </contour>
      <contour>
        <pt x="432" y="161" on="1"/>
        <pt x="646" y="161" on="1"/>
        <pt x="711" y="340" on="1"/>
        <pt x="497" y="340" on="1"/>
      </contour>
    </TTGlyph>
    <TTGlyph name="o" xMin="46" yMin="-7" xMax="646" yMax="455">
      <contour>
        <pt x="646" y="218" on="1"/>
        <pt x="646" y="176" on="0"/>
        <pt x="612" y="95" on="0"/>
        <pt x="539" y="32" on="0"/>
        <pt x="426" y="-7" on="0"/>
        <pt x="346" y="-7" on="1"/>
        <pt x="267" y="-7" on="0"/>
        <pt x="154" y="31" on="0"/>
        <pt x="81" y="94" on="0"/>
        <pt x="46" y="175" on="0"/>
        <pt x="46" y="218" on="1"/>
        <pt x="46" y="260" on="0"/>
        <pt x="79" y="345" on="0"/>
        <pt x="151" y="413" on="0"/>
        <pt x="265" y="455" on="0"/>
        <pt x="346" y="455" on="1"/>
        <pt x="427" y="455" on="0"/>
        <pt x="541" y="413" on="0"/>
        <pt x="613" y="346" on="0"/>
        <pt x="646" y="261" on="0"/>
      </contour>
      <contour>
        <pt x="346" y="49" on="1"/>
        <pt x="405" y="49" on="0"/>
        <pt x="468" y="82" on="0"/>
        <pt x="497" y="134" on="0"/>
        <pt x="502" y="199" on="0"/>
        <pt x="502" y="230" on="1"/>
        <pt x="502" y="260" on="0"/>
        <pt x="497" y="321" on="0"/>
        <pt x="468" y="372" on="0"/>
        <pt x="405" y="404" on="0"/>
        <pt x="346" y="404" on="1"/>
        <pt x="288" y="404" on="0"/>
        <pt x="224" y="372" on="0"/>
        <pt x="195" y="321" on="0"/>
        <pt x="190" y="260" on="0"/>
        <pt x="190" y="230" on="1"/>
        <pt x="190" y="199" on="0"/>
        <pt x="195" y="134" on="0"/>
        <pt x="224" y="82" on="0"/>
        <pt x="288" y="49" on="0"/>
      </contour>
    </TTGlyph>
</ttFont>
